G04 #@! TF.GenerationSoftware,KiCad,Pcbnew,(5.1.9)-1*
G04 #@! TF.CreationDate,2021-09-19T00:14:35-05:00*
G04 #@! TF.ProjectId,atmel_vga,61746d65-6c5f-4766-9761-2e6b69636164,rev?*
G04 #@! TF.SameCoordinates,Original*
G04 #@! TF.FileFunction,Legend,Top*
G04 #@! TF.FilePolarity,Positive*
%FSLAX46Y46*%
G04 Gerber Fmt 4.6, Leading zero omitted, Abs format (unit mm)*
G04 Created by KiCad (PCBNEW (5.1.9)-1) date 2021-09-19 00:14:35*
%MOMM*%
%LPD*%
G01*
G04 APERTURE LIST*
%ADD10C,0.152400*%
%ADD11C,0.150000*%
%ADD12C,0.279400*%
%ADD13C,0.120000*%
%ADD14C,0.203200*%
G04 APERTURE END LIST*
D10*
X86547476Y-129618619D02*
X86353952Y-129618619D01*
X86257190Y-129667000D01*
X86208809Y-129715380D01*
X86112047Y-129860523D01*
X86063666Y-130054047D01*
X86063666Y-130441095D01*
X86112047Y-130537857D01*
X86160428Y-130586238D01*
X86257190Y-130634619D01*
X86450714Y-130634619D01*
X86547476Y-130586238D01*
X86595857Y-130537857D01*
X86644238Y-130441095D01*
X86644238Y-130199190D01*
X86595857Y-130102428D01*
X86547476Y-130054047D01*
X86450714Y-130005666D01*
X86257190Y-130005666D01*
X86160428Y-130054047D01*
X86112047Y-130102428D01*
X86063666Y-130199190D01*
X87515095Y-129957285D02*
X87515095Y-130634619D01*
X87273190Y-129570238D02*
X87031285Y-130295952D01*
X87660238Y-130295952D01*
X88240809Y-129618619D02*
X88337571Y-129618619D01*
X88434333Y-129667000D01*
X88482714Y-129715380D01*
X88531095Y-129812142D01*
X88579476Y-130005666D01*
X88579476Y-130247571D01*
X88531095Y-130441095D01*
X88482714Y-130537857D01*
X88434333Y-130586238D01*
X88337571Y-130634619D01*
X88240809Y-130634619D01*
X88144047Y-130586238D01*
X88095666Y-130537857D01*
X88047285Y-130441095D01*
X87998904Y-130247571D01*
X87998904Y-130005666D01*
X88047285Y-129812142D01*
X88095666Y-129715380D01*
X88144047Y-129667000D01*
X88240809Y-129618619D01*
X88918142Y-130634619D02*
X89450333Y-129957285D01*
X88918142Y-129957285D02*
X89450333Y-130634619D01*
X90272809Y-129957285D02*
X90272809Y-130634619D01*
X90030904Y-129570238D02*
X89789000Y-130295952D01*
X90417952Y-130295952D01*
X90950142Y-130054047D02*
X90853380Y-130005666D01*
X90805000Y-129957285D01*
X90756619Y-129860523D01*
X90756619Y-129812142D01*
X90805000Y-129715380D01*
X90853380Y-129667000D01*
X90950142Y-129618619D01*
X91143666Y-129618619D01*
X91240428Y-129667000D01*
X91288809Y-129715380D01*
X91337190Y-129812142D01*
X91337190Y-129860523D01*
X91288809Y-129957285D01*
X91240428Y-130005666D01*
X91143666Y-130054047D01*
X90950142Y-130054047D01*
X90853380Y-130102428D01*
X90805000Y-130150809D01*
X90756619Y-130247571D01*
X90756619Y-130441095D01*
X90805000Y-130537857D01*
X90853380Y-130586238D01*
X90950142Y-130634619D01*
X91143666Y-130634619D01*
X91240428Y-130586238D01*
X91288809Y-130537857D01*
X91337190Y-130441095D01*
X91337190Y-130247571D01*
X91288809Y-130150809D01*
X91240428Y-130102428D01*
X91143666Y-130054047D01*
X91966142Y-129618619D02*
X92062904Y-129618619D01*
X92159666Y-129667000D01*
X92208047Y-129715380D01*
X92256428Y-129812142D01*
X92304809Y-130005666D01*
X92304809Y-130247571D01*
X92256428Y-130441095D01*
X92208047Y-130537857D01*
X92159666Y-130586238D01*
X92062904Y-130634619D01*
X91966142Y-130634619D01*
X91869380Y-130586238D01*
X91821000Y-130537857D01*
X91772619Y-130441095D01*
X91724238Y-130247571D01*
X91724238Y-130005666D01*
X91772619Y-129812142D01*
X91821000Y-129715380D01*
X91869380Y-129667000D01*
X91966142Y-129618619D01*
X93369190Y-130150809D02*
X93320809Y-130102428D01*
X93224047Y-130054047D01*
X93127285Y-130054047D01*
X93030523Y-130102428D01*
X92982142Y-130150809D01*
X92933761Y-130247571D01*
X92933761Y-130344333D01*
X92982142Y-130441095D01*
X93030523Y-130489476D01*
X93127285Y-130537857D01*
X93224047Y-130537857D01*
X93320809Y-130489476D01*
X93369190Y-130441095D01*
X93369190Y-130054047D02*
X93369190Y-130441095D01*
X93417571Y-130489476D01*
X93465952Y-130489476D01*
X93562714Y-130441095D01*
X93611095Y-130344333D01*
X93611095Y-130102428D01*
X93514333Y-129957285D01*
X93369190Y-129860523D01*
X93175666Y-129812142D01*
X92982142Y-129860523D01*
X92837000Y-129957285D01*
X92740238Y-130102428D01*
X92691857Y-130295952D01*
X92740238Y-130489476D01*
X92837000Y-130634619D01*
X92982142Y-130731380D01*
X93175666Y-130779761D01*
X93369190Y-130731380D01*
X93514333Y-130634619D01*
X94481952Y-129618619D02*
X94288428Y-129618619D01*
X94191666Y-129667000D01*
X94143285Y-129715380D01*
X94046523Y-129860523D01*
X93998142Y-130054047D01*
X93998142Y-130441095D01*
X94046523Y-130537857D01*
X94094904Y-130586238D01*
X94191666Y-130634619D01*
X94385190Y-130634619D01*
X94481952Y-130586238D01*
X94530333Y-130537857D01*
X94578714Y-130441095D01*
X94578714Y-130199190D01*
X94530333Y-130102428D01*
X94481952Y-130054047D01*
X94385190Y-130005666D01*
X94191666Y-130005666D01*
X94094904Y-130054047D01*
X94046523Y-130102428D01*
X93998142Y-130199190D01*
X95207666Y-129618619D02*
X95304428Y-129618619D01*
X95401190Y-129667000D01*
X95449571Y-129715380D01*
X95497952Y-129812142D01*
X95546333Y-130005666D01*
X95546333Y-130247571D01*
X95497952Y-130441095D01*
X95449571Y-130537857D01*
X95401190Y-130586238D01*
X95304428Y-130634619D01*
X95207666Y-130634619D01*
X95110904Y-130586238D01*
X95062523Y-130537857D01*
X95014142Y-130441095D01*
X94965761Y-130247571D01*
X94965761Y-130005666D01*
X95014142Y-129812142D01*
X95062523Y-129715380D01*
X95110904Y-129667000D01*
X95207666Y-129618619D01*
D11*
X165970857Y-82493142D02*
X166478857Y-82493142D01*
X166696571Y-83291428D02*
X165970857Y-83291428D01*
X165970857Y-81767428D01*
X166696571Y-81767428D01*
X167349714Y-82493142D02*
X167857714Y-82493142D01*
X168075428Y-83291428D02*
X167349714Y-83291428D01*
X167349714Y-81767428D01*
X168075428Y-81767428D01*
X168728571Y-83291428D02*
X168728571Y-81767428D01*
X169309142Y-81767428D01*
X169454285Y-81840000D01*
X169526857Y-81912571D01*
X169599428Y-82057714D01*
X169599428Y-82275428D01*
X169526857Y-82420571D01*
X169454285Y-82493142D01*
X169309142Y-82565714D01*
X168728571Y-82565714D01*
X171123428Y-83291428D02*
X170615428Y-82565714D01*
X170252571Y-83291428D02*
X170252571Y-81767428D01*
X170833142Y-81767428D01*
X170978285Y-81840000D01*
X171050857Y-81912571D01*
X171123428Y-82057714D01*
X171123428Y-82275428D01*
X171050857Y-82420571D01*
X170978285Y-82493142D01*
X170833142Y-82565714D01*
X170252571Y-82565714D01*
X172066857Y-81767428D02*
X172357142Y-81767428D01*
X172502285Y-81840000D01*
X172647428Y-81985142D01*
X172720000Y-82275428D01*
X172720000Y-82783428D01*
X172647428Y-83073714D01*
X172502285Y-83218857D01*
X172357142Y-83291428D01*
X172066857Y-83291428D01*
X171921714Y-83218857D01*
X171776571Y-83073714D01*
X171704000Y-82783428D01*
X171704000Y-82275428D01*
X171776571Y-81985142D01*
X171921714Y-81840000D01*
X172066857Y-81767428D01*
X173373142Y-83291428D02*
X173373142Y-81767428D01*
X173881142Y-82856000D01*
X174389142Y-81767428D01*
X174389142Y-83291428D01*
X165208857Y-86308000D02*
X165136285Y-86235428D01*
X164991142Y-86017714D01*
X164918571Y-85872571D01*
X164846000Y-85654857D01*
X164773428Y-85292000D01*
X164773428Y-85001714D01*
X164846000Y-84638857D01*
X164918571Y-84421142D01*
X164991142Y-84276000D01*
X165136285Y-84058285D01*
X165208857Y-83985714D01*
X166079714Y-84203428D02*
X166370000Y-84203428D01*
X166515142Y-84276000D01*
X166660285Y-84421142D01*
X166732857Y-84711428D01*
X166732857Y-85219428D01*
X166660285Y-85509714D01*
X166515142Y-85654857D01*
X166370000Y-85727428D01*
X166079714Y-85727428D01*
X165934571Y-85654857D01*
X165789428Y-85509714D01*
X165716857Y-85219428D01*
X165716857Y-84711428D01*
X165789428Y-84421142D01*
X165934571Y-84276000D01*
X166079714Y-84203428D01*
X167386000Y-84711428D02*
X167386000Y-86235428D01*
X167386000Y-84784000D02*
X167531142Y-84711428D01*
X167821428Y-84711428D01*
X167966571Y-84784000D01*
X168039142Y-84856571D01*
X168111714Y-85001714D01*
X168111714Y-85437142D01*
X168039142Y-85582285D01*
X167966571Y-85654857D01*
X167821428Y-85727428D01*
X167531142Y-85727428D01*
X167386000Y-85654857D01*
X168547142Y-84711428D02*
X169127714Y-84711428D01*
X168764857Y-84203428D02*
X168764857Y-85509714D01*
X168837428Y-85654857D01*
X168982571Y-85727428D01*
X169127714Y-85727428D01*
X169635714Y-85727428D02*
X169635714Y-84711428D01*
X169635714Y-84203428D02*
X169563142Y-84276000D01*
X169635714Y-84348571D01*
X169708285Y-84276000D01*
X169635714Y-84203428D01*
X169635714Y-84348571D01*
X170579142Y-85727428D02*
X170434000Y-85654857D01*
X170361428Y-85582285D01*
X170288857Y-85437142D01*
X170288857Y-85001714D01*
X170361428Y-84856571D01*
X170434000Y-84784000D01*
X170579142Y-84711428D01*
X170796857Y-84711428D01*
X170942000Y-84784000D01*
X171014571Y-84856571D01*
X171087142Y-85001714D01*
X171087142Y-85437142D01*
X171014571Y-85582285D01*
X170942000Y-85654857D01*
X170796857Y-85727428D01*
X170579142Y-85727428D01*
X171740285Y-84711428D02*
X171740285Y-85727428D01*
X171740285Y-84856571D02*
X171812857Y-84784000D01*
X171958000Y-84711428D01*
X172175714Y-84711428D01*
X172320857Y-84784000D01*
X172393428Y-84929142D01*
X172393428Y-85727428D01*
X173772285Y-85727428D02*
X173772285Y-84929142D01*
X173699714Y-84784000D01*
X173554571Y-84711428D01*
X173264285Y-84711428D01*
X173119142Y-84784000D01*
X173772285Y-85654857D02*
X173627142Y-85727428D01*
X173264285Y-85727428D01*
X173119142Y-85654857D01*
X173046571Y-85509714D01*
X173046571Y-85364571D01*
X173119142Y-85219428D01*
X173264285Y-85146857D01*
X173627142Y-85146857D01*
X173772285Y-85074285D01*
X174715714Y-85727428D02*
X174570571Y-85654857D01*
X174498000Y-85509714D01*
X174498000Y-84203428D01*
X175151142Y-86308000D02*
X175223714Y-86235428D01*
X175368857Y-86017714D01*
X175441428Y-85872571D01*
X175514000Y-85654857D01*
X175586571Y-85292000D01*
X175586571Y-85001714D01*
X175514000Y-84638857D01*
X175441428Y-84421142D01*
X175368857Y-84276000D01*
X175223714Y-84058285D01*
X175151142Y-83985714D01*
X168148000Y-117275428D02*
X168656000Y-118799428D01*
X169164000Y-117275428D01*
X169672000Y-118799428D02*
X169672000Y-117275428D01*
X170034857Y-117275428D01*
X170252571Y-117348000D01*
X170397714Y-117493142D01*
X170470285Y-117638285D01*
X170542857Y-117928571D01*
X170542857Y-118146285D01*
X170470285Y-118436571D01*
X170397714Y-118581714D01*
X170252571Y-118726857D01*
X170034857Y-118799428D01*
X169672000Y-118799428D01*
X171196000Y-118799428D02*
X171196000Y-117275428D01*
X171776571Y-117275428D01*
X171921714Y-117348000D01*
X171994285Y-117420571D01*
X172066857Y-117565714D01*
X172066857Y-117783428D01*
X171994285Y-117928571D01*
X171921714Y-118001142D01*
X171776571Y-118073714D01*
X171196000Y-118073714D01*
X140389428Y-108585000D02*
X138865428Y-108585000D01*
X138865428Y-108004428D01*
X138938000Y-107859285D01*
X139010571Y-107786714D01*
X139155714Y-107714142D01*
X139373428Y-107714142D01*
X139518571Y-107786714D01*
X139591142Y-107859285D01*
X139663714Y-108004428D01*
X139663714Y-108585000D01*
X140244285Y-106190142D02*
X140316857Y-106262714D01*
X140389428Y-106480428D01*
X140389428Y-106625571D01*
X140316857Y-106843285D01*
X140171714Y-106988428D01*
X140026571Y-107061000D01*
X139736285Y-107133571D01*
X139518571Y-107133571D01*
X139228285Y-107061000D01*
X139083142Y-106988428D01*
X138938000Y-106843285D01*
X138865428Y-106625571D01*
X138865428Y-106480428D01*
X138938000Y-106262714D01*
X139010571Y-106190142D01*
X140389428Y-104811285D02*
X140389428Y-105537000D01*
X138865428Y-105537000D01*
X140389428Y-104303285D02*
X138865428Y-104303285D01*
X140389428Y-103432428D02*
X139518571Y-104085571D01*
X138865428Y-103432428D02*
X139736285Y-104303285D01*
X139591142Y-131717142D02*
X139663714Y-131499428D01*
X139736285Y-131426857D01*
X139881428Y-131354285D01*
X140099142Y-131354285D01*
X140244285Y-131426857D01*
X140316857Y-131499428D01*
X140389428Y-131644571D01*
X140389428Y-132225142D01*
X138865428Y-132225142D01*
X138865428Y-131717142D01*
X138938000Y-131572000D01*
X139010571Y-131499428D01*
X139155714Y-131426857D01*
X139300857Y-131426857D01*
X139446000Y-131499428D01*
X139518571Y-131572000D01*
X139591142Y-131717142D01*
X139591142Y-132225142D01*
X138865428Y-130701142D02*
X140099142Y-130701142D01*
X140244285Y-130628571D01*
X140316857Y-130556000D01*
X140389428Y-130410857D01*
X140389428Y-130120571D01*
X140316857Y-129975428D01*
X140244285Y-129902857D01*
X140099142Y-129830285D01*
X138865428Y-129830285D01*
X139591142Y-128596571D02*
X139591142Y-129104571D01*
X140389428Y-129104571D02*
X138865428Y-129104571D01*
X138865428Y-128378857D01*
X139591142Y-127290285D02*
X139591142Y-127798285D01*
X140389428Y-127798285D02*
X138865428Y-127798285D01*
X138865428Y-127072571D01*
X139591142Y-126492000D02*
X139591142Y-125984000D01*
X140389428Y-125766285D02*
X140389428Y-126492000D01*
X138865428Y-126492000D01*
X138865428Y-125766285D01*
X140389428Y-124242285D02*
X139663714Y-124750285D01*
X140389428Y-125113142D02*
X138865428Y-125113142D01*
X138865428Y-124532571D01*
X138938000Y-124387428D01*
X139010571Y-124314857D01*
X139155714Y-124242285D01*
X139373428Y-124242285D01*
X139518571Y-124314857D01*
X139591142Y-124387428D01*
X139663714Y-124532571D01*
X139663714Y-125113142D01*
X114662857Y-131971142D02*
X114880571Y-132043714D01*
X114953142Y-132116285D01*
X115025714Y-132261428D01*
X115025714Y-132479142D01*
X114953142Y-132624285D01*
X114880571Y-132696857D01*
X114735428Y-132769428D01*
X114154857Y-132769428D01*
X114154857Y-131245428D01*
X114662857Y-131245428D01*
X114808000Y-131318000D01*
X114880571Y-131390571D01*
X114953142Y-131535714D01*
X114953142Y-131680857D01*
X114880571Y-131826000D01*
X114808000Y-131898571D01*
X114662857Y-131971142D01*
X114154857Y-131971142D01*
X115678857Y-131245428D02*
X115678857Y-132479142D01*
X115751428Y-132624285D01*
X115824000Y-132696857D01*
X115969142Y-132769428D01*
X116259428Y-132769428D01*
X116404571Y-132696857D01*
X116477142Y-132624285D01*
X116549714Y-132479142D01*
X116549714Y-131245428D01*
X117783428Y-131971142D02*
X117275428Y-131971142D01*
X117275428Y-132769428D02*
X117275428Y-131245428D01*
X118001142Y-131245428D01*
X119089714Y-131971142D02*
X118581714Y-131971142D01*
X118581714Y-132769428D02*
X118581714Y-131245428D01*
X119307428Y-131245428D01*
X119888000Y-131971142D02*
X120396000Y-131971142D01*
X120613714Y-132769428D02*
X119888000Y-132769428D01*
X119888000Y-131245428D01*
X120613714Y-131245428D01*
X122137714Y-132769428D02*
X121629714Y-132043714D01*
X121266857Y-132769428D02*
X121266857Y-131245428D01*
X121847428Y-131245428D01*
X121992571Y-131318000D01*
X122065142Y-131390571D01*
X122137714Y-131535714D01*
X122137714Y-131753428D01*
X122065142Y-131898571D01*
X121992571Y-131971142D01*
X121847428Y-132043714D01*
X121266857Y-132043714D01*
X129540000Y-102235000D02*
X132080000Y-102235000D01*
X129540000Y-113030000D02*
X129540000Y-102235000D01*
X129540000Y-109220000D02*
X132080000Y-109220000D01*
X129540000Y-113030000D02*
X132080000Y-113030000D01*
X132080000Y-137160000D02*
X129540000Y-137160000D01*
X129540000Y-133350000D02*
X132080000Y-133350000D01*
X132080000Y-126365000D02*
X129540000Y-126365000D01*
X132080000Y-125095000D02*
X132080000Y-114300000D01*
X132080000Y-113030000D02*
X132080000Y-102235000D01*
X132080000Y-97155000D02*
X132080000Y-100965000D01*
X132080000Y-97155000D02*
X129540000Y-97155000D01*
D10*
X130592285Y-112044238D02*
X131269619Y-112044238D01*
X130205238Y-112286142D02*
X130930952Y-112528047D01*
X130930952Y-111899095D01*
X130882571Y-111512047D02*
X130882571Y-110737952D01*
X130253619Y-109818714D02*
X130253619Y-110012238D01*
X130302000Y-110109000D01*
X130350380Y-110157380D01*
X130495523Y-110254142D01*
X130689047Y-110302523D01*
X131076095Y-110302523D01*
X131172857Y-110254142D01*
X131221238Y-110205761D01*
X131269619Y-110109000D01*
X131269619Y-109915476D01*
X131221238Y-109818714D01*
X131172857Y-109770333D01*
X131076095Y-109721952D01*
X130834190Y-109721952D01*
X130737428Y-109770333D01*
X130689047Y-109818714D01*
X130640666Y-109915476D01*
X130640666Y-110109000D01*
X130689047Y-110205761D01*
X130737428Y-110254142D01*
X130834190Y-110302523D01*
X130350380Y-100463047D02*
X130302000Y-100414666D01*
X130253619Y-100317904D01*
X130253619Y-100076000D01*
X130302000Y-99979238D01*
X130350380Y-99930857D01*
X130447142Y-99882476D01*
X130543904Y-99882476D01*
X130689047Y-99930857D01*
X131269619Y-100511428D01*
X131269619Y-99882476D01*
X130882571Y-99447047D02*
X130882571Y-98672952D01*
X130592285Y-97753714D02*
X131269619Y-97753714D01*
X130205238Y-97995619D02*
X130930952Y-98237523D01*
X130930952Y-97608571D01*
D11*
X129540000Y-97155000D02*
X129540000Y-100965000D01*
X130976666Y-108297023D02*
X130976666Y-107820833D01*
X131262380Y-108392261D02*
X130262380Y-108058928D01*
X131262380Y-107725595D01*
X131262380Y-106868452D02*
X131262380Y-107439880D01*
X131262380Y-107154166D02*
X130262380Y-107154166D01*
X130405238Y-107249404D01*
X130500476Y-107344642D01*
X130548095Y-107439880D01*
X130595714Y-106011309D02*
X131262380Y-106011309D01*
X130214761Y-106249404D02*
X130929047Y-106487500D01*
X130929047Y-105868452D01*
X131262380Y-104582738D02*
X131214761Y-104677976D01*
X131167142Y-104725595D01*
X131071904Y-104773214D01*
X130786190Y-104773214D01*
X130690952Y-104725595D01*
X130643333Y-104677976D01*
X130595714Y-104582738D01*
X130595714Y-104439880D01*
X130643333Y-104344642D01*
X130690952Y-104297023D01*
X130786190Y-104249404D01*
X131071904Y-104249404D01*
X131167142Y-104297023D01*
X131214761Y-104344642D01*
X131262380Y-104439880D01*
X131262380Y-104582738D01*
X130595714Y-103820833D02*
X131262380Y-103820833D01*
X130690952Y-103820833D02*
X130643333Y-103773214D01*
X130595714Y-103677976D01*
X130595714Y-103535119D01*
X130643333Y-103439880D01*
X130738571Y-103392261D01*
X131262380Y-103392261D01*
X130976666Y-96232023D02*
X130976666Y-95755833D01*
X131262380Y-96327261D02*
X130262380Y-95993928D01*
X131262380Y-95660595D01*
X131262380Y-94803452D02*
X131262380Y-95374880D01*
X131262380Y-95089166D02*
X130262380Y-95089166D01*
X130405238Y-95184404D01*
X130500476Y-95279642D01*
X130548095Y-95374880D01*
X130595714Y-93946309D02*
X131262380Y-93946309D01*
X130214761Y-94184404D02*
X130929047Y-94422500D01*
X130929047Y-93803452D01*
X131262380Y-92517738D02*
X131214761Y-92612976D01*
X131167142Y-92660595D01*
X131071904Y-92708214D01*
X130786190Y-92708214D01*
X130690952Y-92660595D01*
X130643333Y-92612976D01*
X130595714Y-92517738D01*
X130595714Y-92374880D01*
X130643333Y-92279642D01*
X130690952Y-92232023D01*
X130786190Y-92184404D01*
X131071904Y-92184404D01*
X131167142Y-92232023D01*
X131214761Y-92279642D01*
X131262380Y-92374880D01*
X131262380Y-92517738D01*
X130595714Y-91898690D02*
X130595714Y-91517738D01*
X131262380Y-91755833D02*
X130405238Y-91755833D01*
X130310000Y-91708214D01*
X130262380Y-91612976D01*
X130262380Y-91517738D01*
X130595714Y-91327261D02*
X130595714Y-90946309D01*
X131262380Y-91184404D02*
X130405238Y-91184404D01*
X130310000Y-91136785D01*
X130262380Y-91041547D01*
X130262380Y-90946309D01*
X129540000Y-100965000D02*
X132080000Y-100965000D01*
X129540000Y-97155000D02*
X129540000Y-90170000D01*
X129540000Y-90170000D02*
X132080000Y-90170000D01*
X132080000Y-97155000D02*
X132080000Y-90170000D01*
X129540000Y-133350000D02*
X129540000Y-126365000D01*
X132080000Y-126365000D02*
X132080000Y-133350000D01*
X129540000Y-114300000D02*
X132080000Y-114300000D01*
X129540000Y-121285000D02*
X129540000Y-114300000D01*
X130976666Y-132427023D02*
X130976666Y-131950833D01*
X131262380Y-132522261D02*
X130262380Y-132188928D01*
X131262380Y-131855595D01*
X131262380Y-130998452D02*
X131262380Y-131569880D01*
X131262380Y-131284166D02*
X130262380Y-131284166D01*
X130405238Y-131379404D01*
X130500476Y-131474642D01*
X130548095Y-131569880D01*
X130262380Y-130665119D02*
X130262380Y-130046071D01*
X130643333Y-130379404D01*
X130643333Y-130236547D01*
X130690952Y-130141309D01*
X130738571Y-130093690D01*
X130833809Y-130046071D01*
X131071904Y-130046071D01*
X131167142Y-130093690D01*
X131214761Y-130141309D01*
X131262380Y-130236547D01*
X131262380Y-130522261D01*
X131214761Y-130617500D01*
X131167142Y-130665119D01*
X131262380Y-128712738D02*
X131214761Y-128807976D01*
X131167142Y-128855595D01*
X131071904Y-128903214D01*
X130786190Y-128903214D01*
X130690952Y-128855595D01*
X130643333Y-128807976D01*
X130595714Y-128712738D01*
X130595714Y-128569880D01*
X130643333Y-128474642D01*
X130690952Y-128427023D01*
X130786190Y-128379404D01*
X131071904Y-128379404D01*
X131167142Y-128427023D01*
X131214761Y-128474642D01*
X131262380Y-128569880D01*
X131262380Y-128712738D01*
X130595714Y-127950833D02*
X131262380Y-127950833D01*
X130690952Y-127950833D02*
X130643333Y-127903214D01*
X130595714Y-127807976D01*
X130595714Y-127665119D01*
X130643333Y-127569880D01*
X130738571Y-127522261D01*
X131262380Y-127522261D01*
X130976666Y-120362023D02*
X130976666Y-119885833D01*
X131262380Y-120457261D02*
X130262380Y-120123928D01*
X131262380Y-119790595D01*
X131262380Y-118933452D02*
X131262380Y-119504880D01*
X131262380Y-119219166D02*
X130262380Y-119219166D01*
X130405238Y-119314404D01*
X130500476Y-119409642D01*
X130548095Y-119504880D01*
X130262380Y-118600119D02*
X130262380Y-117981071D01*
X130643333Y-118314404D01*
X130643333Y-118171547D01*
X130690952Y-118076309D01*
X130738571Y-118028690D01*
X130833809Y-117981071D01*
X131071904Y-117981071D01*
X131167142Y-118028690D01*
X131214761Y-118076309D01*
X131262380Y-118171547D01*
X131262380Y-118457261D01*
X131214761Y-118552500D01*
X131167142Y-118600119D01*
X131262380Y-116647738D02*
X131214761Y-116742976D01*
X131167142Y-116790595D01*
X131071904Y-116838214D01*
X130786190Y-116838214D01*
X130690952Y-116790595D01*
X130643333Y-116742976D01*
X130595714Y-116647738D01*
X130595714Y-116504880D01*
X130643333Y-116409642D01*
X130690952Y-116362023D01*
X130786190Y-116314404D01*
X131071904Y-116314404D01*
X131167142Y-116362023D01*
X131214761Y-116409642D01*
X131262380Y-116504880D01*
X131262380Y-116647738D01*
X130595714Y-116028690D02*
X130595714Y-115647738D01*
X131262380Y-115885833D02*
X130405238Y-115885833D01*
X130310000Y-115838214D01*
X130262380Y-115742976D01*
X130262380Y-115647738D01*
X130595714Y-115457261D02*
X130595714Y-115076309D01*
X131262380Y-115314404D02*
X130405238Y-115314404D01*
X130310000Y-115266785D01*
X130262380Y-115171547D01*
X130262380Y-115076309D01*
X129540000Y-133350000D02*
X129540000Y-137160000D01*
X132080000Y-121285000D02*
X129540000Y-121285000D01*
X132080000Y-137160000D02*
X132080000Y-133350000D01*
X129540000Y-125095000D02*
X132080000Y-125095000D01*
X129540000Y-121285000D02*
X129540000Y-125095000D01*
D10*
X130253619Y-136706428D02*
X130253619Y-136077476D01*
X130640666Y-136416142D01*
X130640666Y-136271000D01*
X130689047Y-136174238D01*
X130737428Y-136125857D01*
X130834190Y-136077476D01*
X131076095Y-136077476D01*
X131172857Y-136125857D01*
X131221238Y-136174238D01*
X131269619Y-136271000D01*
X131269619Y-136561285D01*
X131221238Y-136658047D01*
X131172857Y-136706428D01*
X130882571Y-135642047D02*
X130882571Y-134867952D01*
X130253619Y-133900333D02*
X130253619Y-134384142D01*
X130737428Y-134432523D01*
X130689047Y-134384142D01*
X130640666Y-134287380D01*
X130640666Y-134045476D01*
X130689047Y-133948714D01*
X130737428Y-133900333D01*
X130834190Y-133851952D01*
X131076095Y-133851952D01*
X131172857Y-133900333D01*
X131221238Y-133948714D01*
X131269619Y-134045476D01*
X131269619Y-134287380D01*
X131221238Y-134384142D01*
X131172857Y-134432523D01*
X131269619Y-124012476D02*
X131269619Y-124593047D01*
X131269619Y-124302761D02*
X130253619Y-124302761D01*
X130398761Y-124399523D01*
X130495523Y-124496285D01*
X130543904Y-124593047D01*
X130882571Y-123577047D02*
X130882571Y-122802952D01*
X130253619Y-122415904D02*
X130253619Y-121786952D01*
X130640666Y-122125619D01*
X130640666Y-121980476D01*
X130689047Y-121883714D01*
X130737428Y-121835333D01*
X130834190Y-121786952D01*
X131076095Y-121786952D01*
X131172857Y-121835333D01*
X131221238Y-121883714D01*
X131269619Y-121980476D01*
X131269619Y-122270761D01*
X131221238Y-122367523D01*
X131172857Y-122415904D01*
X139893523Y-88682285D02*
X139893523Y-89359619D01*
X139651619Y-88295238D02*
X139409714Y-89020952D01*
X140038666Y-89020952D01*
X142433523Y-88343619D02*
X142240000Y-88343619D01*
X142143238Y-88392000D01*
X142094857Y-88440380D01*
X141998095Y-88585523D01*
X141949714Y-88779047D01*
X141949714Y-89166095D01*
X141998095Y-89262857D01*
X142046476Y-89311238D01*
X142143238Y-89359619D01*
X142336761Y-89359619D01*
X142433523Y-89311238D01*
X142481904Y-89262857D01*
X142530285Y-89166095D01*
X142530285Y-88924190D01*
X142481904Y-88827428D01*
X142433523Y-88779047D01*
X142336761Y-88730666D01*
X142143238Y-88730666D01*
X142046476Y-88779047D01*
X141998095Y-88827428D01*
X141949714Y-88924190D01*
X142481904Y-95963619D02*
X141998095Y-95963619D01*
X141949714Y-96447428D01*
X141998095Y-96399047D01*
X142094857Y-96350666D01*
X142336761Y-96350666D01*
X142433523Y-96399047D01*
X142481904Y-96447428D01*
X142530285Y-96544190D01*
X142530285Y-96786095D01*
X142481904Y-96882857D01*
X142433523Y-96931238D01*
X142336761Y-96979619D01*
X142094857Y-96979619D01*
X141998095Y-96931238D01*
X141949714Y-96882857D01*
X139361333Y-95963619D02*
X139990285Y-95963619D01*
X139651619Y-96350666D01*
X139796761Y-96350666D01*
X139893523Y-96399047D01*
X139941904Y-96447428D01*
X139990285Y-96544190D01*
X139990285Y-96786095D01*
X139941904Y-96882857D01*
X139893523Y-96931238D01*
X139796761Y-96979619D01*
X139506476Y-96979619D01*
X139409714Y-96931238D01*
X139361333Y-96882857D01*
X136869714Y-88440380D02*
X136918095Y-88392000D01*
X137014857Y-88343619D01*
X137256761Y-88343619D01*
X137353523Y-88392000D01*
X137401904Y-88440380D01*
X137450285Y-88537142D01*
X137450285Y-88633904D01*
X137401904Y-88779047D01*
X136821333Y-89359619D01*
X137450285Y-89359619D01*
X137450285Y-96979619D02*
X136869714Y-96979619D01*
X137160000Y-96979619D02*
X137160000Y-95963619D01*
X137063238Y-96108761D01*
X136966476Y-96205523D01*
X136869714Y-96253904D01*
X201539202Y-111294333D02*
X201902060Y-111294333D01*
X201466631Y-111584619D02*
X201720631Y-110568619D01*
X201974631Y-111584619D01*
X202627774Y-111584619D02*
X202192345Y-111584619D01*
X202410060Y-111584619D02*
X202410060Y-110568619D01*
X202337488Y-110713761D01*
X202264917Y-110810523D01*
X202192345Y-110858904D01*
X202881774Y-110568619D02*
X203353488Y-110568619D01*
X203099488Y-110955666D01*
X203208345Y-110955666D01*
X203280917Y-111004047D01*
X203317202Y-111052428D01*
X203353488Y-111149190D01*
X203353488Y-111391095D01*
X203317202Y-111487857D01*
X203280917Y-111536238D01*
X203208345Y-111584619D01*
X202990631Y-111584619D01*
X202918060Y-111536238D01*
X202881774Y-111487857D01*
X201539202Y-108754333D02*
X201902060Y-108754333D01*
X201466631Y-109044619D02*
X201720631Y-108028619D01*
X201974631Y-109044619D01*
X202627774Y-109044619D02*
X202192345Y-109044619D01*
X202410060Y-109044619D02*
X202410060Y-108028619D01*
X202337488Y-108173761D01*
X202264917Y-108270523D01*
X202192345Y-108318904D01*
X203280917Y-108367285D02*
X203280917Y-109044619D01*
X203099488Y-107980238D02*
X202918060Y-108705952D01*
X203389774Y-108705952D01*
X202010917Y-106407857D02*
X201974631Y-106456238D01*
X201865774Y-106504619D01*
X201793202Y-106504619D01*
X201684345Y-106456238D01*
X201611774Y-106359476D01*
X201575488Y-106262714D01*
X201539202Y-106069190D01*
X201539202Y-105924047D01*
X201575488Y-105730523D01*
X201611774Y-105633761D01*
X201684345Y-105537000D01*
X201793202Y-105488619D01*
X201865774Y-105488619D01*
X201974631Y-105537000D01*
X202010917Y-105585380D01*
X202700345Y-106504619D02*
X202337488Y-106504619D01*
X202337488Y-105488619D01*
X202954345Y-106504619D02*
X202954345Y-105488619D01*
X203389774Y-106504619D02*
X203063202Y-105924047D01*
X203389774Y-105488619D02*
X202954345Y-106069190D01*
X201466631Y-102948619D02*
X201720631Y-103964619D01*
X201974631Y-102948619D01*
X202664060Y-103964619D02*
X202410060Y-103480809D01*
X202228631Y-103964619D02*
X202228631Y-102948619D01*
X202518917Y-102948619D01*
X202591488Y-102997000D01*
X202627774Y-103045380D01*
X202664060Y-103142142D01*
X202664060Y-103287285D01*
X202627774Y-103384047D01*
X202591488Y-103432428D01*
X202518917Y-103480809D01*
X202228631Y-103480809D01*
X202881774Y-102948619D02*
X203317202Y-102948619D01*
X203099488Y-103964619D02*
X203099488Y-102948619D01*
D12*
X101358095Y-127665238D02*
X101261333Y-127858761D01*
X101164571Y-127955523D01*
X100971047Y-128052285D01*
X100874285Y-128052285D01*
X100680761Y-127955523D01*
X100584000Y-127858761D01*
X100487238Y-127665238D01*
X100487238Y-127278190D01*
X100584000Y-127084666D01*
X100680761Y-126987904D01*
X100874285Y-126891142D01*
X100971047Y-126891142D01*
X101164571Y-126987904D01*
X101261333Y-127084666D01*
X101358095Y-127278190D01*
X101358095Y-127665238D01*
X101454857Y-127858761D01*
X101551619Y-127955523D01*
X101745142Y-128052285D01*
X102132190Y-128052285D01*
X102325714Y-127955523D01*
X102422476Y-127858761D01*
X102519238Y-127665238D01*
X102519238Y-127278190D01*
X102422476Y-127084666D01*
X102325714Y-126987904D01*
X102132190Y-126891142D01*
X101745142Y-126891142D01*
X101551619Y-126987904D01*
X101454857Y-127084666D01*
X101358095Y-127278190D01*
X101745142Y-126020285D02*
X101745142Y-124472095D01*
X102519238Y-123504476D02*
X100487238Y-123504476D01*
X101261333Y-123504476D02*
X101164571Y-123310952D01*
X101164571Y-122923904D01*
X101261333Y-122730380D01*
X101358095Y-122633619D01*
X101551619Y-122536857D01*
X102132190Y-122536857D01*
X102325714Y-122633619D01*
X102422476Y-122730380D01*
X102519238Y-122923904D01*
X102519238Y-123310952D01*
X102422476Y-123504476D01*
X102519238Y-121666000D02*
X101164571Y-121666000D01*
X100487238Y-121666000D02*
X100584000Y-121762761D01*
X100680761Y-121666000D01*
X100584000Y-121569238D01*
X100487238Y-121666000D01*
X100680761Y-121666000D01*
X101164571Y-120988666D02*
X101164571Y-120214571D01*
X100487238Y-120698380D02*
X102228952Y-120698380D01*
X102422476Y-120601619D01*
X102519238Y-120408095D01*
X102519238Y-120214571D01*
X100487238Y-118279333D02*
X102519238Y-117602000D01*
X100487238Y-116924666D01*
X102519238Y-116247333D02*
X100487238Y-116247333D01*
X100487238Y-115763523D01*
X100584000Y-115473238D01*
X100777523Y-115279714D01*
X100971047Y-115182952D01*
X101358095Y-115086190D01*
X101648380Y-115086190D01*
X102035428Y-115182952D01*
X102228952Y-115279714D01*
X102422476Y-115473238D01*
X102519238Y-115763523D01*
X102519238Y-116247333D01*
X102519238Y-114215333D02*
X100487238Y-114215333D01*
X100487238Y-113441238D01*
X100584000Y-113247714D01*
X100680761Y-113150952D01*
X100874285Y-113054190D01*
X101164571Y-113054190D01*
X101358095Y-113150952D01*
X101454857Y-113247714D01*
X101551619Y-113441238D01*
X101551619Y-114215333D01*
X102519238Y-110635142D02*
X100487238Y-110635142D01*
X101261333Y-110635142D02*
X101164571Y-110441619D01*
X101164571Y-110054571D01*
X101261333Y-109861047D01*
X101358095Y-109764285D01*
X101551619Y-109667523D01*
X102132190Y-109667523D01*
X102325714Y-109764285D01*
X102422476Y-109861047D01*
X102519238Y-110054571D01*
X102519238Y-110441619D01*
X102422476Y-110635142D01*
X101164571Y-108990190D02*
X102519238Y-108506380D01*
X101164571Y-108022571D02*
X102519238Y-108506380D01*
X103003047Y-108699904D01*
X103099809Y-108796666D01*
X103196571Y-108990190D01*
X102519238Y-105700285D02*
X100487238Y-105700285D01*
X101164571Y-104926190D02*
X102519238Y-104442380D01*
X101164571Y-103958571D01*
X102519238Y-102313619D02*
X101454857Y-102313619D01*
X101261333Y-102410380D01*
X101164571Y-102603904D01*
X101164571Y-102990952D01*
X101261333Y-103184476D01*
X102422476Y-102313619D02*
X102519238Y-102507142D01*
X102519238Y-102990952D01*
X102422476Y-103184476D01*
X102228952Y-103281238D01*
X102035428Y-103281238D01*
X101841904Y-103184476D01*
X101745142Y-102990952D01*
X101745142Y-102507142D01*
X101648380Y-102313619D01*
X101164571Y-101346000D02*
X102519238Y-101346000D01*
X101358095Y-101346000D02*
X101261333Y-101249238D01*
X101164571Y-101055714D01*
X101164571Y-100765428D01*
X101261333Y-100571904D01*
X101454857Y-100475142D01*
X102519238Y-100475142D01*
X101454857Y-97282000D02*
X101454857Y-97959333D01*
X102519238Y-97959333D02*
X100487238Y-97959333D01*
X100487238Y-96991714D01*
X102519238Y-95346761D02*
X101454857Y-95346761D01*
X101261333Y-95443523D01*
X101164571Y-95637047D01*
X101164571Y-96024095D01*
X101261333Y-96217619D01*
X102422476Y-95346761D02*
X102519238Y-95540285D01*
X102519238Y-96024095D01*
X102422476Y-96217619D01*
X102228952Y-96314380D01*
X102035428Y-96314380D01*
X101841904Y-96217619D01*
X101745142Y-96024095D01*
X101745142Y-95540285D01*
X101648380Y-95346761D01*
X102519238Y-94379142D02*
X101164571Y-94379142D01*
X101551619Y-94379142D02*
X101358095Y-94282380D01*
X101261333Y-94185619D01*
X101164571Y-93992095D01*
X101164571Y-93798571D01*
X102519238Y-92250380D02*
X101454857Y-92250380D01*
X101261333Y-92347142D01*
X101164571Y-92540666D01*
X101164571Y-92927714D01*
X101261333Y-93121238D01*
X102422476Y-92250380D02*
X102519238Y-92443904D01*
X102519238Y-92927714D01*
X102422476Y-93121238D01*
X102228952Y-93218000D01*
X102035428Y-93218000D01*
X101841904Y-93121238D01*
X101745142Y-92927714D01*
X101745142Y-92443904D01*
X101648380Y-92250380D01*
X101164571Y-91573047D02*
X101164571Y-90798952D01*
X102519238Y-91282761D02*
X100777523Y-91282761D01*
X100584000Y-91186000D01*
X100487238Y-90992476D01*
X100487238Y-90798952D01*
X102519238Y-89831333D02*
X102422476Y-90024857D01*
X102325714Y-90121619D01*
X102132190Y-90218380D01*
X101551619Y-90218380D01*
X101358095Y-90121619D01*
X101261333Y-90024857D01*
X101164571Y-89831333D01*
X101164571Y-89541047D01*
X101261333Y-89347523D01*
X101358095Y-89250761D01*
X101551619Y-89154000D01*
X102132190Y-89154000D01*
X102325714Y-89250761D01*
X102422476Y-89347523D01*
X102519238Y-89541047D01*
X102519238Y-89831333D01*
X101164571Y-88283142D02*
X102519238Y-88283142D01*
X101358095Y-88283142D02*
X101261333Y-88186380D01*
X101164571Y-87992857D01*
X101164571Y-87702571D01*
X101261333Y-87509047D01*
X101454857Y-87412285D01*
X102519238Y-87412285D01*
X101164571Y-86734952D02*
X101164571Y-85960857D01*
X100487238Y-86444666D02*
X102228952Y-86444666D01*
X102422476Y-86347904D01*
X102519238Y-86154380D01*
X102519238Y-85960857D01*
X102519238Y-84993238D02*
X102422476Y-85186761D01*
X102325714Y-85283523D01*
X102132190Y-85380285D01*
X101551619Y-85380285D01*
X101358095Y-85283523D01*
X101261333Y-85186761D01*
X101164571Y-84993238D01*
X101164571Y-84702952D01*
X101261333Y-84509428D01*
X101358095Y-84412666D01*
X101551619Y-84315904D01*
X102132190Y-84315904D01*
X102325714Y-84412666D01*
X102422476Y-84509428D01*
X102519238Y-84702952D01*
X102519238Y-84993238D01*
X101164571Y-83638571D02*
X102519238Y-83154761D01*
X101164571Y-82670952D01*
D10*
X201466631Y-128348619D02*
X201902060Y-128348619D01*
X201684345Y-129364619D02*
X201684345Y-128348619D01*
X202591488Y-129267857D02*
X202555202Y-129316238D01*
X202446345Y-129364619D01*
X202373774Y-129364619D01*
X202264917Y-129316238D01*
X202192345Y-129219476D01*
X202156060Y-129122714D01*
X202119774Y-128929190D01*
X202119774Y-128784047D01*
X202156060Y-128590523D01*
X202192345Y-128493761D01*
X202264917Y-128397000D01*
X202373774Y-128348619D01*
X202446345Y-128348619D01*
X202555202Y-128397000D01*
X202591488Y-128445380D01*
X202918060Y-129364619D02*
X202918060Y-128348619D01*
X203353488Y-129364619D02*
X203026917Y-128784047D01*
X203353488Y-128348619D02*
X202918060Y-128929190D01*
X201466631Y-125808619D02*
X201902060Y-125808619D01*
X201684345Y-126824619D02*
X201684345Y-125808619D01*
X202156060Y-126824619D02*
X202156060Y-125808619D01*
X202337488Y-125808619D01*
X202446345Y-125857000D01*
X202518917Y-125953761D01*
X202555202Y-126050523D01*
X202591488Y-126244047D01*
X202591488Y-126389190D01*
X202555202Y-126582714D01*
X202518917Y-126679476D01*
X202446345Y-126776238D01*
X202337488Y-126824619D01*
X202156060Y-126824619D01*
X203063202Y-125808619D02*
X203208345Y-125808619D01*
X203280917Y-125857000D01*
X203353488Y-125953761D01*
X203389774Y-126147285D01*
X203389774Y-126485952D01*
X203353488Y-126679476D01*
X203280917Y-126776238D01*
X203208345Y-126824619D01*
X203063202Y-126824619D01*
X202990631Y-126776238D01*
X202918060Y-126679476D01*
X202881774Y-126485952D01*
X202881774Y-126147285D01*
X202918060Y-125953761D01*
X202990631Y-125857000D01*
X203063202Y-125808619D01*
X201466631Y-123268619D02*
X201902060Y-123268619D01*
X201684345Y-124284619D02*
X201684345Y-123268619D01*
X202156060Y-124284619D02*
X202156060Y-123268619D01*
X202410060Y-123994333D01*
X202664060Y-123268619D01*
X202664060Y-124284619D01*
X202990631Y-124236238D02*
X203099488Y-124284619D01*
X203280917Y-124284619D01*
X203353488Y-124236238D01*
X203389774Y-124187857D01*
X203426060Y-124091095D01*
X203426060Y-123994333D01*
X203389774Y-123897571D01*
X203353488Y-123849190D01*
X203280917Y-123800809D01*
X203135774Y-123752428D01*
X203063202Y-123704047D01*
X203026917Y-123655666D01*
X202990631Y-123558904D01*
X202990631Y-123462142D01*
X203026917Y-123365380D01*
X203063202Y-123317000D01*
X203135774Y-123268619D01*
X203317202Y-123268619D01*
X203426060Y-123317000D01*
X201466631Y-118188619D02*
X201902060Y-118188619D01*
X201684345Y-119204619D02*
X201684345Y-118188619D01*
X202156060Y-119204619D02*
X202156060Y-118188619D01*
X202337488Y-118188619D01*
X202446345Y-118237000D01*
X202518917Y-118333761D01*
X202555202Y-118430523D01*
X202591488Y-118624047D01*
X202591488Y-118769190D01*
X202555202Y-118962714D01*
X202518917Y-119059476D01*
X202446345Y-119156238D01*
X202337488Y-119204619D01*
X202156060Y-119204619D01*
X202918060Y-119204619D02*
X202918060Y-118188619D01*
X192741368Y-125808619D02*
X192995368Y-126824619D01*
X193249368Y-125808619D01*
X193938797Y-126727857D02*
X193902511Y-126776238D01*
X193793654Y-126824619D01*
X193721082Y-126824619D01*
X193612225Y-126776238D01*
X193539654Y-126679476D01*
X193503368Y-126582714D01*
X193467082Y-126389190D01*
X193467082Y-126244047D01*
X193503368Y-126050523D01*
X193539654Y-125953761D01*
X193612225Y-125857000D01*
X193721082Y-125808619D01*
X193793654Y-125808619D01*
X193902511Y-125857000D01*
X193938797Y-125905380D01*
X194700797Y-126727857D02*
X194664511Y-126776238D01*
X194555654Y-126824619D01*
X194483082Y-126824619D01*
X194374225Y-126776238D01*
X194301654Y-126679476D01*
X194265368Y-126582714D01*
X194229082Y-126389190D01*
X194229082Y-126244047D01*
X194265368Y-126050523D01*
X194301654Y-125953761D01*
X194374225Y-125857000D01*
X194483082Y-125808619D01*
X194555654Y-125808619D01*
X194664511Y-125857000D01*
X194700797Y-125905380D01*
X193104225Y-128397000D02*
X193031654Y-128348619D01*
X192922797Y-128348619D01*
X192813940Y-128397000D01*
X192741368Y-128493761D01*
X192705082Y-128590523D01*
X192668797Y-128784047D01*
X192668797Y-128929190D01*
X192705082Y-129122714D01*
X192741368Y-129219476D01*
X192813940Y-129316238D01*
X192922797Y-129364619D01*
X192995368Y-129364619D01*
X193104225Y-129316238D01*
X193140511Y-129267857D01*
X193140511Y-128929190D01*
X192995368Y-128929190D01*
X193467082Y-129364619D02*
X193467082Y-128348619D01*
X193902511Y-129364619D01*
X193902511Y-128348619D01*
X194265368Y-129364619D02*
X194265368Y-128348619D01*
X194446797Y-128348619D01*
X194555654Y-128397000D01*
X194628225Y-128493761D01*
X194664511Y-128590523D01*
X194700797Y-128784047D01*
X194700797Y-128929190D01*
X194664511Y-129122714D01*
X194628225Y-129219476D01*
X194555654Y-129316238D01*
X194446797Y-129364619D01*
X194265368Y-129364619D01*
X193104225Y-118237000D02*
X193031654Y-118188619D01*
X192922797Y-118188619D01*
X192813940Y-118237000D01*
X192741368Y-118333761D01*
X192705082Y-118430523D01*
X192668797Y-118624047D01*
X192668797Y-118769190D01*
X192705082Y-118962714D01*
X192741368Y-119059476D01*
X192813940Y-119156238D01*
X192922797Y-119204619D01*
X192995368Y-119204619D01*
X193104225Y-119156238D01*
X193140511Y-119107857D01*
X193140511Y-118769190D01*
X192995368Y-118769190D01*
X193467082Y-119204619D02*
X193467082Y-118188619D01*
X193902511Y-119204619D01*
X193902511Y-118188619D01*
X194265368Y-119204619D02*
X194265368Y-118188619D01*
X194446797Y-118188619D01*
X194555654Y-118237000D01*
X194628225Y-118333761D01*
X194664511Y-118430523D01*
X194700797Y-118624047D01*
X194700797Y-118769190D01*
X194664511Y-118962714D01*
X194628225Y-119059476D01*
X194555654Y-119156238D01*
X194446797Y-119204619D01*
X194265368Y-119204619D01*
X201974631Y-113157000D02*
X201902060Y-113108619D01*
X201793202Y-113108619D01*
X201684345Y-113157000D01*
X201611774Y-113253761D01*
X201575488Y-113350523D01*
X201539202Y-113544047D01*
X201539202Y-113689190D01*
X201575488Y-113882714D01*
X201611774Y-113979476D01*
X201684345Y-114076238D01*
X201793202Y-114124619D01*
X201865774Y-114124619D01*
X201974631Y-114076238D01*
X202010917Y-114027857D01*
X202010917Y-113689190D01*
X201865774Y-113689190D01*
X202337488Y-114124619D02*
X202337488Y-113108619D01*
X202772917Y-114124619D01*
X202772917Y-113108619D01*
X203135774Y-114124619D02*
X203135774Y-113108619D01*
X203317202Y-113108619D01*
X203426060Y-113157000D01*
X203498631Y-113253761D01*
X203534917Y-113350523D01*
X203571202Y-113544047D01*
X203571202Y-113689190D01*
X203534917Y-113882714D01*
X203498631Y-113979476D01*
X203426060Y-114076238D01*
X203317202Y-114124619D01*
X203135774Y-114124619D01*
X192886511Y-108754333D02*
X193249368Y-108754333D01*
X192813940Y-109044619D02*
X193067940Y-108028619D01*
X193321940Y-109044619D01*
X193975082Y-109044619D02*
X193539654Y-109044619D01*
X193757368Y-109044619D02*
X193757368Y-108028619D01*
X193684797Y-108173761D01*
X193612225Y-108270523D01*
X193539654Y-108318904D01*
X194700797Y-109044619D02*
X194265368Y-109044619D01*
X194483082Y-109044619D02*
X194483082Y-108028619D01*
X194410511Y-108173761D01*
X194337940Y-108270523D01*
X194265368Y-108318904D01*
X192886511Y-111294333D02*
X193249368Y-111294333D01*
X192813940Y-111584619D02*
X193067940Y-110568619D01*
X193321940Y-111584619D01*
X193975082Y-111584619D02*
X193539654Y-111584619D01*
X193757368Y-111584619D02*
X193757368Y-110568619D01*
X193684797Y-110713761D01*
X193612225Y-110810523D01*
X193539654Y-110858904D01*
X194265368Y-110665380D02*
X194301654Y-110617000D01*
X194374225Y-110568619D01*
X194555654Y-110568619D01*
X194628225Y-110617000D01*
X194664511Y-110665380D01*
X194700797Y-110762142D01*
X194700797Y-110858904D01*
X194664511Y-111004047D01*
X194229082Y-111584619D01*
X194700797Y-111584619D01*
X201394060Y-100035360D02*
X202458440Y-100035360D01*
X201829488Y-100408619D02*
X202023012Y-100408619D01*
X202119774Y-100457000D01*
X202216536Y-100553761D01*
X202264917Y-100747285D01*
X202264917Y-101085952D01*
X202216536Y-101279476D01*
X202119774Y-101376238D01*
X202023012Y-101424619D01*
X201829488Y-101424619D01*
X201732726Y-101376238D01*
X201635964Y-101279476D01*
X201587583Y-101085952D01*
X201587583Y-100747285D01*
X201635964Y-100553761D01*
X201732726Y-100457000D01*
X201829488Y-100408619D01*
X202458440Y-100035360D02*
X203377679Y-100035360D01*
X202700345Y-100892428D02*
X203039012Y-100892428D01*
X203184155Y-101424619D02*
X202700345Y-101424619D01*
X202700345Y-100408619D01*
X203184155Y-100408619D01*
X201635964Y-98884619D02*
X201635964Y-97868619D01*
X201877869Y-97868619D01*
X202023012Y-97917000D01*
X202119774Y-98013761D01*
X202168155Y-98110523D01*
X202216536Y-98304047D01*
X202216536Y-98449190D01*
X202168155Y-98642714D01*
X202119774Y-98739476D01*
X202023012Y-98836238D01*
X201877869Y-98884619D01*
X201635964Y-98884619D01*
X202555202Y-97868619D02*
X203232536Y-97868619D01*
X202797107Y-98884619D01*
X201635964Y-96344619D02*
X201635964Y-95328619D01*
X201877869Y-95328619D01*
X202023012Y-95377000D01*
X202119774Y-95473761D01*
X202168155Y-95570523D01*
X202216536Y-95764047D01*
X202216536Y-95909190D01*
X202168155Y-96102714D01*
X202119774Y-96199476D01*
X202023012Y-96296238D01*
X201877869Y-96344619D01*
X201635964Y-96344619D01*
X203087393Y-95328619D02*
X202893869Y-95328619D01*
X202797107Y-95377000D01*
X202748726Y-95425380D01*
X202651964Y-95570523D01*
X202603583Y-95764047D01*
X202603583Y-96151095D01*
X202651964Y-96247857D01*
X202700345Y-96296238D01*
X202797107Y-96344619D01*
X202990631Y-96344619D01*
X203087393Y-96296238D01*
X203135774Y-96247857D01*
X203184155Y-96151095D01*
X203184155Y-95909190D01*
X203135774Y-95812428D01*
X203087393Y-95764047D01*
X202990631Y-95715666D01*
X202797107Y-95715666D01*
X202700345Y-95764047D01*
X202651964Y-95812428D01*
X202603583Y-95909190D01*
X201635964Y-93804619D02*
X201635964Y-92788619D01*
X201877869Y-92788619D01*
X202023012Y-92837000D01*
X202119774Y-92933761D01*
X202168155Y-93030523D01*
X202216536Y-93224047D01*
X202216536Y-93369190D01*
X202168155Y-93562714D01*
X202119774Y-93659476D01*
X202023012Y-93756238D01*
X201877869Y-93804619D01*
X201635964Y-93804619D01*
X203135774Y-92788619D02*
X202651964Y-92788619D01*
X202603583Y-93272428D01*
X202651964Y-93224047D01*
X202748726Y-93175666D01*
X202990631Y-93175666D01*
X203087393Y-93224047D01*
X203135774Y-93272428D01*
X203184155Y-93369190D01*
X203184155Y-93611095D01*
X203135774Y-93707857D01*
X203087393Y-93756238D01*
X202990631Y-93804619D01*
X202748726Y-93804619D01*
X202651964Y-93756238D01*
X202603583Y-93707857D01*
X201635964Y-91264619D02*
X201635964Y-90248619D01*
X201877869Y-90248619D01*
X202023012Y-90297000D01*
X202119774Y-90393761D01*
X202168155Y-90490523D01*
X202216536Y-90684047D01*
X202216536Y-90829190D01*
X202168155Y-91022714D01*
X202119774Y-91119476D01*
X202023012Y-91216238D01*
X201877869Y-91264619D01*
X201635964Y-91264619D01*
X203087393Y-90587285D02*
X203087393Y-91264619D01*
X202845488Y-90200238D02*
X202603583Y-90925952D01*
X203232536Y-90925952D01*
X201635964Y-88724619D02*
X201635964Y-87708619D01*
X201877869Y-87708619D01*
X202023012Y-87757000D01*
X202119774Y-87853761D01*
X202168155Y-87950523D01*
X202216536Y-88144047D01*
X202216536Y-88289190D01*
X202168155Y-88482714D01*
X202119774Y-88579476D01*
X202023012Y-88676238D01*
X201877869Y-88724619D01*
X201635964Y-88724619D01*
X202555202Y-87708619D02*
X203184155Y-87708619D01*
X202845488Y-88095666D01*
X202990631Y-88095666D01*
X203087393Y-88144047D01*
X203135774Y-88192428D01*
X203184155Y-88289190D01*
X203184155Y-88531095D01*
X203135774Y-88627857D01*
X203087393Y-88676238D01*
X202990631Y-88724619D01*
X202700345Y-88724619D01*
X202603583Y-88676238D01*
X202555202Y-88627857D01*
X201635964Y-86184619D02*
X201635964Y-85168619D01*
X201877869Y-85168619D01*
X202023012Y-85217000D01*
X202119774Y-85313761D01*
X202168155Y-85410523D01*
X202216536Y-85604047D01*
X202216536Y-85749190D01*
X202168155Y-85942714D01*
X202119774Y-86039476D01*
X202023012Y-86136238D01*
X201877869Y-86184619D01*
X201635964Y-86184619D01*
X202603583Y-85265380D02*
X202651964Y-85217000D01*
X202748726Y-85168619D01*
X202990631Y-85168619D01*
X203087393Y-85217000D01*
X203135774Y-85265380D01*
X203184155Y-85362142D01*
X203184155Y-85458904D01*
X203135774Y-85604047D01*
X202555202Y-86184619D01*
X203184155Y-86184619D01*
X201635964Y-83644619D02*
X201635964Y-82628619D01*
X201877869Y-82628619D01*
X202023012Y-82677000D01*
X202119774Y-82773761D01*
X202168155Y-82870523D01*
X202216536Y-83064047D01*
X202216536Y-83209190D01*
X202168155Y-83402714D01*
X202119774Y-83499476D01*
X202023012Y-83596238D01*
X201877869Y-83644619D01*
X201635964Y-83644619D01*
X203184155Y-83644619D02*
X202603583Y-83644619D01*
X202893869Y-83644619D02*
X202893869Y-82628619D01*
X202797107Y-82773761D01*
X202700345Y-82870523D01*
X202603583Y-82918904D01*
X201635964Y-81104619D02*
X201635964Y-80088619D01*
X201877869Y-80088619D01*
X202023012Y-80137000D01*
X202119774Y-80233761D01*
X202168155Y-80330523D01*
X202216536Y-80524047D01*
X202216536Y-80669190D01*
X202168155Y-80862714D01*
X202119774Y-80959476D01*
X202023012Y-81056238D01*
X201877869Y-81104619D01*
X201635964Y-81104619D01*
X202845488Y-80088619D02*
X202942250Y-80088619D01*
X203039012Y-80137000D01*
X203087393Y-80185380D01*
X203135774Y-80282142D01*
X203184155Y-80475666D01*
X203184155Y-80717571D01*
X203135774Y-80911095D01*
X203087393Y-81007857D01*
X203039012Y-81056238D01*
X202942250Y-81104619D01*
X202845488Y-81104619D01*
X202748726Y-81056238D01*
X202700345Y-81007857D01*
X202651964Y-80911095D01*
X202603583Y-80717571D01*
X202603583Y-80475666D01*
X202651964Y-80282142D01*
X202700345Y-80185380D01*
X202748726Y-80137000D01*
X202845488Y-80088619D01*
X192705082Y-113737571D02*
X193285654Y-113737571D01*
X192995368Y-114124619D02*
X192995368Y-113350523D01*
X194011368Y-113108619D02*
X193648511Y-113108619D01*
X193612225Y-113592428D01*
X193648511Y-113544047D01*
X193721082Y-113495666D01*
X193902511Y-113495666D01*
X193975082Y-113544047D01*
X194011368Y-113592428D01*
X194047654Y-113689190D01*
X194047654Y-113931095D01*
X194011368Y-114027857D01*
X193975082Y-114076238D01*
X193902511Y-114124619D01*
X193721082Y-114124619D01*
X193648511Y-114076238D01*
X193612225Y-114027857D01*
X194265368Y-113108619D02*
X194519368Y-114124619D01*
X194773368Y-113108619D01*
X192886511Y-106214333D02*
X193249368Y-106214333D01*
X192813940Y-106504619D02*
X193067940Y-105488619D01*
X193321940Y-106504619D01*
X193975082Y-106504619D02*
X193539654Y-106504619D01*
X193757368Y-106504619D02*
X193757368Y-105488619D01*
X193684797Y-105633761D01*
X193612225Y-105730523D01*
X193539654Y-105778904D01*
X194446797Y-105488619D02*
X194519368Y-105488619D01*
X194591940Y-105537000D01*
X194628225Y-105585380D01*
X194664511Y-105682142D01*
X194700797Y-105875666D01*
X194700797Y-106117571D01*
X194664511Y-106311095D01*
X194628225Y-106407857D01*
X194591940Y-106456238D01*
X194519368Y-106504619D01*
X194446797Y-106504619D01*
X194374225Y-106456238D01*
X194337940Y-106407857D01*
X194301654Y-106311095D01*
X194265368Y-106117571D01*
X194265368Y-105875666D01*
X194301654Y-105682142D01*
X194337940Y-105585380D01*
X194374225Y-105537000D01*
X194446797Y-105488619D01*
X193200987Y-103674333D02*
X193684797Y-103674333D01*
X193104225Y-103964619D02*
X193442892Y-102948619D01*
X193781559Y-103964619D01*
X194168606Y-103964619D02*
X194362130Y-103964619D01*
X194458892Y-103916238D01*
X194507273Y-103867857D01*
X194604035Y-103722714D01*
X194652416Y-103529190D01*
X194652416Y-103142142D01*
X194604035Y-103045380D01*
X194555654Y-102997000D01*
X194458892Y-102948619D01*
X194265368Y-102948619D01*
X194168606Y-102997000D01*
X194120225Y-103045380D01*
X194071844Y-103142142D01*
X194071844Y-103384047D01*
X194120225Y-103480809D01*
X194168606Y-103529190D01*
X194265368Y-103577571D01*
X194458892Y-103577571D01*
X194555654Y-103529190D01*
X194604035Y-103480809D01*
X194652416Y-103384047D01*
X193200987Y-101134333D02*
X193684797Y-101134333D01*
X193104225Y-101424619D02*
X193442892Y-100408619D01*
X193781559Y-101424619D01*
X194265368Y-100844047D02*
X194168606Y-100795666D01*
X194120225Y-100747285D01*
X194071844Y-100650523D01*
X194071844Y-100602142D01*
X194120225Y-100505380D01*
X194168606Y-100457000D01*
X194265368Y-100408619D01*
X194458892Y-100408619D01*
X194555654Y-100457000D01*
X194604035Y-100505380D01*
X194652416Y-100602142D01*
X194652416Y-100650523D01*
X194604035Y-100747285D01*
X194555654Y-100795666D01*
X194458892Y-100844047D01*
X194265368Y-100844047D01*
X194168606Y-100892428D01*
X194120225Y-100940809D01*
X194071844Y-101037571D01*
X194071844Y-101231095D01*
X194120225Y-101327857D01*
X194168606Y-101376238D01*
X194265368Y-101424619D01*
X194458892Y-101424619D01*
X194555654Y-101376238D01*
X194604035Y-101327857D01*
X194652416Y-101231095D01*
X194652416Y-101037571D01*
X194604035Y-100940809D01*
X194555654Y-100892428D01*
X194458892Y-100844047D01*
X193200987Y-98594333D02*
X193684797Y-98594333D01*
X193104225Y-98884619D02*
X193442892Y-97868619D01*
X193781559Y-98884619D01*
X194023463Y-97868619D02*
X194700797Y-97868619D01*
X194265368Y-98884619D01*
X193200987Y-96054333D02*
X193684797Y-96054333D01*
X193104225Y-96344619D02*
X193442892Y-95328619D01*
X193781559Y-96344619D01*
X194555654Y-95328619D02*
X194362130Y-95328619D01*
X194265368Y-95377000D01*
X194216987Y-95425380D01*
X194120225Y-95570523D01*
X194071844Y-95764047D01*
X194071844Y-96151095D01*
X194120225Y-96247857D01*
X194168606Y-96296238D01*
X194265368Y-96344619D01*
X194458892Y-96344619D01*
X194555654Y-96296238D01*
X194604035Y-96247857D01*
X194652416Y-96151095D01*
X194652416Y-95909190D01*
X194604035Y-95812428D01*
X194555654Y-95764047D01*
X194458892Y-95715666D01*
X194265368Y-95715666D01*
X194168606Y-95764047D01*
X194120225Y-95812428D01*
X194071844Y-95909190D01*
X193200987Y-93514333D02*
X193684797Y-93514333D01*
X193104225Y-93804619D02*
X193442892Y-92788619D01*
X193781559Y-93804619D01*
X194604035Y-92788619D02*
X194120225Y-92788619D01*
X194071844Y-93272428D01*
X194120225Y-93224047D01*
X194216987Y-93175666D01*
X194458892Y-93175666D01*
X194555654Y-93224047D01*
X194604035Y-93272428D01*
X194652416Y-93369190D01*
X194652416Y-93611095D01*
X194604035Y-93707857D01*
X194555654Y-93756238D01*
X194458892Y-93804619D01*
X194216987Y-93804619D01*
X194120225Y-93756238D01*
X194071844Y-93707857D01*
X193200987Y-90974333D02*
X193684797Y-90974333D01*
X193104225Y-91264619D02*
X193442892Y-90248619D01*
X193781559Y-91264619D01*
X194555654Y-90587285D02*
X194555654Y-91264619D01*
X194313749Y-90200238D02*
X194071844Y-90925952D01*
X194700797Y-90925952D01*
X193200987Y-88434333D02*
X193684797Y-88434333D01*
X193104225Y-88724619D02*
X193442892Y-87708619D01*
X193781559Y-88724619D01*
X194023463Y-87708619D02*
X194652416Y-87708619D01*
X194313749Y-88095666D01*
X194458892Y-88095666D01*
X194555654Y-88144047D01*
X194604035Y-88192428D01*
X194652416Y-88289190D01*
X194652416Y-88531095D01*
X194604035Y-88627857D01*
X194555654Y-88676238D01*
X194458892Y-88724619D01*
X194168606Y-88724619D01*
X194071844Y-88676238D01*
X194023463Y-88627857D01*
X193200987Y-85894333D02*
X193684797Y-85894333D01*
X193104225Y-86184619D02*
X193442892Y-85168619D01*
X193781559Y-86184619D01*
X194071844Y-85265380D02*
X194120225Y-85217000D01*
X194216987Y-85168619D01*
X194458892Y-85168619D01*
X194555654Y-85217000D01*
X194604035Y-85265380D01*
X194652416Y-85362142D01*
X194652416Y-85458904D01*
X194604035Y-85604047D01*
X194023463Y-86184619D01*
X194652416Y-86184619D01*
X193200987Y-83354333D02*
X193684797Y-83354333D01*
X193104225Y-83644619D02*
X193442892Y-82628619D01*
X193781559Y-83644619D01*
X194652416Y-83644619D02*
X194071844Y-83644619D01*
X194362130Y-83644619D02*
X194362130Y-82628619D01*
X194265368Y-82773761D01*
X194168606Y-82870523D01*
X194071844Y-82918904D01*
X193200987Y-80814333D02*
X193684797Y-80814333D01*
X193104225Y-81104619D02*
X193442892Y-80088619D01*
X193781559Y-81104619D01*
X194313749Y-80088619D02*
X194410511Y-80088619D01*
X194507273Y-80137000D01*
X194555654Y-80185380D01*
X194604035Y-80282142D01*
X194652416Y-80475666D01*
X194652416Y-80717571D01*
X194604035Y-80911095D01*
X194555654Y-81007857D01*
X194507273Y-81056238D01*
X194410511Y-81104619D01*
X194313749Y-81104619D01*
X194216987Y-81056238D01*
X194168606Y-81007857D01*
X194120225Y-80911095D01*
X194071844Y-80717571D01*
X194071844Y-80475666D01*
X194120225Y-80282142D01*
X194168606Y-80185380D01*
X194216987Y-80137000D01*
X194313749Y-80088619D01*
D13*
X152340000Y-82820000D02*
G75*
G02*
X152340000Y-84820000I0J-1000000D01*
G01*
X152340000Y-84820000D02*
X152340000Y-90280000D01*
X152340000Y-90280000D02*
X188020000Y-90280000D01*
X188020000Y-90280000D02*
X188020000Y-77360000D01*
X188020000Y-77360000D02*
X152340000Y-77360000D01*
X152340000Y-77360000D02*
X152340000Y-82820000D01*
X152280000Y-92770000D02*
X188080000Y-92770000D01*
X188080000Y-92770000D02*
X188080000Y-74870000D01*
X188080000Y-74870000D02*
X152280000Y-74870000D01*
X152280000Y-74870000D02*
X152280000Y-92770000D01*
X143570000Y-95310000D02*
X143570000Y-90110000D01*
X138430000Y-95310000D02*
X143570000Y-95310000D01*
X135830000Y-90110000D02*
X143570000Y-90110000D01*
X138430000Y-95310000D02*
X138430000Y-92710000D01*
X138430000Y-92710000D02*
X135830000Y-92710000D01*
X135830000Y-92710000D02*
X135830000Y-90110000D01*
X137160000Y-95310000D02*
X135830000Y-95310000D01*
X135830000Y-95310000D02*
X135830000Y-93980000D01*
X195520000Y-114995000D02*
X200720000Y-114995000D01*
X195520000Y-81915000D02*
X195520000Y-114995000D01*
X200720000Y-79315000D02*
X200720000Y-114995000D01*
X195520000Y-81915000D02*
X198120000Y-81915000D01*
X198120000Y-81915000D02*
X198120000Y-79315000D01*
X198120000Y-79315000D02*
X200720000Y-79315000D01*
X195520000Y-80645000D02*
X195520000Y-79315000D01*
X195520000Y-79315000D02*
X196850000Y-79315000D01*
D11*
X160020000Y-124460000D02*
X162560000Y-128270000D01*
X162560000Y-128270000D02*
X180340000Y-128270000D01*
X180340000Y-128270000D02*
X180340000Y-107950000D01*
X180340000Y-107950000D02*
X160020000Y-107950000D01*
X153670000Y-101600000D02*
X153670000Y-134620000D01*
X153670000Y-134620000D02*
X186690000Y-134620000D01*
X186690000Y-134620000D02*
X186690000Y-101600000D01*
X186690000Y-101600000D02*
X153670000Y-101600000D01*
X160020000Y-107950000D02*
X160020000Y-124460000D01*
D13*
X200720000Y-117415000D02*
X195520000Y-117415000D01*
X200720000Y-127635000D02*
X200720000Y-117415000D01*
X195520000Y-130235000D02*
X195520000Y-117415000D01*
X200720000Y-127635000D02*
X198120000Y-127635000D01*
X198120000Y-127635000D02*
X198120000Y-130235000D01*
X198120000Y-130235000D02*
X195520000Y-130235000D01*
X200720000Y-128905000D02*
X200720000Y-130235000D01*
X200720000Y-130235000D02*
X199390000Y-130235000D01*
X189130000Y-119480000D02*
X189130000Y-114240000D01*
X191870000Y-119480000D02*
X191870000Y-114240000D01*
X189130000Y-119480000D02*
X191870000Y-119480000D01*
X189130000Y-114240000D02*
X191870000Y-114240000D01*
X189130000Y-128370000D02*
X189130000Y-123130000D01*
X191870000Y-128370000D02*
X191870000Y-123130000D01*
X189130000Y-128370000D02*
X191870000Y-128370000D01*
X189130000Y-123130000D02*
X191870000Y-123130000D01*
X151230000Y-105310000D02*
X151230000Y-110550000D01*
X148490000Y-105310000D02*
X148490000Y-110550000D01*
X151230000Y-105310000D02*
X148490000Y-105310000D01*
X151230000Y-110550000D02*
X148490000Y-110550000D01*
X151230000Y-119280000D02*
X151230000Y-124520000D01*
X148490000Y-119280000D02*
X148490000Y-124520000D01*
X151230000Y-119280000D02*
X148490000Y-119280000D01*
X151230000Y-124520000D02*
X148490000Y-124520000D01*
X191870000Y-104040000D02*
X191870000Y-109280000D01*
X189130000Y-104040000D02*
X189130000Y-109280000D01*
X191870000Y-104040000D02*
X189130000Y-104040000D01*
X191870000Y-109280000D02*
X189130000Y-109280000D01*
X169010000Y-99160000D02*
X163770000Y-99160000D01*
X169010000Y-96420000D02*
X163770000Y-96420000D01*
X169010000Y-99160000D02*
X169010000Y-96420000D01*
X163770000Y-99160000D02*
X163770000Y-96420000D01*
X157380000Y-137060000D02*
X162620000Y-137060000D01*
X157380000Y-139800000D02*
X162620000Y-139800000D01*
X157380000Y-137060000D02*
X157380000Y-139800000D01*
X162620000Y-137060000D02*
X162620000Y-139800000D01*
X173890000Y-137060000D02*
X179130000Y-137060000D01*
X173890000Y-139800000D02*
X179130000Y-139800000D01*
X173890000Y-137060000D02*
X173890000Y-139800000D01*
X179130000Y-137060000D02*
X179130000Y-139800000D01*
X106780000Y-126900000D02*
X106780000Y-132140000D01*
X104040000Y-126900000D02*
X104040000Y-132140000D01*
X106780000Y-126900000D02*
X104040000Y-126900000D01*
X106780000Y-132140000D02*
X104040000Y-132140000D01*
X144880000Y-116940000D02*
X139640000Y-116940000D01*
X144880000Y-114200000D02*
X139640000Y-114200000D01*
X144880000Y-116940000D02*
X144880000Y-114200000D01*
X139640000Y-116940000D02*
X139640000Y-114200000D01*
X148490000Y-102970000D02*
X148490000Y-97730000D01*
X151230000Y-102970000D02*
X151230000Y-97730000D01*
X148490000Y-102970000D02*
X151230000Y-102970000D01*
X148490000Y-97730000D02*
X151230000Y-97730000D01*
X149960000Y-74830000D02*
X149960000Y-80070000D01*
X147220000Y-74830000D02*
X147220000Y-80070000D01*
X149960000Y-74830000D02*
X147220000Y-74830000D01*
X149960000Y-80070000D02*
X147220000Y-80070000D01*
X116920000Y-74950000D02*
G75*
G03*
X116920000Y-74950000I-2620000J0D01*
G01*
X111720000Y-74950000D02*
X116880000Y-74950000D01*
X111720000Y-74910000D02*
X116880000Y-74910000D01*
X111721000Y-74870000D02*
X116879000Y-74870000D01*
X111722000Y-74830000D02*
X116878000Y-74830000D01*
X111724000Y-74790000D02*
X116876000Y-74790000D01*
X111727000Y-74750000D02*
X116873000Y-74750000D01*
X111731000Y-74710000D02*
X113260000Y-74710000D01*
X115340000Y-74710000D02*
X116869000Y-74710000D01*
X111735000Y-74670000D02*
X113260000Y-74670000D01*
X115340000Y-74670000D02*
X116865000Y-74670000D01*
X111739000Y-74630000D02*
X113260000Y-74630000D01*
X115340000Y-74630000D02*
X116861000Y-74630000D01*
X111744000Y-74590000D02*
X113260000Y-74590000D01*
X115340000Y-74590000D02*
X116856000Y-74590000D01*
X111750000Y-74550000D02*
X113260000Y-74550000D01*
X115340000Y-74550000D02*
X116850000Y-74550000D01*
X111757000Y-74510000D02*
X113260000Y-74510000D01*
X115340000Y-74510000D02*
X116843000Y-74510000D01*
X111764000Y-74470000D02*
X113260000Y-74470000D01*
X115340000Y-74470000D02*
X116836000Y-74470000D01*
X111772000Y-74430000D02*
X113260000Y-74430000D01*
X115340000Y-74430000D02*
X116828000Y-74430000D01*
X111780000Y-74390000D02*
X113260000Y-74390000D01*
X115340000Y-74390000D02*
X116820000Y-74390000D01*
X111789000Y-74350000D02*
X113260000Y-74350000D01*
X115340000Y-74350000D02*
X116811000Y-74350000D01*
X111799000Y-74310000D02*
X113260000Y-74310000D01*
X115340000Y-74310000D02*
X116801000Y-74310000D01*
X111809000Y-74270000D02*
X113260000Y-74270000D01*
X115340000Y-74270000D02*
X116791000Y-74270000D01*
X111820000Y-74229000D02*
X113260000Y-74229000D01*
X115340000Y-74229000D02*
X116780000Y-74229000D01*
X111832000Y-74189000D02*
X113260000Y-74189000D01*
X115340000Y-74189000D02*
X116768000Y-74189000D01*
X111845000Y-74149000D02*
X113260000Y-74149000D01*
X115340000Y-74149000D02*
X116755000Y-74149000D01*
X111858000Y-74109000D02*
X113260000Y-74109000D01*
X115340000Y-74109000D02*
X116742000Y-74109000D01*
X111872000Y-74069000D02*
X113260000Y-74069000D01*
X115340000Y-74069000D02*
X116728000Y-74069000D01*
X111886000Y-74029000D02*
X113260000Y-74029000D01*
X115340000Y-74029000D02*
X116714000Y-74029000D01*
X111902000Y-73989000D02*
X113260000Y-73989000D01*
X115340000Y-73989000D02*
X116698000Y-73989000D01*
X111918000Y-73949000D02*
X113260000Y-73949000D01*
X115340000Y-73949000D02*
X116682000Y-73949000D01*
X111935000Y-73909000D02*
X113260000Y-73909000D01*
X115340000Y-73909000D02*
X116665000Y-73909000D01*
X111952000Y-73869000D02*
X113260000Y-73869000D01*
X115340000Y-73869000D02*
X116648000Y-73869000D01*
X111971000Y-73829000D02*
X113260000Y-73829000D01*
X115340000Y-73829000D02*
X116629000Y-73829000D01*
X111990000Y-73789000D02*
X113260000Y-73789000D01*
X115340000Y-73789000D02*
X116610000Y-73789000D01*
X112010000Y-73749000D02*
X113260000Y-73749000D01*
X115340000Y-73749000D02*
X116590000Y-73749000D01*
X112032000Y-73709000D02*
X113260000Y-73709000D01*
X115340000Y-73709000D02*
X116568000Y-73709000D01*
X112053000Y-73669000D02*
X113260000Y-73669000D01*
X115340000Y-73669000D02*
X116547000Y-73669000D01*
X112076000Y-73629000D02*
X113260000Y-73629000D01*
X115340000Y-73629000D02*
X116524000Y-73629000D01*
X112100000Y-73589000D02*
X113260000Y-73589000D01*
X115340000Y-73589000D02*
X116500000Y-73589000D01*
X112125000Y-73549000D02*
X113260000Y-73549000D01*
X115340000Y-73549000D02*
X116475000Y-73549000D01*
X112151000Y-73509000D02*
X113260000Y-73509000D01*
X115340000Y-73509000D02*
X116449000Y-73509000D01*
X112178000Y-73469000D02*
X113260000Y-73469000D01*
X115340000Y-73469000D02*
X116422000Y-73469000D01*
X112205000Y-73429000D02*
X113260000Y-73429000D01*
X115340000Y-73429000D02*
X116395000Y-73429000D01*
X112235000Y-73389000D02*
X113260000Y-73389000D01*
X115340000Y-73389000D02*
X116365000Y-73389000D01*
X112265000Y-73349000D02*
X113260000Y-73349000D01*
X115340000Y-73349000D02*
X116335000Y-73349000D01*
X112296000Y-73309000D02*
X113260000Y-73309000D01*
X115340000Y-73309000D02*
X116304000Y-73309000D01*
X112329000Y-73269000D02*
X113260000Y-73269000D01*
X115340000Y-73269000D02*
X116271000Y-73269000D01*
X112363000Y-73229000D02*
X113260000Y-73229000D01*
X115340000Y-73229000D02*
X116237000Y-73229000D01*
X112399000Y-73189000D02*
X113260000Y-73189000D01*
X115340000Y-73189000D02*
X116201000Y-73189000D01*
X112436000Y-73149000D02*
X113260000Y-73149000D01*
X115340000Y-73149000D02*
X116164000Y-73149000D01*
X112474000Y-73109000D02*
X113260000Y-73109000D01*
X115340000Y-73109000D02*
X116126000Y-73109000D01*
X112515000Y-73069000D02*
X113260000Y-73069000D01*
X115340000Y-73069000D02*
X116085000Y-73069000D01*
X112557000Y-73029000D02*
X113260000Y-73029000D01*
X115340000Y-73029000D02*
X116043000Y-73029000D01*
X112601000Y-72989000D02*
X113260000Y-72989000D01*
X115340000Y-72989000D02*
X115999000Y-72989000D01*
X112647000Y-72949000D02*
X113260000Y-72949000D01*
X115340000Y-72949000D02*
X115953000Y-72949000D01*
X112695000Y-72909000D02*
X113260000Y-72909000D01*
X115340000Y-72909000D02*
X115905000Y-72909000D01*
X112746000Y-72869000D02*
X113260000Y-72869000D01*
X115340000Y-72869000D02*
X115854000Y-72869000D01*
X112800000Y-72829000D02*
X113260000Y-72829000D01*
X115340000Y-72829000D02*
X115800000Y-72829000D01*
X112857000Y-72789000D02*
X113260000Y-72789000D01*
X115340000Y-72789000D02*
X115743000Y-72789000D01*
X112917000Y-72749000D02*
X113260000Y-72749000D01*
X115340000Y-72749000D02*
X115683000Y-72749000D01*
X112981000Y-72709000D02*
X113260000Y-72709000D01*
X115340000Y-72709000D02*
X115619000Y-72709000D01*
X113049000Y-72669000D02*
X113260000Y-72669000D01*
X115340000Y-72669000D02*
X115551000Y-72669000D01*
X113122000Y-72629000D02*
X115478000Y-72629000D01*
X113202000Y-72589000D02*
X115398000Y-72589000D01*
X113289000Y-72549000D02*
X115311000Y-72549000D01*
X113385000Y-72509000D02*
X115215000Y-72509000D01*
X113495000Y-72469000D02*
X115105000Y-72469000D01*
X113623000Y-72429000D02*
X114977000Y-72429000D01*
X113782000Y-72389000D02*
X114818000Y-72389000D01*
X114016000Y-72349000D02*
X114584000Y-72349000D01*
X112825000Y-77754775D02*
X112825000Y-77254775D01*
X112575000Y-77504775D02*
X113075000Y-77504775D01*
X106760000Y-74950000D02*
G75*
G03*
X106760000Y-74950000I-2620000J0D01*
G01*
X101560000Y-74950000D02*
X106720000Y-74950000D01*
X101560000Y-74910000D02*
X106720000Y-74910000D01*
X101561000Y-74870000D02*
X106719000Y-74870000D01*
X101562000Y-74830000D02*
X106718000Y-74830000D01*
X101564000Y-74790000D02*
X106716000Y-74790000D01*
X101567000Y-74750000D02*
X106713000Y-74750000D01*
X101571000Y-74710000D02*
X103100000Y-74710000D01*
X105180000Y-74710000D02*
X106709000Y-74710000D01*
X101575000Y-74670000D02*
X103100000Y-74670000D01*
X105180000Y-74670000D02*
X106705000Y-74670000D01*
X101579000Y-74630000D02*
X103100000Y-74630000D01*
X105180000Y-74630000D02*
X106701000Y-74630000D01*
X101584000Y-74590000D02*
X103100000Y-74590000D01*
X105180000Y-74590000D02*
X106696000Y-74590000D01*
X101590000Y-74550000D02*
X103100000Y-74550000D01*
X105180000Y-74550000D02*
X106690000Y-74550000D01*
X101597000Y-74510000D02*
X103100000Y-74510000D01*
X105180000Y-74510000D02*
X106683000Y-74510000D01*
X101604000Y-74470000D02*
X103100000Y-74470000D01*
X105180000Y-74470000D02*
X106676000Y-74470000D01*
X101612000Y-74430000D02*
X103100000Y-74430000D01*
X105180000Y-74430000D02*
X106668000Y-74430000D01*
X101620000Y-74390000D02*
X103100000Y-74390000D01*
X105180000Y-74390000D02*
X106660000Y-74390000D01*
X101629000Y-74350000D02*
X103100000Y-74350000D01*
X105180000Y-74350000D02*
X106651000Y-74350000D01*
X101639000Y-74310000D02*
X103100000Y-74310000D01*
X105180000Y-74310000D02*
X106641000Y-74310000D01*
X101649000Y-74270000D02*
X103100000Y-74270000D01*
X105180000Y-74270000D02*
X106631000Y-74270000D01*
X101660000Y-74229000D02*
X103100000Y-74229000D01*
X105180000Y-74229000D02*
X106620000Y-74229000D01*
X101672000Y-74189000D02*
X103100000Y-74189000D01*
X105180000Y-74189000D02*
X106608000Y-74189000D01*
X101685000Y-74149000D02*
X103100000Y-74149000D01*
X105180000Y-74149000D02*
X106595000Y-74149000D01*
X101698000Y-74109000D02*
X103100000Y-74109000D01*
X105180000Y-74109000D02*
X106582000Y-74109000D01*
X101712000Y-74069000D02*
X103100000Y-74069000D01*
X105180000Y-74069000D02*
X106568000Y-74069000D01*
X101726000Y-74029000D02*
X103100000Y-74029000D01*
X105180000Y-74029000D02*
X106554000Y-74029000D01*
X101742000Y-73989000D02*
X103100000Y-73989000D01*
X105180000Y-73989000D02*
X106538000Y-73989000D01*
X101758000Y-73949000D02*
X103100000Y-73949000D01*
X105180000Y-73949000D02*
X106522000Y-73949000D01*
X101775000Y-73909000D02*
X103100000Y-73909000D01*
X105180000Y-73909000D02*
X106505000Y-73909000D01*
X101792000Y-73869000D02*
X103100000Y-73869000D01*
X105180000Y-73869000D02*
X106488000Y-73869000D01*
X101811000Y-73829000D02*
X103100000Y-73829000D01*
X105180000Y-73829000D02*
X106469000Y-73829000D01*
X101830000Y-73789000D02*
X103100000Y-73789000D01*
X105180000Y-73789000D02*
X106450000Y-73789000D01*
X101850000Y-73749000D02*
X103100000Y-73749000D01*
X105180000Y-73749000D02*
X106430000Y-73749000D01*
X101872000Y-73709000D02*
X103100000Y-73709000D01*
X105180000Y-73709000D02*
X106408000Y-73709000D01*
X101893000Y-73669000D02*
X103100000Y-73669000D01*
X105180000Y-73669000D02*
X106387000Y-73669000D01*
X101916000Y-73629000D02*
X103100000Y-73629000D01*
X105180000Y-73629000D02*
X106364000Y-73629000D01*
X101940000Y-73589000D02*
X103100000Y-73589000D01*
X105180000Y-73589000D02*
X106340000Y-73589000D01*
X101965000Y-73549000D02*
X103100000Y-73549000D01*
X105180000Y-73549000D02*
X106315000Y-73549000D01*
X101991000Y-73509000D02*
X103100000Y-73509000D01*
X105180000Y-73509000D02*
X106289000Y-73509000D01*
X102018000Y-73469000D02*
X103100000Y-73469000D01*
X105180000Y-73469000D02*
X106262000Y-73469000D01*
X102045000Y-73429000D02*
X103100000Y-73429000D01*
X105180000Y-73429000D02*
X106235000Y-73429000D01*
X102075000Y-73389000D02*
X103100000Y-73389000D01*
X105180000Y-73389000D02*
X106205000Y-73389000D01*
X102105000Y-73349000D02*
X103100000Y-73349000D01*
X105180000Y-73349000D02*
X106175000Y-73349000D01*
X102136000Y-73309000D02*
X103100000Y-73309000D01*
X105180000Y-73309000D02*
X106144000Y-73309000D01*
X102169000Y-73269000D02*
X103100000Y-73269000D01*
X105180000Y-73269000D02*
X106111000Y-73269000D01*
X102203000Y-73229000D02*
X103100000Y-73229000D01*
X105180000Y-73229000D02*
X106077000Y-73229000D01*
X102239000Y-73189000D02*
X103100000Y-73189000D01*
X105180000Y-73189000D02*
X106041000Y-73189000D01*
X102276000Y-73149000D02*
X103100000Y-73149000D01*
X105180000Y-73149000D02*
X106004000Y-73149000D01*
X102314000Y-73109000D02*
X103100000Y-73109000D01*
X105180000Y-73109000D02*
X105966000Y-73109000D01*
X102355000Y-73069000D02*
X103100000Y-73069000D01*
X105180000Y-73069000D02*
X105925000Y-73069000D01*
X102397000Y-73029000D02*
X103100000Y-73029000D01*
X105180000Y-73029000D02*
X105883000Y-73029000D01*
X102441000Y-72989000D02*
X103100000Y-72989000D01*
X105180000Y-72989000D02*
X105839000Y-72989000D01*
X102487000Y-72949000D02*
X103100000Y-72949000D01*
X105180000Y-72949000D02*
X105793000Y-72949000D01*
X102535000Y-72909000D02*
X103100000Y-72909000D01*
X105180000Y-72909000D02*
X105745000Y-72909000D01*
X102586000Y-72869000D02*
X103100000Y-72869000D01*
X105180000Y-72869000D02*
X105694000Y-72869000D01*
X102640000Y-72829000D02*
X103100000Y-72829000D01*
X105180000Y-72829000D02*
X105640000Y-72829000D01*
X102697000Y-72789000D02*
X103100000Y-72789000D01*
X105180000Y-72789000D02*
X105583000Y-72789000D01*
X102757000Y-72749000D02*
X103100000Y-72749000D01*
X105180000Y-72749000D02*
X105523000Y-72749000D01*
X102821000Y-72709000D02*
X103100000Y-72709000D01*
X105180000Y-72709000D02*
X105459000Y-72709000D01*
X102889000Y-72669000D02*
X103100000Y-72669000D01*
X105180000Y-72669000D02*
X105391000Y-72669000D01*
X102962000Y-72629000D02*
X105318000Y-72629000D01*
X103042000Y-72589000D02*
X105238000Y-72589000D01*
X103129000Y-72549000D02*
X105151000Y-72549000D01*
X103225000Y-72509000D02*
X105055000Y-72509000D01*
X103335000Y-72469000D02*
X104945000Y-72469000D01*
X103463000Y-72429000D02*
X104817000Y-72429000D01*
X103622000Y-72389000D02*
X104658000Y-72389000D01*
X103856000Y-72349000D02*
X104424000Y-72349000D01*
X102665000Y-77754775D02*
X102665000Y-77254775D01*
X102415000Y-77504775D02*
X102915000Y-77504775D01*
X138700000Y-100905000D02*
X137050000Y-100905000D01*
X137050000Y-100905000D02*
X137050000Y-111185000D01*
X137050000Y-111185000D02*
X142350000Y-111185000D01*
X142350000Y-111185000D02*
X142350000Y-100905000D01*
X142350000Y-100905000D02*
X140700000Y-100905000D01*
X134560000Y-100845000D02*
X134560000Y-111245000D01*
X134560000Y-111245000D02*
X144840000Y-111245000D01*
X144840000Y-111245000D02*
X144840000Y-100845000D01*
X144840000Y-100845000D02*
X134560000Y-100845000D01*
X140700000Y-100905000D02*
G75*
G02*
X138700000Y-100905000I-1000000J0D01*
G01*
X113700000Y-115280000D02*
X113700000Y-115610000D01*
X113700000Y-115610000D02*
X107280000Y-115610000D01*
X107280000Y-115610000D02*
X107280000Y-115280000D01*
X113700000Y-113320000D02*
X113700000Y-112990000D01*
X113700000Y-112990000D02*
X107280000Y-112990000D01*
X107280000Y-112990000D02*
X107280000Y-113320000D01*
X126400000Y-120360000D02*
X126400000Y-120690000D01*
X126400000Y-120690000D02*
X119980000Y-120690000D01*
X119980000Y-120690000D02*
X119980000Y-120360000D01*
X126400000Y-118400000D02*
X126400000Y-118070000D01*
X126400000Y-118070000D02*
X119980000Y-118070000D01*
X119980000Y-118070000D02*
X119980000Y-118400000D01*
X113700000Y-105120000D02*
X113700000Y-105450000D01*
X113700000Y-105450000D02*
X107280000Y-105450000D01*
X107280000Y-105450000D02*
X107280000Y-105120000D01*
X113700000Y-103160000D02*
X113700000Y-102830000D01*
X113700000Y-102830000D02*
X107280000Y-102830000D01*
X107280000Y-102830000D02*
X107280000Y-103160000D01*
X119980000Y-107910000D02*
X119980000Y-108240000D01*
X126400000Y-107910000D02*
X119980000Y-107910000D01*
X126400000Y-108240000D02*
X126400000Y-107910000D01*
X119980000Y-110530000D02*
X119980000Y-110200000D01*
X126400000Y-110530000D02*
X119980000Y-110530000D01*
X126400000Y-110200000D02*
X126400000Y-110530000D01*
X107280000Y-92670000D02*
X107280000Y-93000000D01*
X113700000Y-92670000D02*
X107280000Y-92670000D01*
X113700000Y-93000000D02*
X113700000Y-92670000D01*
X107280000Y-95290000D02*
X107280000Y-94960000D01*
X113700000Y-95290000D02*
X107280000Y-95290000D01*
X113700000Y-94960000D02*
X113700000Y-95290000D01*
X126400000Y-100040000D02*
X126400000Y-100370000D01*
X126400000Y-100370000D02*
X119980000Y-100370000D01*
X119980000Y-100370000D02*
X119980000Y-100040000D01*
X126400000Y-98080000D02*
X126400000Y-97750000D01*
X126400000Y-97750000D02*
X119980000Y-97750000D01*
X119980000Y-97750000D02*
X119980000Y-98080000D01*
X113700000Y-120690000D02*
X113700000Y-120360000D01*
X107280000Y-120690000D02*
X113700000Y-120690000D01*
X107280000Y-120360000D02*
X107280000Y-120690000D01*
X113700000Y-118070000D02*
X113700000Y-118400000D01*
X107280000Y-118070000D02*
X113700000Y-118070000D01*
X107280000Y-118400000D02*
X107280000Y-118070000D01*
X107280000Y-108240000D02*
X107280000Y-107910000D01*
X107280000Y-107910000D02*
X113700000Y-107910000D01*
X113700000Y-107910000D02*
X113700000Y-108240000D01*
X107280000Y-110200000D02*
X107280000Y-110530000D01*
X107280000Y-110530000D02*
X113700000Y-110530000D01*
X113700000Y-110530000D02*
X113700000Y-110200000D01*
X113700000Y-100370000D02*
X113700000Y-100040000D01*
X107280000Y-100370000D02*
X113700000Y-100370000D01*
X107280000Y-100040000D02*
X107280000Y-100370000D01*
X113700000Y-97750000D02*
X113700000Y-98080000D01*
X107280000Y-97750000D02*
X113700000Y-97750000D01*
X107280000Y-98080000D02*
X107280000Y-97750000D01*
X126400000Y-115610000D02*
X126400000Y-115280000D01*
X119980000Y-115610000D02*
X126400000Y-115610000D01*
X119980000Y-115280000D02*
X119980000Y-115610000D01*
X126400000Y-112990000D02*
X126400000Y-113320000D01*
X119980000Y-112990000D02*
X126400000Y-112990000D01*
X119980000Y-113320000D02*
X119980000Y-112990000D01*
X126400000Y-105450000D02*
X126400000Y-105120000D01*
X119980000Y-105450000D02*
X126400000Y-105450000D01*
X119980000Y-105120000D02*
X119980000Y-105450000D01*
X126400000Y-102830000D02*
X126400000Y-103160000D01*
X119980000Y-102830000D02*
X126400000Y-102830000D01*
X119980000Y-103160000D02*
X119980000Y-102830000D01*
X119980000Y-93000000D02*
X119980000Y-92670000D01*
X119980000Y-92670000D02*
X126400000Y-92670000D01*
X126400000Y-92670000D02*
X126400000Y-93000000D01*
X119980000Y-94960000D02*
X119980000Y-95290000D01*
X119980000Y-95290000D02*
X126400000Y-95290000D01*
X126400000Y-95290000D02*
X126400000Y-94960000D01*
X138700000Y-119320000D02*
X137050000Y-119320000D01*
X137050000Y-119320000D02*
X137050000Y-137220000D01*
X137050000Y-137220000D02*
X142350000Y-137220000D01*
X142350000Y-137220000D02*
X142350000Y-119320000D01*
X142350000Y-119320000D02*
X140700000Y-119320000D01*
X134560000Y-119260000D02*
X134560000Y-137280000D01*
X134560000Y-137280000D02*
X144840000Y-137280000D01*
X144840000Y-137280000D02*
X144840000Y-119260000D01*
X144840000Y-119260000D02*
X134560000Y-119260000D01*
X140700000Y-119320000D02*
G75*
G02*
X138700000Y-119320000I-1000000J0D01*
G01*
X126880000Y-73620000D02*
X126880000Y-83860000D01*
X142770000Y-73620000D02*
X142770000Y-83860000D01*
X142770000Y-73620000D02*
X126880000Y-73620000D01*
X142770000Y-83860000D02*
X126880000Y-83860000D01*
X126880000Y-76200000D02*
X124240000Y-76200000D01*
X126880000Y-78740000D02*
X124256000Y-78740000D01*
X126880000Y-81280000D02*
X124256000Y-81280000D01*
D14*
X86149180Y-81861660D02*
X86149180Y-90858340D01*
X97149920Y-81861660D02*
X97149920Y-85460840D01*
X86149180Y-81861660D02*
X97149920Y-81861660D01*
X97149920Y-90858340D02*
X94449900Y-90858340D01*
X86149180Y-90858340D02*
X92049600Y-90858340D01*
X82649060Y-90858340D02*
X82649060Y-81861660D01*
X82649060Y-90858340D02*
X85948520Y-90858340D01*
X86149180Y-81861660D02*
X82649060Y-81861660D01*
X97149920Y-90858340D02*
X97149920Y-87259160D01*
X98549460Y-128427480D02*
X98549460Y-97632520D01*
X76314300Y-120650000D02*
X76314300Y-105410000D01*
X81902300Y-104902000D02*
X76822300Y-104902000D01*
X82550000Y-128427480D02*
X82550000Y-97632520D01*
X81902300Y-121158000D02*
X76822300Y-121158000D01*
X86520020Y-97632520D02*
X82550000Y-97632520D01*
X98549460Y-97632520D02*
X86520020Y-97632520D01*
X86520020Y-128427480D02*
X82550000Y-128427480D01*
X98549460Y-128427480D02*
X86520020Y-128427480D01*
X76314300Y-120650000D02*
G75*
G03*
X76822300Y-121158000I508000J0D01*
G01*
X76822300Y-104902000D02*
G75*
G03*
X76314300Y-105410000I0J-508000D01*
G01*
X82534760Y-121790460D02*
G75*
G03*
X81902300Y-121158000I-632460J0D01*
G01*
X81902300Y-104904540D02*
G75*
G03*
X82537300Y-104269540I0J635000D01*
G01*
D13*
X109160000Y-133080000D02*
X109160000Y-134730000D01*
X109160000Y-134730000D02*
X127060000Y-134730000D01*
X127060000Y-134730000D02*
X127060000Y-129430000D01*
X127060000Y-129430000D02*
X109160000Y-129430000D01*
X109160000Y-129430000D02*
X109160000Y-131080000D01*
X109100000Y-137220000D02*
X127120000Y-137220000D01*
X127120000Y-137220000D02*
X127120000Y-126940000D01*
X127120000Y-126940000D02*
X109100000Y-126940000D01*
X109100000Y-126940000D02*
X109100000Y-137220000D01*
X109160000Y-131080000D02*
G75*
G02*
X109160000Y-133080000I0J-1000000D01*
G01*
X111280000Y-83610000D02*
X111280000Y-81490000D01*
X111280000Y-81490000D02*
X107160000Y-81490000D01*
X107160000Y-81490000D02*
X107160000Y-83610000D01*
X107160000Y-83610000D02*
X111280000Y-83610000D01*
X112050000Y-82550000D02*
X111280000Y-82550000D01*
X106390000Y-82550000D02*
X107160000Y-82550000D01*
X110620000Y-83610000D02*
X110620000Y-81490000D01*
D11*
X152273095Y-73112380D02*
X152273095Y-73921904D01*
X152320714Y-74017142D01*
X152368333Y-74064761D01*
X152463571Y-74112380D01*
X152654047Y-74112380D01*
X152749285Y-74064761D01*
X152796904Y-74017142D01*
X152844523Y-73921904D01*
X152844523Y-73112380D01*
X153749285Y-73445714D02*
X153749285Y-74112380D01*
X153511190Y-73064761D02*
X153273095Y-73779047D01*
X153892142Y-73779047D01*
X181285000Y-73826666D02*
X181761190Y-73826666D01*
X181189761Y-74112380D02*
X181523095Y-73112380D01*
X181856428Y-74112380D01*
X182046904Y-73112380D02*
X182618333Y-73112380D01*
X182332619Y-74112380D02*
X182332619Y-73112380D01*
X182904047Y-73207619D02*
X182951666Y-73160000D01*
X183046904Y-73112380D01*
X183285000Y-73112380D01*
X183380238Y-73160000D01*
X183427857Y-73207619D01*
X183475476Y-73302857D01*
X183475476Y-73398095D01*
X183427857Y-73540952D01*
X182856428Y-74112380D01*
X183475476Y-74112380D01*
X184046904Y-73540952D02*
X183951666Y-73493333D01*
X183904047Y-73445714D01*
X183856428Y-73350476D01*
X183856428Y-73302857D01*
X183904047Y-73207619D01*
X183951666Y-73160000D01*
X184046904Y-73112380D01*
X184237380Y-73112380D01*
X184332619Y-73160000D01*
X184380238Y-73207619D01*
X184427857Y-73302857D01*
X184427857Y-73350476D01*
X184380238Y-73445714D01*
X184332619Y-73493333D01*
X184237380Y-73540952D01*
X184046904Y-73540952D01*
X183951666Y-73588571D01*
X183904047Y-73636190D01*
X183856428Y-73731428D01*
X183856428Y-73921904D01*
X183904047Y-74017142D01*
X183951666Y-74064761D01*
X184046904Y-74112380D01*
X184237380Y-74112380D01*
X184332619Y-74064761D01*
X184380238Y-74017142D01*
X184427857Y-73921904D01*
X184427857Y-73731428D01*
X184380238Y-73636190D01*
X184332619Y-73588571D01*
X184237380Y-73540952D01*
X185427857Y-74017142D02*
X185380238Y-74064761D01*
X185237380Y-74112380D01*
X185142142Y-74112380D01*
X184999285Y-74064761D01*
X184904047Y-73969523D01*
X184856428Y-73874285D01*
X184808809Y-73683809D01*
X184808809Y-73540952D01*
X184856428Y-73350476D01*
X184904047Y-73255238D01*
X184999285Y-73160000D01*
X185142142Y-73112380D01*
X185237380Y-73112380D01*
X185380238Y-73160000D01*
X185427857Y-73207619D01*
X185808809Y-73207619D02*
X185856428Y-73160000D01*
X185951666Y-73112380D01*
X186189761Y-73112380D01*
X186285000Y-73160000D01*
X186332619Y-73207619D01*
X186380238Y-73302857D01*
X186380238Y-73398095D01*
X186332619Y-73540952D01*
X185761190Y-74112380D01*
X186380238Y-74112380D01*
X187285000Y-73112380D02*
X186808809Y-73112380D01*
X186761190Y-73588571D01*
X186808809Y-73540952D01*
X186904047Y-73493333D01*
X187142142Y-73493333D01*
X187237380Y-73540952D01*
X187285000Y-73588571D01*
X187332619Y-73683809D01*
X187332619Y-73921904D01*
X187285000Y-74017142D01*
X187237380Y-74064761D01*
X187142142Y-74112380D01*
X186904047Y-74112380D01*
X186808809Y-74064761D01*
X186761190Y-74017142D01*
X188189761Y-73112380D02*
X187999285Y-73112380D01*
X187904047Y-73160000D01*
X187856428Y-73207619D01*
X187761190Y-73350476D01*
X187713571Y-73540952D01*
X187713571Y-73921904D01*
X187761190Y-74017142D01*
X187808809Y-74064761D01*
X187904047Y-74112380D01*
X188094523Y-74112380D01*
X188189761Y-74064761D01*
X188237380Y-74017142D01*
X188285000Y-73921904D01*
X188285000Y-73683809D01*
X188237380Y-73588571D01*
X188189761Y-73540952D01*
X188094523Y-73493333D01*
X187904047Y-73493333D01*
X187808809Y-73540952D01*
X187761190Y-73588571D01*
X187713571Y-73683809D01*
X133651666Y-92162380D02*
X133651666Y-92876666D01*
X133604047Y-93019523D01*
X133508809Y-93114761D01*
X133365952Y-93162380D01*
X133270714Y-93162380D01*
X134556428Y-92495714D02*
X134556428Y-93162380D01*
X134318333Y-92114761D02*
X134080238Y-92829047D01*
X134699285Y-92829047D01*
X144867380Y-96471904D02*
X145867380Y-96138571D01*
X144867380Y-95805238D01*
X145867380Y-94900476D02*
X145391190Y-95233809D01*
X145867380Y-95471904D02*
X144867380Y-95471904D01*
X144867380Y-95090952D01*
X144915000Y-94995714D01*
X144962619Y-94948095D01*
X145057857Y-94900476D01*
X145200714Y-94900476D01*
X145295952Y-94948095D01*
X145343571Y-94995714D01*
X145391190Y-95090952D01*
X145391190Y-95471904D01*
X145581666Y-94519523D02*
X145581666Y-94043333D01*
X145867380Y-94614761D02*
X144867380Y-94281428D01*
X145867380Y-93948095D01*
X145867380Y-93614761D02*
X144867380Y-93614761D01*
X145581666Y-93281428D01*
X144867380Y-92948095D01*
X145867380Y-92948095D01*
X145819761Y-91757619D02*
X145867380Y-91614761D01*
X145867380Y-91376666D01*
X145819761Y-91281428D01*
X145772142Y-91233809D01*
X145676904Y-91186190D01*
X145581666Y-91186190D01*
X145486428Y-91233809D01*
X145438809Y-91281428D01*
X145391190Y-91376666D01*
X145343571Y-91567142D01*
X145295952Y-91662380D01*
X145248333Y-91710000D01*
X145153095Y-91757619D01*
X145057857Y-91757619D01*
X144962619Y-91710000D01*
X144915000Y-91662380D01*
X144867380Y-91567142D01*
X144867380Y-91329047D01*
X144915000Y-91186190D01*
X145867380Y-90757619D02*
X145200714Y-90757619D01*
X144867380Y-90757619D02*
X144915000Y-90805238D01*
X144962619Y-90757619D01*
X144915000Y-90710000D01*
X144867380Y-90757619D01*
X144962619Y-90757619D01*
X145200714Y-90376666D02*
X145200714Y-89852857D01*
X145867380Y-90376666D01*
X145867380Y-89852857D01*
X145819761Y-89090952D02*
X145867380Y-89186190D01*
X145867380Y-89376666D01*
X145819761Y-89471904D01*
X145724523Y-89519523D01*
X145343571Y-89519523D01*
X145248333Y-89471904D01*
X145200714Y-89376666D01*
X145200714Y-89186190D01*
X145248333Y-89090952D01*
X145343571Y-89043333D01*
X145438809Y-89043333D01*
X145534047Y-89519523D01*
X195881666Y-77557380D02*
X195881666Y-78271666D01*
X195834047Y-78414523D01*
X195738809Y-78509761D01*
X195595952Y-78557380D01*
X195500714Y-78557380D01*
X196262619Y-77557380D02*
X196881666Y-77557380D01*
X196548333Y-77938333D01*
X196691190Y-77938333D01*
X196786428Y-77985952D01*
X196834047Y-78033571D01*
X196881666Y-78128809D01*
X196881666Y-78366904D01*
X196834047Y-78462142D01*
X196786428Y-78509761D01*
X196691190Y-78557380D01*
X196405476Y-78557380D01*
X196310238Y-78509761D01*
X196262619Y-78462142D01*
X199239285Y-78033571D02*
X199382142Y-78081190D01*
X199429761Y-78128809D01*
X199477380Y-78224047D01*
X199477380Y-78366904D01*
X199429761Y-78462142D01*
X199382142Y-78509761D01*
X199286904Y-78557380D01*
X198905952Y-78557380D01*
X198905952Y-77557380D01*
X199239285Y-77557380D01*
X199334523Y-77605000D01*
X199382142Y-77652619D01*
X199429761Y-77747857D01*
X199429761Y-77843095D01*
X199382142Y-77938333D01*
X199334523Y-77985952D01*
X199239285Y-78033571D01*
X198905952Y-78033571D01*
X200334523Y-77890714D02*
X200334523Y-78557380D01*
X199905952Y-77890714D02*
X199905952Y-78414523D01*
X199953571Y-78509761D01*
X200048809Y-78557380D01*
X200191666Y-78557380D01*
X200286904Y-78509761D01*
X200334523Y-78462142D01*
X200763095Y-78509761D02*
X200858333Y-78557380D01*
X201048809Y-78557380D01*
X201144047Y-78509761D01*
X201191666Y-78414523D01*
X201191666Y-78366904D01*
X201144047Y-78271666D01*
X201048809Y-78224047D01*
X200905952Y-78224047D01*
X200810714Y-78176428D01*
X200763095Y-78081190D01*
X200763095Y-78033571D01*
X200810714Y-77938333D01*
X200905952Y-77890714D01*
X201048809Y-77890714D01*
X201144047Y-77938333D01*
X155448095Y-97242380D02*
X155448095Y-98051904D01*
X155495714Y-98147142D01*
X155543333Y-98194761D01*
X155638571Y-98242380D01*
X155829047Y-98242380D01*
X155924285Y-98194761D01*
X155971904Y-98147142D01*
X156019523Y-98051904D01*
X156019523Y-97242380D01*
X156400476Y-97242380D02*
X157019523Y-97242380D01*
X156686190Y-97623333D01*
X156829047Y-97623333D01*
X156924285Y-97670952D01*
X156971904Y-97718571D01*
X157019523Y-97813809D01*
X157019523Y-98051904D01*
X156971904Y-98147142D01*
X156924285Y-98194761D01*
X156829047Y-98242380D01*
X156543333Y-98242380D01*
X156448095Y-98194761D01*
X156400476Y-98147142D01*
X164417857Y-138596666D02*
X164894047Y-138596666D01*
X164322619Y-138882380D02*
X164655952Y-137882380D01*
X164989285Y-138882380D01*
X165179761Y-137882380D02*
X165751190Y-137882380D01*
X165465476Y-138882380D02*
X165465476Y-137882380D01*
X166417857Y-138358571D02*
X166084523Y-138358571D01*
X166084523Y-138882380D02*
X166084523Y-137882380D01*
X166560714Y-137882380D01*
X167465476Y-138882380D02*
X166894047Y-138882380D01*
X167179761Y-138882380D02*
X167179761Y-137882380D01*
X167084523Y-138025238D01*
X166989285Y-138120476D01*
X166894047Y-138168095D01*
X168370238Y-137882380D02*
X167894047Y-137882380D01*
X167846428Y-138358571D01*
X167894047Y-138310952D01*
X167989285Y-138263333D01*
X168227380Y-138263333D01*
X168322619Y-138310952D01*
X168370238Y-138358571D01*
X168417857Y-138453809D01*
X168417857Y-138691904D01*
X168370238Y-138787142D01*
X168322619Y-138834761D01*
X168227380Y-138882380D01*
X167989285Y-138882380D01*
X167894047Y-138834761D01*
X167846428Y-138787142D01*
X169036904Y-137882380D02*
X169132142Y-137882380D01*
X169227380Y-137930000D01*
X169275000Y-137977619D01*
X169322619Y-138072857D01*
X169370238Y-138263333D01*
X169370238Y-138501428D01*
X169322619Y-138691904D01*
X169275000Y-138787142D01*
X169227380Y-138834761D01*
X169132142Y-138882380D01*
X169036904Y-138882380D01*
X168941666Y-138834761D01*
X168894047Y-138787142D01*
X168846428Y-138691904D01*
X168798809Y-138501428D01*
X168798809Y-138263333D01*
X168846428Y-138072857D01*
X168894047Y-137977619D01*
X168941666Y-137930000D01*
X169036904Y-137882380D01*
X169941666Y-138310952D02*
X169846428Y-138263333D01*
X169798809Y-138215714D01*
X169751190Y-138120476D01*
X169751190Y-138072857D01*
X169798809Y-137977619D01*
X169846428Y-137930000D01*
X169941666Y-137882380D01*
X170132142Y-137882380D01*
X170227380Y-137930000D01*
X170275000Y-137977619D01*
X170322619Y-138072857D01*
X170322619Y-138120476D01*
X170275000Y-138215714D01*
X170227380Y-138263333D01*
X170132142Y-138310952D01*
X169941666Y-138310952D01*
X169846428Y-138358571D01*
X169798809Y-138406190D01*
X169751190Y-138501428D01*
X169751190Y-138691904D01*
X169798809Y-138787142D01*
X169846428Y-138834761D01*
X169941666Y-138882380D01*
X170132142Y-138882380D01*
X170227380Y-138834761D01*
X170275000Y-138787142D01*
X170322619Y-138691904D01*
X170322619Y-138501428D01*
X170275000Y-138406190D01*
X170227380Y-138358571D01*
X170132142Y-138310952D01*
X170703571Y-138596666D02*
X171179761Y-138596666D01*
X170608333Y-138882380D02*
X170941666Y-137882380D01*
X171275000Y-138882380D01*
X171560714Y-138834761D02*
X171703571Y-138882380D01*
X171941666Y-138882380D01*
X172036904Y-138834761D01*
X172084523Y-138787142D01*
X172132142Y-138691904D01*
X172132142Y-138596666D01*
X172084523Y-138501428D01*
X172036904Y-138453809D01*
X171941666Y-138406190D01*
X171751190Y-138358571D01*
X171655952Y-138310952D01*
X171608333Y-138263333D01*
X171560714Y-138168095D01*
X171560714Y-138072857D01*
X171608333Y-137977619D01*
X171655952Y-137930000D01*
X171751190Y-137882380D01*
X171989285Y-137882380D01*
X172132142Y-137930000D01*
X195881666Y-130897380D02*
X195881666Y-131611666D01*
X195834047Y-131754523D01*
X195738809Y-131849761D01*
X195595952Y-131897380D01*
X195500714Y-131897380D01*
X196310238Y-130992619D02*
X196357857Y-130945000D01*
X196453095Y-130897380D01*
X196691190Y-130897380D01*
X196786428Y-130945000D01*
X196834047Y-130992619D01*
X196881666Y-131087857D01*
X196881666Y-131183095D01*
X196834047Y-131325952D01*
X196262619Y-131897380D01*
X196881666Y-131897380D01*
X198223333Y-130897380D02*
X198223333Y-131611666D01*
X198175714Y-131754523D01*
X198080476Y-131849761D01*
X197937619Y-131897380D01*
X197842380Y-131897380D01*
X198556666Y-130897380D02*
X199128095Y-130897380D01*
X198842380Y-131897380D02*
X198842380Y-130897380D01*
X199413809Y-131611666D02*
X199890000Y-131611666D01*
X199318571Y-131897380D02*
X199651904Y-130897380D01*
X199985238Y-131897380D01*
X200842380Y-130945000D02*
X200747142Y-130897380D01*
X200604285Y-130897380D01*
X200461428Y-130945000D01*
X200366190Y-131040238D01*
X200318571Y-131135476D01*
X200270952Y-131325952D01*
X200270952Y-131468809D01*
X200318571Y-131659285D01*
X200366190Y-131754523D01*
X200461428Y-131849761D01*
X200604285Y-131897380D01*
X200699523Y-131897380D01*
X200842380Y-131849761D01*
X200890000Y-131802142D01*
X200890000Y-131468809D01*
X200699523Y-131468809D01*
X189857142Y-113387142D02*
X189809523Y-113434761D01*
X189666666Y-113482380D01*
X189571428Y-113482380D01*
X189428571Y-113434761D01*
X189333333Y-113339523D01*
X189285714Y-113244285D01*
X189238095Y-113053809D01*
X189238095Y-112910952D01*
X189285714Y-112720476D01*
X189333333Y-112625238D01*
X189428571Y-112530000D01*
X189571428Y-112482380D01*
X189666666Y-112482380D01*
X189809523Y-112530000D01*
X189857142Y-112577619D01*
X190809523Y-113482380D02*
X190238095Y-113482380D01*
X190523809Y-113482380D02*
X190523809Y-112482380D01*
X190428571Y-112625238D01*
X190333333Y-112720476D01*
X190238095Y-112768095D01*
X191666666Y-112815714D02*
X191666666Y-113482380D01*
X191428571Y-112434761D02*
X191190476Y-113149047D01*
X191809523Y-113149047D01*
X189857142Y-122277142D02*
X189809523Y-122324761D01*
X189666666Y-122372380D01*
X189571428Y-122372380D01*
X189428571Y-122324761D01*
X189333333Y-122229523D01*
X189285714Y-122134285D01*
X189238095Y-121943809D01*
X189238095Y-121800952D01*
X189285714Y-121610476D01*
X189333333Y-121515238D01*
X189428571Y-121420000D01*
X189571428Y-121372380D01*
X189666666Y-121372380D01*
X189809523Y-121420000D01*
X189857142Y-121467619D01*
X190809523Y-122372380D02*
X190238095Y-122372380D01*
X190523809Y-122372380D02*
X190523809Y-121372380D01*
X190428571Y-121515238D01*
X190333333Y-121610476D01*
X190238095Y-121658095D01*
X191142857Y-121372380D02*
X191761904Y-121372380D01*
X191428571Y-121753333D01*
X191571428Y-121753333D01*
X191666666Y-121800952D01*
X191714285Y-121848571D01*
X191761904Y-121943809D01*
X191761904Y-122181904D01*
X191714285Y-122277142D01*
X191666666Y-122324761D01*
X191571428Y-122372380D01*
X191285714Y-122372380D01*
X191190476Y-122324761D01*
X191142857Y-122277142D01*
X149217142Y-104497142D02*
X149169523Y-104544761D01*
X149026666Y-104592380D01*
X148931428Y-104592380D01*
X148788571Y-104544761D01*
X148693333Y-104449523D01*
X148645714Y-104354285D01*
X148598095Y-104163809D01*
X148598095Y-104020952D01*
X148645714Y-103830476D01*
X148693333Y-103735238D01*
X148788571Y-103640000D01*
X148931428Y-103592380D01*
X149026666Y-103592380D01*
X149169523Y-103640000D01*
X149217142Y-103687619D01*
X150169523Y-104592380D02*
X149598095Y-104592380D01*
X149883809Y-104592380D02*
X149883809Y-103592380D01*
X149788571Y-103735238D01*
X149693333Y-103830476D01*
X149598095Y-103878095D01*
X150550476Y-103687619D02*
X150598095Y-103640000D01*
X150693333Y-103592380D01*
X150931428Y-103592380D01*
X151026666Y-103640000D01*
X151074285Y-103687619D01*
X151121904Y-103782857D01*
X151121904Y-103878095D01*
X151074285Y-104020952D01*
X150502857Y-104592380D01*
X151121904Y-104592380D01*
X149217142Y-118467142D02*
X149169523Y-118514761D01*
X149026666Y-118562380D01*
X148931428Y-118562380D01*
X148788571Y-118514761D01*
X148693333Y-118419523D01*
X148645714Y-118324285D01*
X148598095Y-118133809D01*
X148598095Y-117990952D01*
X148645714Y-117800476D01*
X148693333Y-117705238D01*
X148788571Y-117610000D01*
X148931428Y-117562380D01*
X149026666Y-117562380D01*
X149169523Y-117610000D01*
X149217142Y-117657619D01*
X150169523Y-118562380D02*
X149598095Y-118562380D01*
X149883809Y-118562380D02*
X149883809Y-117562380D01*
X149788571Y-117705238D01*
X149693333Y-117800476D01*
X149598095Y-117848095D01*
X151121904Y-118562380D02*
X150550476Y-118562380D01*
X150836190Y-118562380D02*
X150836190Y-117562380D01*
X150740952Y-117705238D01*
X150645714Y-117800476D01*
X150550476Y-117848095D01*
X189857142Y-103227142D02*
X189809523Y-103274761D01*
X189666666Y-103322380D01*
X189571428Y-103322380D01*
X189428571Y-103274761D01*
X189333333Y-103179523D01*
X189285714Y-103084285D01*
X189238095Y-102893809D01*
X189238095Y-102750952D01*
X189285714Y-102560476D01*
X189333333Y-102465238D01*
X189428571Y-102370000D01*
X189571428Y-102322380D01*
X189666666Y-102322380D01*
X189809523Y-102370000D01*
X189857142Y-102417619D01*
X190809523Y-103322380D02*
X190238095Y-103322380D01*
X190523809Y-103322380D02*
X190523809Y-102322380D01*
X190428571Y-102465238D01*
X190333333Y-102560476D01*
X190238095Y-102608095D01*
X191428571Y-102322380D02*
X191523809Y-102322380D01*
X191619047Y-102370000D01*
X191666666Y-102417619D01*
X191714285Y-102512857D01*
X191761904Y-102703333D01*
X191761904Y-102941428D01*
X191714285Y-103131904D01*
X191666666Y-103227142D01*
X191619047Y-103274761D01*
X191523809Y-103322380D01*
X191428571Y-103322380D01*
X191333333Y-103274761D01*
X191285714Y-103227142D01*
X191238095Y-103131904D01*
X191190476Y-102941428D01*
X191190476Y-102703333D01*
X191238095Y-102512857D01*
X191285714Y-102417619D01*
X191333333Y-102370000D01*
X191428571Y-102322380D01*
X166203333Y-95607142D02*
X166155714Y-95654761D01*
X166012857Y-95702380D01*
X165917619Y-95702380D01*
X165774761Y-95654761D01*
X165679523Y-95559523D01*
X165631904Y-95464285D01*
X165584285Y-95273809D01*
X165584285Y-95130952D01*
X165631904Y-94940476D01*
X165679523Y-94845238D01*
X165774761Y-94750000D01*
X165917619Y-94702380D01*
X166012857Y-94702380D01*
X166155714Y-94750000D01*
X166203333Y-94797619D01*
X166679523Y-95702380D02*
X166870000Y-95702380D01*
X166965238Y-95654761D01*
X167012857Y-95607142D01*
X167108095Y-95464285D01*
X167155714Y-95273809D01*
X167155714Y-94892857D01*
X167108095Y-94797619D01*
X167060476Y-94750000D01*
X166965238Y-94702380D01*
X166774761Y-94702380D01*
X166679523Y-94750000D01*
X166631904Y-94797619D01*
X166584285Y-94892857D01*
X166584285Y-95130952D01*
X166631904Y-95226190D01*
X166679523Y-95273809D01*
X166774761Y-95321428D01*
X166965238Y-95321428D01*
X167060476Y-95273809D01*
X167108095Y-95226190D01*
X167155714Y-95130952D01*
X155408333Y-138787142D02*
X155360714Y-138834761D01*
X155217857Y-138882380D01*
X155122619Y-138882380D01*
X154979761Y-138834761D01*
X154884523Y-138739523D01*
X154836904Y-138644285D01*
X154789285Y-138453809D01*
X154789285Y-138310952D01*
X154836904Y-138120476D01*
X154884523Y-138025238D01*
X154979761Y-137930000D01*
X155122619Y-137882380D01*
X155217857Y-137882380D01*
X155360714Y-137930000D01*
X155408333Y-137977619D01*
X155979761Y-138310952D02*
X155884523Y-138263333D01*
X155836904Y-138215714D01*
X155789285Y-138120476D01*
X155789285Y-138072857D01*
X155836904Y-137977619D01*
X155884523Y-137930000D01*
X155979761Y-137882380D01*
X156170238Y-137882380D01*
X156265476Y-137930000D01*
X156313095Y-137977619D01*
X156360714Y-138072857D01*
X156360714Y-138120476D01*
X156313095Y-138215714D01*
X156265476Y-138263333D01*
X156170238Y-138310952D01*
X155979761Y-138310952D01*
X155884523Y-138358571D01*
X155836904Y-138406190D01*
X155789285Y-138501428D01*
X155789285Y-138691904D01*
X155836904Y-138787142D01*
X155884523Y-138834761D01*
X155979761Y-138882380D01*
X156170238Y-138882380D01*
X156265476Y-138834761D01*
X156313095Y-138787142D01*
X156360714Y-138691904D01*
X156360714Y-138501428D01*
X156313095Y-138406190D01*
X156265476Y-138358571D01*
X156170238Y-138310952D01*
X180808333Y-138787142D02*
X180760714Y-138834761D01*
X180617857Y-138882380D01*
X180522619Y-138882380D01*
X180379761Y-138834761D01*
X180284523Y-138739523D01*
X180236904Y-138644285D01*
X180189285Y-138453809D01*
X180189285Y-138310952D01*
X180236904Y-138120476D01*
X180284523Y-138025238D01*
X180379761Y-137930000D01*
X180522619Y-137882380D01*
X180617857Y-137882380D01*
X180760714Y-137930000D01*
X180808333Y-137977619D01*
X181141666Y-137882380D02*
X181808333Y-137882380D01*
X181379761Y-138882380D01*
X105243333Y-126087142D02*
X105195714Y-126134761D01*
X105052857Y-126182380D01*
X104957619Y-126182380D01*
X104814761Y-126134761D01*
X104719523Y-126039523D01*
X104671904Y-125944285D01*
X104624285Y-125753809D01*
X104624285Y-125610952D01*
X104671904Y-125420476D01*
X104719523Y-125325238D01*
X104814761Y-125230000D01*
X104957619Y-125182380D01*
X105052857Y-125182380D01*
X105195714Y-125230000D01*
X105243333Y-125277619D01*
X106100476Y-125182380D02*
X105910000Y-125182380D01*
X105814761Y-125230000D01*
X105767142Y-125277619D01*
X105671904Y-125420476D01*
X105624285Y-125610952D01*
X105624285Y-125991904D01*
X105671904Y-126087142D01*
X105719523Y-126134761D01*
X105814761Y-126182380D01*
X106005238Y-126182380D01*
X106100476Y-126134761D01*
X106148095Y-126087142D01*
X106195714Y-125991904D01*
X106195714Y-125753809D01*
X106148095Y-125658571D01*
X106100476Y-125610952D01*
X106005238Y-125563333D01*
X105814761Y-125563333D01*
X105719523Y-125610952D01*
X105671904Y-125658571D01*
X105624285Y-125753809D01*
X137628333Y-115927142D02*
X137580714Y-115974761D01*
X137437857Y-116022380D01*
X137342619Y-116022380D01*
X137199761Y-115974761D01*
X137104523Y-115879523D01*
X137056904Y-115784285D01*
X137009285Y-115593809D01*
X137009285Y-115450952D01*
X137056904Y-115260476D01*
X137104523Y-115165238D01*
X137199761Y-115070000D01*
X137342619Y-115022380D01*
X137437857Y-115022380D01*
X137580714Y-115070000D01*
X137628333Y-115117619D01*
X138533095Y-115022380D02*
X138056904Y-115022380D01*
X138009285Y-115498571D01*
X138056904Y-115450952D01*
X138152142Y-115403333D01*
X138390238Y-115403333D01*
X138485476Y-115450952D01*
X138533095Y-115498571D01*
X138580714Y-115593809D01*
X138580714Y-115831904D01*
X138533095Y-115927142D01*
X138485476Y-115974761D01*
X138390238Y-116022380D01*
X138152142Y-116022380D01*
X138056904Y-115974761D01*
X138009285Y-115927142D01*
X149693333Y-96877142D02*
X149645714Y-96924761D01*
X149502857Y-96972380D01*
X149407619Y-96972380D01*
X149264761Y-96924761D01*
X149169523Y-96829523D01*
X149121904Y-96734285D01*
X149074285Y-96543809D01*
X149074285Y-96400952D01*
X149121904Y-96210476D01*
X149169523Y-96115238D01*
X149264761Y-96020000D01*
X149407619Y-95972380D01*
X149502857Y-95972380D01*
X149645714Y-96020000D01*
X149693333Y-96067619D01*
X150550476Y-96305714D02*
X150550476Y-96972380D01*
X150312380Y-95924761D02*
X150074285Y-96639047D01*
X150693333Y-96639047D01*
X148423333Y-74017142D02*
X148375714Y-74064761D01*
X148232857Y-74112380D01*
X148137619Y-74112380D01*
X147994761Y-74064761D01*
X147899523Y-73969523D01*
X147851904Y-73874285D01*
X147804285Y-73683809D01*
X147804285Y-73540952D01*
X147851904Y-73350476D01*
X147899523Y-73255238D01*
X147994761Y-73160000D01*
X148137619Y-73112380D01*
X148232857Y-73112380D01*
X148375714Y-73160000D01*
X148423333Y-73207619D01*
X148756666Y-73112380D02*
X149375714Y-73112380D01*
X149042380Y-73493333D01*
X149185238Y-73493333D01*
X149280476Y-73540952D01*
X149328095Y-73588571D01*
X149375714Y-73683809D01*
X149375714Y-73921904D01*
X149328095Y-74017142D01*
X149280476Y-74064761D01*
X149185238Y-74112380D01*
X148899523Y-74112380D01*
X148804285Y-74064761D01*
X148756666Y-74017142D01*
X114133333Y-71477142D02*
X114085714Y-71524761D01*
X113942857Y-71572380D01*
X113847619Y-71572380D01*
X113704761Y-71524761D01*
X113609523Y-71429523D01*
X113561904Y-71334285D01*
X113514285Y-71143809D01*
X113514285Y-71000952D01*
X113561904Y-70810476D01*
X113609523Y-70715238D01*
X113704761Y-70620000D01*
X113847619Y-70572380D01*
X113942857Y-70572380D01*
X114085714Y-70620000D01*
X114133333Y-70667619D01*
X114514285Y-70667619D02*
X114561904Y-70620000D01*
X114657142Y-70572380D01*
X114895238Y-70572380D01*
X114990476Y-70620000D01*
X115038095Y-70667619D01*
X115085714Y-70762857D01*
X115085714Y-70858095D01*
X115038095Y-71000952D01*
X114466666Y-71572380D01*
X115085714Y-71572380D01*
X112657142Y-78192380D02*
X112752380Y-78192380D01*
X112847619Y-78240000D01*
X112895238Y-78287619D01*
X112942857Y-78382857D01*
X112990476Y-78573333D01*
X112990476Y-78811428D01*
X112942857Y-79001904D01*
X112895238Y-79097142D01*
X112847619Y-79144761D01*
X112752380Y-79192380D01*
X112657142Y-79192380D01*
X112561904Y-79144761D01*
X112514285Y-79097142D01*
X112466666Y-79001904D01*
X112419047Y-78811428D01*
X112419047Y-78573333D01*
X112466666Y-78382857D01*
X112514285Y-78287619D01*
X112561904Y-78240000D01*
X112657142Y-78192380D01*
X113419047Y-79097142D02*
X113466666Y-79144761D01*
X113419047Y-79192380D01*
X113371428Y-79144761D01*
X113419047Y-79097142D01*
X113419047Y-79192380D01*
X114419047Y-79192380D02*
X113847619Y-79192380D01*
X114133333Y-79192380D02*
X114133333Y-78192380D01*
X114038095Y-78335238D01*
X113942857Y-78430476D01*
X113847619Y-78478095D01*
X115276190Y-78525714D02*
X115276190Y-79192380D01*
X114847619Y-78525714D02*
X114847619Y-79049523D01*
X114895238Y-79144761D01*
X114990476Y-79192380D01*
X115133333Y-79192380D01*
X115228571Y-79144761D01*
X115276190Y-79097142D01*
X116085714Y-78668571D02*
X115752380Y-78668571D01*
X115752380Y-79192380D02*
X115752380Y-78192380D01*
X116228571Y-78192380D01*
X103973333Y-71477142D02*
X103925714Y-71524761D01*
X103782857Y-71572380D01*
X103687619Y-71572380D01*
X103544761Y-71524761D01*
X103449523Y-71429523D01*
X103401904Y-71334285D01*
X103354285Y-71143809D01*
X103354285Y-71000952D01*
X103401904Y-70810476D01*
X103449523Y-70715238D01*
X103544761Y-70620000D01*
X103687619Y-70572380D01*
X103782857Y-70572380D01*
X103925714Y-70620000D01*
X103973333Y-70667619D01*
X104925714Y-71572380D02*
X104354285Y-71572380D01*
X104640000Y-71572380D02*
X104640000Y-70572380D01*
X104544761Y-70715238D01*
X104449523Y-70810476D01*
X104354285Y-70858095D01*
X102020952Y-78192380D02*
X102116190Y-78192380D01*
X102211428Y-78240000D01*
X102259047Y-78287619D01*
X102306666Y-78382857D01*
X102354285Y-78573333D01*
X102354285Y-78811428D01*
X102306666Y-79001904D01*
X102259047Y-79097142D01*
X102211428Y-79144761D01*
X102116190Y-79192380D01*
X102020952Y-79192380D01*
X101925714Y-79144761D01*
X101878095Y-79097142D01*
X101830476Y-79001904D01*
X101782857Y-78811428D01*
X101782857Y-78573333D01*
X101830476Y-78382857D01*
X101878095Y-78287619D01*
X101925714Y-78240000D01*
X102020952Y-78192380D01*
X102782857Y-79097142D02*
X102830476Y-79144761D01*
X102782857Y-79192380D01*
X102735238Y-79144761D01*
X102782857Y-79097142D01*
X102782857Y-79192380D01*
X103163809Y-78192380D02*
X103782857Y-78192380D01*
X103449523Y-78573333D01*
X103592380Y-78573333D01*
X103687619Y-78620952D01*
X103735238Y-78668571D01*
X103782857Y-78763809D01*
X103782857Y-79001904D01*
X103735238Y-79097142D01*
X103687619Y-79144761D01*
X103592380Y-79192380D01*
X103306666Y-79192380D01*
X103211428Y-79144761D01*
X103163809Y-79097142D01*
X104116190Y-78192380D02*
X104735238Y-78192380D01*
X104401904Y-78573333D01*
X104544761Y-78573333D01*
X104640000Y-78620952D01*
X104687619Y-78668571D01*
X104735238Y-78763809D01*
X104735238Y-79001904D01*
X104687619Y-79097142D01*
X104640000Y-79144761D01*
X104544761Y-79192380D01*
X104259047Y-79192380D01*
X104163809Y-79144761D01*
X104116190Y-79097142D01*
X105592380Y-78525714D02*
X105592380Y-79192380D01*
X105163809Y-78525714D02*
X105163809Y-79049523D01*
X105211428Y-79144761D01*
X105306666Y-79192380D01*
X105449523Y-79192380D01*
X105544761Y-79144761D01*
X105592380Y-79097142D01*
X106401904Y-78668571D02*
X106068571Y-78668571D01*
X106068571Y-79192380D02*
X106068571Y-78192380D01*
X106544761Y-78192380D01*
X135294761Y-100242619D02*
X135199523Y-100195000D01*
X135104285Y-100099761D01*
X134961428Y-99956904D01*
X134866190Y-99909285D01*
X134770952Y-99909285D01*
X134818571Y-100147380D02*
X134723333Y-100099761D01*
X134628095Y-100004523D01*
X134580476Y-99814047D01*
X134580476Y-99480714D01*
X134628095Y-99290238D01*
X134723333Y-99195000D01*
X134818571Y-99147380D01*
X135009047Y-99147380D01*
X135104285Y-99195000D01*
X135199523Y-99290238D01*
X135247142Y-99480714D01*
X135247142Y-99814047D01*
X135199523Y-100004523D01*
X135104285Y-100099761D01*
X135009047Y-100147380D01*
X134818571Y-100147380D01*
X136199523Y-99195000D02*
X136104285Y-99147380D01*
X135961428Y-99147380D01*
X135818571Y-99195000D01*
X135723333Y-99290238D01*
X135675714Y-99385476D01*
X135628095Y-99575952D01*
X135628095Y-99718809D01*
X135675714Y-99909285D01*
X135723333Y-100004523D01*
X135818571Y-100099761D01*
X135961428Y-100147380D01*
X136056666Y-100147380D01*
X136199523Y-100099761D01*
X136247142Y-100052142D01*
X136247142Y-99718809D01*
X136056666Y-99718809D01*
X137199523Y-100147380D02*
X136628095Y-100147380D01*
X136913809Y-100147380D02*
X136913809Y-99147380D01*
X136818571Y-99290238D01*
X136723333Y-99385476D01*
X136628095Y-99433095D01*
X136461904Y-111942619D02*
X136509523Y-111895000D01*
X136604761Y-111847380D01*
X136842857Y-111847380D01*
X136938095Y-111895000D01*
X136985714Y-111942619D01*
X137033333Y-112037857D01*
X137033333Y-112133095D01*
X136985714Y-112275952D01*
X136414285Y-112847380D01*
X137033333Y-112847380D01*
X137938095Y-111847380D02*
X137461904Y-111847380D01*
X137414285Y-112323571D01*
X137461904Y-112275952D01*
X137557142Y-112228333D01*
X137795238Y-112228333D01*
X137890476Y-112275952D01*
X137938095Y-112323571D01*
X137985714Y-112418809D01*
X137985714Y-112656904D01*
X137938095Y-112752142D01*
X137890476Y-112799761D01*
X137795238Y-112847380D01*
X137557142Y-112847380D01*
X137461904Y-112799761D01*
X137414285Y-112752142D01*
X138414285Y-112847380D02*
X138414285Y-111847380D01*
X138747619Y-112561666D01*
X139080952Y-111847380D01*
X139080952Y-112847380D01*
X140080952Y-112847380D02*
X139509523Y-112847380D01*
X139795238Y-112847380D02*
X139795238Y-111847380D01*
X139700000Y-111990238D01*
X139604761Y-112085476D01*
X139509523Y-112133095D01*
X140414285Y-111847380D02*
X141080952Y-111847380D01*
X140652380Y-112847380D01*
X141938095Y-111847380D02*
X141461904Y-111847380D01*
X141414285Y-112323571D01*
X141461904Y-112275952D01*
X141557142Y-112228333D01*
X141795238Y-112228333D01*
X141890476Y-112275952D01*
X141938095Y-112323571D01*
X141985714Y-112418809D01*
X141985714Y-112656904D01*
X141938095Y-112752142D01*
X141890476Y-112799761D01*
X141795238Y-112847380D01*
X141557142Y-112847380D01*
X141461904Y-112799761D01*
X141414285Y-112752142D01*
X142604761Y-111847380D02*
X142700000Y-111847380D01*
X142795238Y-111895000D01*
X142842857Y-111942619D01*
X142890476Y-112037857D01*
X142938095Y-112228333D01*
X142938095Y-112466428D01*
X142890476Y-112656904D01*
X142842857Y-112752142D01*
X142795238Y-112799761D01*
X142700000Y-112847380D01*
X142604761Y-112847380D01*
X142509523Y-112799761D01*
X142461904Y-112752142D01*
X142414285Y-112656904D01*
X142366666Y-112466428D01*
X142366666Y-112228333D01*
X142414285Y-112037857D01*
X142461904Y-111942619D01*
X142509523Y-111895000D01*
X142604761Y-111847380D01*
X110323333Y-112212380D02*
X109990000Y-111736190D01*
X109751904Y-112212380D02*
X109751904Y-111212380D01*
X110132857Y-111212380D01*
X110228095Y-111260000D01*
X110275714Y-111307619D01*
X110323333Y-111402857D01*
X110323333Y-111545714D01*
X110275714Y-111640952D01*
X110228095Y-111688571D01*
X110132857Y-111736190D01*
X109751904Y-111736190D01*
X111275714Y-112212380D02*
X110704285Y-112212380D01*
X110990000Y-112212380D02*
X110990000Y-111212380D01*
X110894761Y-111355238D01*
X110799523Y-111450476D01*
X110704285Y-111498095D01*
X109204285Y-113752380D02*
X109870952Y-113752380D01*
X109442380Y-114752380D01*
X110680476Y-113752380D02*
X110490000Y-113752380D01*
X110394761Y-113800000D01*
X110347142Y-113847619D01*
X110251904Y-113990476D01*
X110204285Y-114180952D01*
X110204285Y-114561904D01*
X110251904Y-114657142D01*
X110299523Y-114704761D01*
X110394761Y-114752380D01*
X110585238Y-114752380D01*
X110680476Y-114704761D01*
X110728095Y-114657142D01*
X110775714Y-114561904D01*
X110775714Y-114323809D01*
X110728095Y-114228571D01*
X110680476Y-114180952D01*
X110585238Y-114133333D01*
X110394761Y-114133333D01*
X110299523Y-114180952D01*
X110251904Y-114228571D01*
X110204285Y-114323809D01*
X111347142Y-114180952D02*
X111251904Y-114133333D01*
X111204285Y-114085714D01*
X111156666Y-113990476D01*
X111156666Y-113942857D01*
X111204285Y-113847619D01*
X111251904Y-113800000D01*
X111347142Y-113752380D01*
X111537619Y-113752380D01*
X111632857Y-113800000D01*
X111680476Y-113847619D01*
X111728095Y-113942857D01*
X111728095Y-113990476D01*
X111680476Y-114085714D01*
X111632857Y-114133333D01*
X111537619Y-114180952D01*
X111347142Y-114180952D01*
X111251904Y-114228571D01*
X111204285Y-114276190D01*
X111156666Y-114371428D01*
X111156666Y-114561904D01*
X111204285Y-114657142D01*
X111251904Y-114704761D01*
X111347142Y-114752380D01*
X111537619Y-114752380D01*
X111632857Y-114704761D01*
X111680476Y-114657142D01*
X111728095Y-114561904D01*
X111728095Y-114371428D01*
X111680476Y-114276190D01*
X111632857Y-114228571D01*
X111537619Y-114180952D01*
X123023333Y-117292380D02*
X122690000Y-116816190D01*
X122451904Y-117292380D02*
X122451904Y-116292380D01*
X122832857Y-116292380D01*
X122928095Y-116340000D01*
X122975714Y-116387619D01*
X123023333Y-116482857D01*
X123023333Y-116625714D01*
X122975714Y-116720952D01*
X122928095Y-116768571D01*
X122832857Y-116816190D01*
X122451904Y-116816190D01*
X123404285Y-116387619D02*
X123451904Y-116340000D01*
X123547142Y-116292380D01*
X123785238Y-116292380D01*
X123880476Y-116340000D01*
X123928095Y-116387619D01*
X123975714Y-116482857D01*
X123975714Y-116578095D01*
X123928095Y-116720952D01*
X123356666Y-117292380D01*
X123975714Y-117292380D01*
X121904285Y-118832380D02*
X122570952Y-118832380D01*
X122142380Y-119832380D01*
X123380476Y-118832380D02*
X123190000Y-118832380D01*
X123094761Y-118880000D01*
X123047142Y-118927619D01*
X122951904Y-119070476D01*
X122904285Y-119260952D01*
X122904285Y-119641904D01*
X122951904Y-119737142D01*
X122999523Y-119784761D01*
X123094761Y-119832380D01*
X123285238Y-119832380D01*
X123380476Y-119784761D01*
X123428095Y-119737142D01*
X123475714Y-119641904D01*
X123475714Y-119403809D01*
X123428095Y-119308571D01*
X123380476Y-119260952D01*
X123285238Y-119213333D01*
X123094761Y-119213333D01*
X122999523Y-119260952D01*
X122951904Y-119308571D01*
X122904285Y-119403809D01*
X124047142Y-119260952D02*
X123951904Y-119213333D01*
X123904285Y-119165714D01*
X123856666Y-119070476D01*
X123856666Y-119022857D01*
X123904285Y-118927619D01*
X123951904Y-118880000D01*
X124047142Y-118832380D01*
X124237619Y-118832380D01*
X124332857Y-118880000D01*
X124380476Y-118927619D01*
X124428095Y-119022857D01*
X124428095Y-119070476D01*
X124380476Y-119165714D01*
X124332857Y-119213333D01*
X124237619Y-119260952D01*
X124047142Y-119260952D01*
X123951904Y-119308571D01*
X123904285Y-119356190D01*
X123856666Y-119451428D01*
X123856666Y-119641904D01*
X123904285Y-119737142D01*
X123951904Y-119784761D01*
X124047142Y-119832380D01*
X124237619Y-119832380D01*
X124332857Y-119784761D01*
X124380476Y-119737142D01*
X124428095Y-119641904D01*
X124428095Y-119451428D01*
X124380476Y-119356190D01*
X124332857Y-119308571D01*
X124237619Y-119260952D01*
X110323333Y-102052380D02*
X109990000Y-101576190D01*
X109751904Y-102052380D02*
X109751904Y-101052380D01*
X110132857Y-101052380D01*
X110228095Y-101100000D01*
X110275714Y-101147619D01*
X110323333Y-101242857D01*
X110323333Y-101385714D01*
X110275714Y-101480952D01*
X110228095Y-101528571D01*
X110132857Y-101576190D01*
X109751904Y-101576190D01*
X110656666Y-101052380D02*
X111275714Y-101052380D01*
X110942380Y-101433333D01*
X111085238Y-101433333D01*
X111180476Y-101480952D01*
X111228095Y-101528571D01*
X111275714Y-101623809D01*
X111275714Y-101861904D01*
X111228095Y-101957142D01*
X111180476Y-102004761D01*
X111085238Y-102052380D01*
X110799523Y-102052380D01*
X110704285Y-102004761D01*
X110656666Y-101957142D01*
X109204285Y-103592380D02*
X109870952Y-103592380D01*
X109442380Y-104592380D01*
X110680476Y-103592380D02*
X110490000Y-103592380D01*
X110394761Y-103640000D01*
X110347142Y-103687619D01*
X110251904Y-103830476D01*
X110204285Y-104020952D01*
X110204285Y-104401904D01*
X110251904Y-104497142D01*
X110299523Y-104544761D01*
X110394761Y-104592380D01*
X110585238Y-104592380D01*
X110680476Y-104544761D01*
X110728095Y-104497142D01*
X110775714Y-104401904D01*
X110775714Y-104163809D01*
X110728095Y-104068571D01*
X110680476Y-104020952D01*
X110585238Y-103973333D01*
X110394761Y-103973333D01*
X110299523Y-104020952D01*
X110251904Y-104068571D01*
X110204285Y-104163809D01*
X111347142Y-104020952D02*
X111251904Y-103973333D01*
X111204285Y-103925714D01*
X111156666Y-103830476D01*
X111156666Y-103782857D01*
X111204285Y-103687619D01*
X111251904Y-103640000D01*
X111347142Y-103592380D01*
X111537619Y-103592380D01*
X111632857Y-103640000D01*
X111680476Y-103687619D01*
X111728095Y-103782857D01*
X111728095Y-103830476D01*
X111680476Y-103925714D01*
X111632857Y-103973333D01*
X111537619Y-104020952D01*
X111347142Y-104020952D01*
X111251904Y-104068571D01*
X111204285Y-104116190D01*
X111156666Y-104211428D01*
X111156666Y-104401904D01*
X111204285Y-104497142D01*
X111251904Y-104544761D01*
X111347142Y-104592380D01*
X111537619Y-104592380D01*
X111632857Y-104544761D01*
X111680476Y-104497142D01*
X111728095Y-104401904D01*
X111728095Y-104211428D01*
X111680476Y-104116190D01*
X111632857Y-104068571D01*
X111537619Y-104020952D01*
X123023333Y-107132380D02*
X122690000Y-106656190D01*
X122451904Y-107132380D02*
X122451904Y-106132380D01*
X122832857Y-106132380D01*
X122928095Y-106180000D01*
X122975714Y-106227619D01*
X123023333Y-106322857D01*
X123023333Y-106465714D01*
X122975714Y-106560952D01*
X122928095Y-106608571D01*
X122832857Y-106656190D01*
X122451904Y-106656190D01*
X123880476Y-106465714D02*
X123880476Y-107132380D01*
X123642380Y-106084761D02*
X123404285Y-106799047D01*
X124023333Y-106799047D01*
X121904285Y-108672380D02*
X122570952Y-108672380D01*
X122142380Y-109672380D01*
X123380476Y-108672380D02*
X123190000Y-108672380D01*
X123094761Y-108720000D01*
X123047142Y-108767619D01*
X122951904Y-108910476D01*
X122904285Y-109100952D01*
X122904285Y-109481904D01*
X122951904Y-109577142D01*
X122999523Y-109624761D01*
X123094761Y-109672380D01*
X123285238Y-109672380D01*
X123380476Y-109624761D01*
X123428095Y-109577142D01*
X123475714Y-109481904D01*
X123475714Y-109243809D01*
X123428095Y-109148571D01*
X123380476Y-109100952D01*
X123285238Y-109053333D01*
X123094761Y-109053333D01*
X122999523Y-109100952D01*
X122951904Y-109148571D01*
X122904285Y-109243809D01*
X124047142Y-109100952D02*
X123951904Y-109053333D01*
X123904285Y-109005714D01*
X123856666Y-108910476D01*
X123856666Y-108862857D01*
X123904285Y-108767619D01*
X123951904Y-108720000D01*
X124047142Y-108672380D01*
X124237619Y-108672380D01*
X124332857Y-108720000D01*
X124380476Y-108767619D01*
X124428095Y-108862857D01*
X124428095Y-108910476D01*
X124380476Y-109005714D01*
X124332857Y-109053333D01*
X124237619Y-109100952D01*
X124047142Y-109100952D01*
X123951904Y-109148571D01*
X123904285Y-109196190D01*
X123856666Y-109291428D01*
X123856666Y-109481904D01*
X123904285Y-109577142D01*
X123951904Y-109624761D01*
X124047142Y-109672380D01*
X124237619Y-109672380D01*
X124332857Y-109624761D01*
X124380476Y-109577142D01*
X124428095Y-109481904D01*
X124428095Y-109291428D01*
X124380476Y-109196190D01*
X124332857Y-109148571D01*
X124237619Y-109100952D01*
X110323333Y-91892380D02*
X109990000Y-91416190D01*
X109751904Y-91892380D02*
X109751904Y-90892380D01*
X110132857Y-90892380D01*
X110228095Y-90940000D01*
X110275714Y-90987619D01*
X110323333Y-91082857D01*
X110323333Y-91225714D01*
X110275714Y-91320952D01*
X110228095Y-91368571D01*
X110132857Y-91416190D01*
X109751904Y-91416190D01*
X111228095Y-90892380D02*
X110751904Y-90892380D01*
X110704285Y-91368571D01*
X110751904Y-91320952D01*
X110847142Y-91273333D01*
X111085238Y-91273333D01*
X111180476Y-91320952D01*
X111228095Y-91368571D01*
X111275714Y-91463809D01*
X111275714Y-91701904D01*
X111228095Y-91797142D01*
X111180476Y-91844761D01*
X111085238Y-91892380D01*
X110847142Y-91892380D01*
X110751904Y-91844761D01*
X110704285Y-91797142D01*
X109204285Y-93432380D02*
X109870952Y-93432380D01*
X109442380Y-94432380D01*
X110680476Y-93432380D02*
X110490000Y-93432380D01*
X110394761Y-93480000D01*
X110347142Y-93527619D01*
X110251904Y-93670476D01*
X110204285Y-93860952D01*
X110204285Y-94241904D01*
X110251904Y-94337142D01*
X110299523Y-94384761D01*
X110394761Y-94432380D01*
X110585238Y-94432380D01*
X110680476Y-94384761D01*
X110728095Y-94337142D01*
X110775714Y-94241904D01*
X110775714Y-94003809D01*
X110728095Y-93908571D01*
X110680476Y-93860952D01*
X110585238Y-93813333D01*
X110394761Y-93813333D01*
X110299523Y-93860952D01*
X110251904Y-93908571D01*
X110204285Y-94003809D01*
X111347142Y-93860952D02*
X111251904Y-93813333D01*
X111204285Y-93765714D01*
X111156666Y-93670476D01*
X111156666Y-93622857D01*
X111204285Y-93527619D01*
X111251904Y-93480000D01*
X111347142Y-93432380D01*
X111537619Y-93432380D01*
X111632857Y-93480000D01*
X111680476Y-93527619D01*
X111728095Y-93622857D01*
X111728095Y-93670476D01*
X111680476Y-93765714D01*
X111632857Y-93813333D01*
X111537619Y-93860952D01*
X111347142Y-93860952D01*
X111251904Y-93908571D01*
X111204285Y-93956190D01*
X111156666Y-94051428D01*
X111156666Y-94241904D01*
X111204285Y-94337142D01*
X111251904Y-94384761D01*
X111347142Y-94432380D01*
X111537619Y-94432380D01*
X111632857Y-94384761D01*
X111680476Y-94337142D01*
X111728095Y-94241904D01*
X111728095Y-94051428D01*
X111680476Y-93956190D01*
X111632857Y-93908571D01*
X111537619Y-93860952D01*
X123023333Y-96972380D02*
X122690000Y-96496190D01*
X122451904Y-96972380D02*
X122451904Y-95972380D01*
X122832857Y-95972380D01*
X122928095Y-96020000D01*
X122975714Y-96067619D01*
X123023333Y-96162857D01*
X123023333Y-96305714D01*
X122975714Y-96400952D01*
X122928095Y-96448571D01*
X122832857Y-96496190D01*
X122451904Y-96496190D01*
X123880476Y-95972380D02*
X123690000Y-95972380D01*
X123594761Y-96020000D01*
X123547142Y-96067619D01*
X123451904Y-96210476D01*
X123404285Y-96400952D01*
X123404285Y-96781904D01*
X123451904Y-96877142D01*
X123499523Y-96924761D01*
X123594761Y-96972380D01*
X123785238Y-96972380D01*
X123880476Y-96924761D01*
X123928095Y-96877142D01*
X123975714Y-96781904D01*
X123975714Y-96543809D01*
X123928095Y-96448571D01*
X123880476Y-96400952D01*
X123785238Y-96353333D01*
X123594761Y-96353333D01*
X123499523Y-96400952D01*
X123451904Y-96448571D01*
X123404285Y-96543809D01*
X121904285Y-98512380D02*
X122570952Y-98512380D01*
X122142380Y-99512380D01*
X123380476Y-98512380D02*
X123190000Y-98512380D01*
X123094761Y-98560000D01*
X123047142Y-98607619D01*
X122951904Y-98750476D01*
X122904285Y-98940952D01*
X122904285Y-99321904D01*
X122951904Y-99417142D01*
X122999523Y-99464761D01*
X123094761Y-99512380D01*
X123285238Y-99512380D01*
X123380476Y-99464761D01*
X123428095Y-99417142D01*
X123475714Y-99321904D01*
X123475714Y-99083809D01*
X123428095Y-98988571D01*
X123380476Y-98940952D01*
X123285238Y-98893333D01*
X123094761Y-98893333D01*
X122999523Y-98940952D01*
X122951904Y-98988571D01*
X122904285Y-99083809D01*
X124047142Y-98940952D02*
X123951904Y-98893333D01*
X123904285Y-98845714D01*
X123856666Y-98750476D01*
X123856666Y-98702857D01*
X123904285Y-98607619D01*
X123951904Y-98560000D01*
X124047142Y-98512380D01*
X124237619Y-98512380D01*
X124332857Y-98560000D01*
X124380476Y-98607619D01*
X124428095Y-98702857D01*
X124428095Y-98750476D01*
X124380476Y-98845714D01*
X124332857Y-98893333D01*
X124237619Y-98940952D01*
X124047142Y-98940952D01*
X123951904Y-98988571D01*
X123904285Y-99036190D01*
X123856666Y-99131428D01*
X123856666Y-99321904D01*
X123904285Y-99417142D01*
X123951904Y-99464761D01*
X124047142Y-99512380D01*
X124237619Y-99512380D01*
X124332857Y-99464761D01*
X124380476Y-99417142D01*
X124428095Y-99321904D01*
X124428095Y-99131428D01*
X124380476Y-99036190D01*
X124332857Y-98988571D01*
X124237619Y-98940952D01*
X110323333Y-117292380D02*
X109990000Y-116816190D01*
X109751904Y-117292380D02*
X109751904Y-116292380D01*
X110132857Y-116292380D01*
X110228095Y-116340000D01*
X110275714Y-116387619D01*
X110323333Y-116482857D01*
X110323333Y-116625714D01*
X110275714Y-116720952D01*
X110228095Y-116768571D01*
X110132857Y-116816190D01*
X109751904Y-116816190D01*
X110656666Y-116292380D02*
X111323333Y-116292380D01*
X110894761Y-117292380D01*
X109204285Y-118832380D02*
X109823333Y-118832380D01*
X109490000Y-119213333D01*
X109632857Y-119213333D01*
X109728095Y-119260952D01*
X109775714Y-119308571D01*
X109823333Y-119403809D01*
X109823333Y-119641904D01*
X109775714Y-119737142D01*
X109728095Y-119784761D01*
X109632857Y-119832380D01*
X109347142Y-119832380D01*
X109251904Y-119784761D01*
X109204285Y-119737142D01*
X110394761Y-119260952D02*
X110299523Y-119213333D01*
X110251904Y-119165714D01*
X110204285Y-119070476D01*
X110204285Y-119022857D01*
X110251904Y-118927619D01*
X110299523Y-118880000D01*
X110394761Y-118832380D01*
X110585238Y-118832380D01*
X110680476Y-118880000D01*
X110728095Y-118927619D01*
X110775714Y-119022857D01*
X110775714Y-119070476D01*
X110728095Y-119165714D01*
X110680476Y-119213333D01*
X110585238Y-119260952D01*
X110394761Y-119260952D01*
X110299523Y-119308571D01*
X110251904Y-119356190D01*
X110204285Y-119451428D01*
X110204285Y-119641904D01*
X110251904Y-119737142D01*
X110299523Y-119784761D01*
X110394761Y-119832380D01*
X110585238Y-119832380D01*
X110680476Y-119784761D01*
X110728095Y-119737142D01*
X110775714Y-119641904D01*
X110775714Y-119451428D01*
X110728095Y-119356190D01*
X110680476Y-119308571D01*
X110585238Y-119260952D01*
X111109047Y-118832380D02*
X111728095Y-118832380D01*
X111394761Y-119213333D01*
X111537619Y-119213333D01*
X111632857Y-119260952D01*
X111680476Y-119308571D01*
X111728095Y-119403809D01*
X111728095Y-119641904D01*
X111680476Y-119737142D01*
X111632857Y-119784761D01*
X111537619Y-119832380D01*
X111251904Y-119832380D01*
X111156666Y-119784761D01*
X111109047Y-119737142D01*
X110323333Y-107132380D02*
X109990000Y-106656190D01*
X109751904Y-107132380D02*
X109751904Y-106132380D01*
X110132857Y-106132380D01*
X110228095Y-106180000D01*
X110275714Y-106227619D01*
X110323333Y-106322857D01*
X110323333Y-106465714D01*
X110275714Y-106560952D01*
X110228095Y-106608571D01*
X110132857Y-106656190D01*
X109751904Y-106656190D01*
X110894761Y-106560952D02*
X110799523Y-106513333D01*
X110751904Y-106465714D01*
X110704285Y-106370476D01*
X110704285Y-106322857D01*
X110751904Y-106227619D01*
X110799523Y-106180000D01*
X110894761Y-106132380D01*
X111085238Y-106132380D01*
X111180476Y-106180000D01*
X111228095Y-106227619D01*
X111275714Y-106322857D01*
X111275714Y-106370476D01*
X111228095Y-106465714D01*
X111180476Y-106513333D01*
X111085238Y-106560952D01*
X110894761Y-106560952D01*
X110799523Y-106608571D01*
X110751904Y-106656190D01*
X110704285Y-106751428D01*
X110704285Y-106941904D01*
X110751904Y-107037142D01*
X110799523Y-107084761D01*
X110894761Y-107132380D01*
X111085238Y-107132380D01*
X111180476Y-107084761D01*
X111228095Y-107037142D01*
X111275714Y-106941904D01*
X111275714Y-106751428D01*
X111228095Y-106656190D01*
X111180476Y-106608571D01*
X111085238Y-106560952D01*
X109204285Y-108672380D02*
X109823333Y-108672380D01*
X109490000Y-109053333D01*
X109632857Y-109053333D01*
X109728095Y-109100952D01*
X109775714Y-109148571D01*
X109823333Y-109243809D01*
X109823333Y-109481904D01*
X109775714Y-109577142D01*
X109728095Y-109624761D01*
X109632857Y-109672380D01*
X109347142Y-109672380D01*
X109251904Y-109624761D01*
X109204285Y-109577142D01*
X110394761Y-109100952D02*
X110299523Y-109053333D01*
X110251904Y-109005714D01*
X110204285Y-108910476D01*
X110204285Y-108862857D01*
X110251904Y-108767619D01*
X110299523Y-108720000D01*
X110394761Y-108672380D01*
X110585238Y-108672380D01*
X110680476Y-108720000D01*
X110728095Y-108767619D01*
X110775714Y-108862857D01*
X110775714Y-108910476D01*
X110728095Y-109005714D01*
X110680476Y-109053333D01*
X110585238Y-109100952D01*
X110394761Y-109100952D01*
X110299523Y-109148571D01*
X110251904Y-109196190D01*
X110204285Y-109291428D01*
X110204285Y-109481904D01*
X110251904Y-109577142D01*
X110299523Y-109624761D01*
X110394761Y-109672380D01*
X110585238Y-109672380D01*
X110680476Y-109624761D01*
X110728095Y-109577142D01*
X110775714Y-109481904D01*
X110775714Y-109291428D01*
X110728095Y-109196190D01*
X110680476Y-109148571D01*
X110585238Y-109100952D01*
X111109047Y-108672380D02*
X111728095Y-108672380D01*
X111394761Y-109053333D01*
X111537619Y-109053333D01*
X111632857Y-109100952D01*
X111680476Y-109148571D01*
X111728095Y-109243809D01*
X111728095Y-109481904D01*
X111680476Y-109577142D01*
X111632857Y-109624761D01*
X111537619Y-109672380D01*
X111251904Y-109672380D01*
X111156666Y-109624761D01*
X111109047Y-109577142D01*
X110323333Y-96972380D02*
X109990000Y-96496190D01*
X109751904Y-96972380D02*
X109751904Y-95972380D01*
X110132857Y-95972380D01*
X110228095Y-96020000D01*
X110275714Y-96067619D01*
X110323333Y-96162857D01*
X110323333Y-96305714D01*
X110275714Y-96400952D01*
X110228095Y-96448571D01*
X110132857Y-96496190D01*
X109751904Y-96496190D01*
X110799523Y-96972380D02*
X110990000Y-96972380D01*
X111085238Y-96924761D01*
X111132857Y-96877142D01*
X111228095Y-96734285D01*
X111275714Y-96543809D01*
X111275714Y-96162857D01*
X111228095Y-96067619D01*
X111180476Y-96020000D01*
X111085238Y-95972380D01*
X110894761Y-95972380D01*
X110799523Y-96020000D01*
X110751904Y-96067619D01*
X110704285Y-96162857D01*
X110704285Y-96400952D01*
X110751904Y-96496190D01*
X110799523Y-96543809D01*
X110894761Y-96591428D01*
X111085238Y-96591428D01*
X111180476Y-96543809D01*
X111228095Y-96496190D01*
X111275714Y-96400952D01*
X109204285Y-98512380D02*
X109823333Y-98512380D01*
X109490000Y-98893333D01*
X109632857Y-98893333D01*
X109728095Y-98940952D01*
X109775714Y-98988571D01*
X109823333Y-99083809D01*
X109823333Y-99321904D01*
X109775714Y-99417142D01*
X109728095Y-99464761D01*
X109632857Y-99512380D01*
X109347142Y-99512380D01*
X109251904Y-99464761D01*
X109204285Y-99417142D01*
X110394761Y-98940952D02*
X110299523Y-98893333D01*
X110251904Y-98845714D01*
X110204285Y-98750476D01*
X110204285Y-98702857D01*
X110251904Y-98607619D01*
X110299523Y-98560000D01*
X110394761Y-98512380D01*
X110585238Y-98512380D01*
X110680476Y-98560000D01*
X110728095Y-98607619D01*
X110775714Y-98702857D01*
X110775714Y-98750476D01*
X110728095Y-98845714D01*
X110680476Y-98893333D01*
X110585238Y-98940952D01*
X110394761Y-98940952D01*
X110299523Y-98988571D01*
X110251904Y-99036190D01*
X110204285Y-99131428D01*
X110204285Y-99321904D01*
X110251904Y-99417142D01*
X110299523Y-99464761D01*
X110394761Y-99512380D01*
X110585238Y-99512380D01*
X110680476Y-99464761D01*
X110728095Y-99417142D01*
X110775714Y-99321904D01*
X110775714Y-99131428D01*
X110728095Y-99036190D01*
X110680476Y-98988571D01*
X110585238Y-98940952D01*
X111109047Y-98512380D02*
X111728095Y-98512380D01*
X111394761Y-98893333D01*
X111537619Y-98893333D01*
X111632857Y-98940952D01*
X111680476Y-98988571D01*
X111728095Y-99083809D01*
X111728095Y-99321904D01*
X111680476Y-99417142D01*
X111632857Y-99464761D01*
X111537619Y-99512380D01*
X111251904Y-99512380D01*
X111156666Y-99464761D01*
X111109047Y-99417142D01*
X122547142Y-112212380D02*
X122213809Y-111736190D01*
X121975714Y-112212380D02*
X121975714Y-111212380D01*
X122356666Y-111212380D01*
X122451904Y-111260000D01*
X122499523Y-111307619D01*
X122547142Y-111402857D01*
X122547142Y-111545714D01*
X122499523Y-111640952D01*
X122451904Y-111688571D01*
X122356666Y-111736190D01*
X121975714Y-111736190D01*
X123499523Y-112212380D02*
X122928095Y-112212380D01*
X123213809Y-112212380D02*
X123213809Y-111212380D01*
X123118571Y-111355238D01*
X123023333Y-111450476D01*
X122928095Y-111498095D01*
X124118571Y-111212380D02*
X124213809Y-111212380D01*
X124309047Y-111260000D01*
X124356666Y-111307619D01*
X124404285Y-111402857D01*
X124451904Y-111593333D01*
X124451904Y-111831428D01*
X124404285Y-112021904D01*
X124356666Y-112117142D01*
X124309047Y-112164761D01*
X124213809Y-112212380D01*
X124118571Y-112212380D01*
X124023333Y-112164761D01*
X123975714Y-112117142D01*
X123928095Y-112021904D01*
X123880476Y-111831428D01*
X123880476Y-111593333D01*
X123928095Y-111402857D01*
X123975714Y-111307619D01*
X124023333Y-111260000D01*
X124118571Y-111212380D01*
X121904285Y-113752380D02*
X122570952Y-113752380D01*
X122142380Y-114752380D01*
X123380476Y-113752380D02*
X123190000Y-113752380D01*
X123094761Y-113800000D01*
X123047142Y-113847619D01*
X122951904Y-113990476D01*
X122904285Y-114180952D01*
X122904285Y-114561904D01*
X122951904Y-114657142D01*
X122999523Y-114704761D01*
X123094761Y-114752380D01*
X123285238Y-114752380D01*
X123380476Y-114704761D01*
X123428095Y-114657142D01*
X123475714Y-114561904D01*
X123475714Y-114323809D01*
X123428095Y-114228571D01*
X123380476Y-114180952D01*
X123285238Y-114133333D01*
X123094761Y-114133333D01*
X122999523Y-114180952D01*
X122951904Y-114228571D01*
X122904285Y-114323809D01*
X124047142Y-114180952D02*
X123951904Y-114133333D01*
X123904285Y-114085714D01*
X123856666Y-113990476D01*
X123856666Y-113942857D01*
X123904285Y-113847619D01*
X123951904Y-113800000D01*
X124047142Y-113752380D01*
X124237619Y-113752380D01*
X124332857Y-113800000D01*
X124380476Y-113847619D01*
X124428095Y-113942857D01*
X124428095Y-113990476D01*
X124380476Y-114085714D01*
X124332857Y-114133333D01*
X124237619Y-114180952D01*
X124047142Y-114180952D01*
X123951904Y-114228571D01*
X123904285Y-114276190D01*
X123856666Y-114371428D01*
X123856666Y-114561904D01*
X123904285Y-114657142D01*
X123951904Y-114704761D01*
X124047142Y-114752380D01*
X124237619Y-114752380D01*
X124332857Y-114704761D01*
X124380476Y-114657142D01*
X124428095Y-114561904D01*
X124428095Y-114371428D01*
X124380476Y-114276190D01*
X124332857Y-114228571D01*
X124237619Y-114180952D01*
X122547142Y-102052380D02*
X122213809Y-101576190D01*
X121975714Y-102052380D02*
X121975714Y-101052380D01*
X122356666Y-101052380D01*
X122451904Y-101100000D01*
X122499523Y-101147619D01*
X122547142Y-101242857D01*
X122547142Y-101385714D01*
X122499523Y-101480952D01*
X122451904Y-101528571D01*
X122356666Y-101576190D01*
X121975714Y-101576190D01*
X123499523Y-102052380D02*
X122928095Y-102052380D01*
X123213809Y-102052380D02*
X123213809Y-101052380D01*
X123118571Y-101195238D01*
X123023333Y-101290476D01*
X122928095Y-101338095D01*
X124451904Y-102052380D02*
X123880476Y-102052380D01*
X124166190Y-102052380D02*
X124166190Y-101052380D01*
X124070952Y-101195238D01*
X123975714Y-101290476D01*
X123880476Y-101338095D01*
X121904285Y-103592380D02*
X122570952Y-103592380D01*
X122142380Y-104592380D01*
X123380476Y-103592380D02*
X123190000Y-103592380D01*
X123094761Y-103640000D01*
X123047142Y-103687619D01*
X122951904Y-103830476D01*
X122904285Y-104020952D01*
X122904285Y-104401904D01*
X122951904Y-104497142D01*
X122999523Y-104544761D01*
X123094761Y-104592380D01*
X123285238Y-104592380D01*
X123380476Y-104544761D01*
X123428095Y-104497142D01*
X123475714Y-104401904D01*
X123475714Y-104163809D01*
X123428095Y-104068571D01*
X123380476Y-104020952D01*
X123285238Y-103973333D01*
X123094761Y-103973333D01*
X122999523Y-104020952D01*
X122951904Y-104068571D01*
X122904285Y-104163809D01*
X124047142Y-104020952D02*
X123951904Y-103973333D01*
X123904285Y-103925714D01*
X123856666Y-103830476D01*
X123856666Y-103782857D01*
X123904285Y-103687619D01*
X123951904Y-103640000D01*
X124047142Y-103592380D01*
X124237619Y-103592380D01*
X124332857Y-103640000D01*
X124380476Y-103687619D01*
X124428095Y-103782857D01*
X124428095Y-103830476D01*
X124380476Y-103925714D01*
X124332857Y-103973333D01*
X124237619Y-104020952D01*
X124047142Y-104020952D01*
X123951904Y-104068571D01*
X123904285Y-104116190D01*
X123856666Y-104211428D01*
X123856666Y-104401904D01*
X123904285Y-104497142D01*
X123951904Y-104544761D01*
X124047142Y-104592380D01*
X124237619Y-104592380D01*
X124332857Y-104544761D01*
X124380476Y-104497142D01*
X124428095Y-104401904D01*
X124428095Y-104211428D01*
X124380476Y-104116190D01*
X124332857Y-104068571D01*
X124237619Y-104020952D01*
X122547142Y-91892380D02*
X122213809Y-91416190D01*
X121975714Y-91892380D02*
X121975714Y-90892380D01*
X122356666Y-90892380D01*
X122451904Y-90940000D01*
X122499523Y-90987619D01*
X122547142Y-91082857D01*
X122547142Y-91225714D01*
X122499523Y-91320952D01*
X122451904Y-91368571D01*
X122356666Y-91416190D01*
X121975714Y-91416190D01*
X123499523Y-91892380D02*
X122928095Y-91892380D01*
X123213809Y-91892380D02*
X123213809Y-90892380D01*
X123118571Y-91035238D01*
X123023333Y-91130476D01*
X122928095Y-91178095D01*
X123880476Y-90987619D02*
X123928095Y-90940000D01*
X124023333Y-90892380D01*
X124261428Y-90892380D01*
X124356666Y-90940000D01*
X124404285Y-90987619D01*
X124451904Y-91082857D01*
X124451904Y-91178095D01*
X124404285Y-91320952D01*
X123832857Y-91892380D01*
X124451904Y-91892380D01*
X121904285Y-93432380D02*
X122570952Y-93432380D01*
X122142380Y-94432380D01*
X123380476Y-93432380D02*
X123190000Y-93432380D01*
X123094761Y-93480000D01*
X123047142Y-93527619D01*
X122951904Y-93670476D01*
X122904285Y-93860952D01*
X122904285Y-94241904D01*
X122951904Y-94337142D01*
X122999523Y-94384761D01*
X123094761Y-94432380D01*
X123285238Y-94432380D01*
X123380476Y-94384761D01*
X123428095Y-94337142D01*
X123475714Y-94241904D01*
X123475714Y-94003809D01*
X123428095Y-93908571D01*
X123380476Y-93860952D01*
X123285238Y-93813333D01*
X123094761Y-93813333D01*
X122999523Y-93860952D01*
X122951904Y-93908571D01*
X122904285Y-94003809D01*
X124047142Y-93860952D02*
X123951904Y-93813333D01*
X123904285Y-93765714D01*
X123856666Y-93670476D01*
X123856666Y-93622857D01*
X123904285Y-93527619D01*
X123951904Y-93480000D01*
X124047142Y-93432380D01*
X124237619Y-93432380D01*
X124332857Y-93480000D01*
X124380476Y-93527619D01*
X124428095Y-93622857D01*
X124428095Y-93670476D01*
X124380476Y-93765714D01*
X124332857Y-93813333D01*
X124237619Y-93860952D01*
X124047142Y-93860952D01*
X123951904Y-93908571D01*
X123904285Y-93956190D01*
X123856666Y-94051428D01*
X123856666Y-94241904D01*
X123904285Y-94337142D01*
X123951904Y-94384761D01*
X124047142Y-94432380D01*
X124237619Y-94432380D01*
X124332857Y-94384761D01*
X124380476Y-94337142D01*
X124428095Y-94241904D01*
X124428095Y-94051428D01*
X124380476Y-93956190D01*
X124332857Y-93908571D01*
X124237619Y-93860952D01*
X135128095Y-117772380D02*
X135128095Y-118581904D01*
X135175714Y-118677142D01*
X135223333Y-118724761D01*
X135318571Y-118772380D01*
X135509047Y-118772380D01*
X135604285Y-118724761D01*
X135651904Y-118677142D01*
X135699523Y-118581904D01*
X135699523Y-117772380D01*
X136699523Y-118772380D02*
X136128095Y-118772380D01*
X136413809Y-118772380D02*
X136413809Y-117772380D01*
X136318571Y-117915238D01*
X136223333Y-118010476D01*
X136128095Y-118058095D01*
X135009523Y-138834761D02*
X135152380Y-138882380D01*
X135390476Y-138882380D01*
X135485714Y-138834761D01*
X135533333Y-138787142D01*
X135580952Y-138691904D01*
X135580952Y-138596666D01*
X135533333Y-138501428D01*
X135485714Y-138453809D01*
X135390476Y-138406190D01*
X135200000Y-138358571D01*
X135104761Y-138310952D01*
X135057142Y-138263333D01*
X135009523Y-138168095D01*
X135009523Y-138072857D01*
X135057142Y-137977619D01*
X135104761Y-137930000D01*
X135200000Y-137882380D01*
X135438095Y-137882380D01*
X135580952Y-137930000D01*
X136009523Y-138882380D02*
X136009523Y-137882380D01*
X136580952Y-138882380D01*
X136580952Y-137882380D01*
X136961904Y-137882380D02*
X137628571Y-137882380D01*
X137200000Y-138882380D01*
X138438095Y-138215714D02*
X138438095Y-138882380D01*
X138200000Y-137834761D02*
X137961904Y-138549047D01*
X138580952Y-138549047D01*
X138914285Y-138596666D02*
X139390476Y-138596666D01*
X138819047Y-138882380D02*
X139152380Y-137882380D01*
X139485714Y-138882380D01*
X139819047Y-138882380D02*
X139819047Y-137882380D01*
X139819047Y-138358571D02*
X140390476Y-138358571D01*
X140390476Y-138882380D02*
X140390476Y-137882380D01*
X141438095Y-138787142D02*
X141390476Y-138834761D01*
X141247619Y-138882380D01*
X141152380Y-138882380D01*
X141009523Y-138834761D01*
X140914285Y-138739523D01*
X140866666Y-138644285D01*
X140819047Y-138453809D01*
X140819047Y-138310952D01*
X140866666Y-138120476D01*
X140914285Y-138025238D01*
X141009523Y-137930000D01*
X141152380Y-137882380D01*
X141247619Y-137882380D01*
X141390476Y-137930000D01*
X141438095Y-137977619D01*
X142390476Y-138882380D02*
X141819047Y-138882380D01*
X142104761Y-138882380D02*
X142104761Y-137882380D01*
X142009523Y-138025238D01*
X141914285Y-138120476D01*
X141819047Y-138168095D01*
X143247619Y-138215714D02*
X143247619Y-138882380D01*
X143009523Y-137834761D02*
X142771428Y-138549047D01*
X143390476Y-138549047D01*
X143771428Y-138882380D02*
X143771428Y-137882380D01*
X144342857Y-138882380D01*
X144342857Y-137882380D01*
X131318095Y-69937380D02*
X131318095Y-70746904D01*
X131365714Y-70842142D01*
X131413333Y-70889761D01*
X131508571Y-70937380D01*
X131699047Y-70937380D01*
X131794285Y-70889761D01*
X131841904Y-70842142D01*
X131889523Y-70746904D01*
X131889523Y-69937380D01*
X132318095Y-70032619D02*
X132365714Y-69985000D01*
X132460952Y-69937380D01*
X132699047Y-69937380D01*
X132794285Y-69985000D01*
X132841904Y-70032619D01*
X132889523Y-70127857D01*
X132889523Y-70223095D01*
X132841904Y-70365952D01*
X132270476Y-70937380D01*
X132889523Y-70937380D01*
X128984761Y-87447380D02*
X128508571Y-87447380D01*
X128508571Y-86447380D01*
X129318095Y-87447380D02*
X129318095Y-86447380D01*
X129651428Y-87161666D01*
X129984761Y-86447380D01*
X129984761Y-87447380D01*
X130365714Y-86447380D02*
X131032380Y-86447380D01*
X130603809Y-87447380D01*
X131556190Y-86875952D02*
X131460952Y-86828333D01*
X131413333Y-86780714D01*
X131365714Y-86685476D01*
X131365714Y-86637857D01*
X131413333Y-86542619D01*
X131460952Y-86495000D01*
X131556190Y-86447380D01*
X131746666Y-86447380D01*
X131841904Y-86495000D01*
X131889523Y-86542619D01*
X131937142Y-86637857D01*
X131937142Y-86685476D01*
X131889523Y-86780714D01*
X131841904Y-86828333D01*
X131746666Y-86875952D01*
X131556190Y-86875952D01*
X131460952Y-86923571D01*
X131413333Y-86971190D01*
X131365714Y-87066428D01*
X131365714Y-87256904D01*
X131413333Y-87352142D01*
X131460952Y-87399761D01*
X131556190Y-87447380D01*
X131746666Y-87447380D01*
X131841904Y-87399761D01*
X131889523Y-87352142D01*
X131937142Y-87256904D01*
X131937142Y-87066428D01*
X131889523Y-86971190D01*
X131841904Y-86923571D01*
X131746666Y-86875952D01*
X132556190Y-86447380D02*
X132651428Y-86447380D01*
X132746666Y-86495000D01*
X132794285Y-86542619D01*
X132841904Y-86637857D01*
X132889523Y-86828333D01*
X132889523Y-87066428D01*
X132841904Y-87256904D01*
X132794285Y-87352142D01*
X132746666Y-87399761D01*
X132651428Y-87447380D01*
X132556190Y-87447380D01*
X132460952Y-87399761D01*
X132413333Y-87352142D01*
X132365714Y-87256904D01*
X132318095Y-87066428D01*
X132318095Y-86828333D01*
X132365714Y-86637857D01*
X132413333Y-86542619D01*
X132460952Y-86495000D01*
X132556190Y-86447380D01*
X133794285Y-86447380D02*
X133318095Y-86447380D01*
X133270476Y-86923571D01*
X133318095Y-86875952D01*
X133413333Y-86828333D01*
X133651428Y-86828333D01*
X133746666Y-86875952D01*
X133794285Y-86923571D01*
X133841904Y-87018809D01*
X133841904Y-87256904D01*
X133794285Y-87352142D01*
X133746666Y-87399761D01*
X133651428Y-87447380D01*
X133413333Y-87447380D01*
X133318095Y-87399761D01*
X133270476Y-87352142D01*
X134841904Y-87352142D02*
X134794285Y-87399761D01*
X134651428Y-87447380D01*
X134556190Y-87447380D01*
X134413333Y-87399761D01*
X134318095Y-87304523D01*
X134270476Y-87209285D01*
X134222857Y-87018809D01*
X134222857Y-86875952D01*
X134270476Y-86685476D01*
X134318095Y-86590238D01*
X134413333Y-86495000D01*
X134556190Y-86447380D01*
X134651428Y-86447380D01*
X134794285Y-86495000D01*
X134841904Y-86542619D01*
X135127619Y-86447380D02*
X135460952Y-87447380D01*
X135794285Y-86447380D01*
D10*
X84116333Y-80088619D02*
X84116333Y-80814333D01*
X84067952Y-80959476D01*
X83971190Y-81056238D01*
X83826047Y-81104619D01*
X83729285Y-81104619D01*
X85132333Y-81104619D02*
X84551761Y-81104619D01*
X84842047Y-81104619D02*
X84842047Y-80088619D01*
X84745285Y-80233761D01*
X84648523Y-80330523D01*
X84551761Y-80378904D01*
X86970809Y-80088619D02*
X87648142Y-80088619D01*
X87212714Y-81104619D01*
X88035190Y-81007857D02*
X88083571Y-81056238D01*
X88035190Y-81104619D01*
X87986809Y-81056238D01*
X88035190Y-81007857D01*
X88035190Y-81104619D01*
X89002809Y-80088619D02*
X88519000Y-80088619D01*
X88470619Y-80572428D01*
X88519000Y-80524047D01*
X88615761Y-80475666D01*
X88857666Y-80475666D01*
X88954428Y-80524047D01*
X89002809Y-80572428D01*
X89051190Y-80669190D01*
X89051190Y-80911095D01*
X89002809Y-81007857D01*
X88954428Y-81056238D01*
X88857666Y-81104619D01*
X88615761Y-81104619D01*
X88519000Y-81056238D01*
X88470619Y-81007857D01*
X89486619Y-80717571D02*
X90260714Y-80717571D01*
X90792904Y-81104619D02*
X90986428Y-81104619D01*
X91083190Y-81056238D01*
X91131571Y-81007857D01*
X91228333Y-80862714D01*
X91276714Y-80669190D01*
X91276714Y-80282142D01*
X91228333Y-80185380D01*
X91179952Y-80137000D01*
X91083190Y-80088619D01*
X90889666Y-80088619D01*
X90792904Y-80137000D01*
X90744523Y-80185380D01*
X90696142Y-80282142D01*
X90696142Y-80524047D01*
X90744523Y-80620809D01*
X90792904Y-80669190D01*
X90889666Y-80717571D01*
X91083190Y-80717571D01*
X91179952Y-80669190D01*
X91228333Y-80620809D01*
X91276714Y-80524047D01*
X91567000Y-80088619D02*
X91905666Y-81104619D01*
X92244333Y-80088619D01*
X93357095Y-81104619D02*
X93357095Y-80088619D01*
X93599000Y-80088619D01*
X93744142Y-80137000D01*
X93840904Y-80233761D01*
X93889285Y-80330523D01*
X93937666Y-80524047D01*
X93937666Y-80669190D01*
X93889285Y-80862714D01*
X93840904Y-80959476D01*
X93744142Y-81056238D01*
X93599000Y-81104619D01*
X93357095Y-81104619D01*
X94953666Y-81007857D02*
X94905285Y-81056238D01*
X94760142Y-81104619D01*
X94663380Y-81104619D01*
X94518238Y-81056238D01*
X94421476Y-80959476D01*
X94373095Y-80862714D01*
X94324714Y-80669190D01*
X94324714Y-80524047D01*
X94373095Y-80330523D01*
X94421476Y-80233761D01*
X94518238Y-80137000D01*
X94663380Y-80088619D01*
X94760142Y-80088619D01*
X94905285Y-80137000D01*
X94953666Y-80185380D01*
X96163190Y-81104619D02*
X96163190Y-80088619D01*
X96647000Y-80427285D02*
X96647000Y-81104619D01*
X96647000Y-80524047D02*
X96695380Y-80475666D01*
X96792142Y-80427285D01*
X96937285Y-80427285D01*
X97034047Y-80475666D01*
X97082428Y-80572428D01*
X97082428Y-81104619D01*
X84902523Y-96344619D02*
X84902523Y-95328619D01*
X85241190Y-96054333D01*
X85579857Y-95328619D01*
X85579857Y-96344619D01*
X86595857Y-96344619D02*
X86015285Y-96344619D01*
X86305571Y-96344619D02*
X86305571Y-95328619D01*
X86208809Y-95473761D01*
X86112047Y-95570523D01*
X86015285Y-95618904D01*
X90393761Y-95328619D02*
X90732428Y-96344619D01*
X91071095Y-95328619D01*
X91941952Y-95377000D02*
X91845190Y-95328619D01*
X91700047Y-95328619D01*
X91554904Y-95377000D01*
X91458142Y-95473761D01*
X91409761Y-95570523D01*
X91361380Y-95764047D01*
X91361380Y-95909190D01*
X91409761Y-96102714D01*
X91458142Y-96199476D01*
X91554904Y-96296238D01*
X91700047Y-96344619D01*
X91796809Y-96344619D01*
X91941952Y-96296238D01*
X91990333Y-96247857D01*
X91990333Y-95909190D01*
X91796809Y-95909190D01*
X92377380Y-96054333D02*
X92861190Y-96054333D01*
X92280619Y-96344619D02*
X92619285Y-95328619D01*
X92957952Y-96344619D01*
X94264238Y-95328619D02*
X94457761Y-95328619D01*
X94554523Y-95377000D01*
X94651285Y-95473761D01*
X94699666Y-95667285D01*
X94699666Y-96005952D01*
X94651285Y-96199476D01*
X94554523Y-96296238D01*
X94457761Y-96344619D01*
X94264238Y-96344619D01*
X94167476Y-96296238D01*
X94070714Y-96199476D01*
X94022333Y-96005952D01*
X94022333Y-95667285D01*
X94070714Y-95473761D01*
X94167476Y-95377000D01*
X94264238Y-95328619D01*
X95570523Y-95667285D02*
X95570523Y-96344619D01*
X95135095Y-95667285D02*
X95135095Y-96199476D01*
X95183476Y-96296238D01*
X95280238Y-96344619D01*
X95425380Y-96344619D01*
X95522142Y-96296238D01*
X95570523Y-96247857D01*
X95909190Y-95667285D02*
X96296238Y-95667285D01*
X96054333Y-95328619D02*
X96054333Y-96199476D01*
X96102714Y-96296238D01*
X96199476Y-96344619D01*
X96296238Y-96344619D01*
D11*
X109728095Y-125182380D02*
X109728095Y-125991904D01*
X109775714Y-126087142D01*
X109823333Y-126134761D01*
X109918571Y-126182380D01*
X110109047Y-126182380D01*
X110204285Y-126134761D01*
X110251904Y-126087142D01*
X110299523Y-125991904D01*
X110299523Y-125182380D01*
X111251904Y-125182380D02*
X110775714Y-125182380D01*
X110728095Y-125658571D01*
X110775714Y-125610952D01*
X110870952Y-125563333D01*
X111109047Y-125563333D01*
X111204285Y-125610952D01*
X111251904Y-125658571D01*
X111299523Y-125753809D01*
X111299523Y-125991904D01*
X111251904Y-126087142D01*
X111204285Y-126134761D01*
X111109047Y-126182380D01*
X110870952Y-126182380D01*
X110775714Y-126134761D01*
X110728095Y-126087142D01*
X113419523Y-138834761D02*
X113562380Y-138882380D01*
X113800476Y-138882380D01*
X113895714Y-138834761D01*
X113943333Y-138787142D01*
X113990952Y-138691904D01*
X113990952Y-138596666D01*
X113943333Y-138501428D01*
X113895714Y-138453809D01*
X113800476Y-138406190D01*
X113610000Y-138358571D01*
X113514761Y-138310952D01*
X113467142Y-138263333D01*
X113419523Y-138168095D01*
X113419523Y-138072857D01*
X113467142Y-137977619D01*
X113514761Y-137930000D01*
X113610000Y-137882380D01*
X113848095Y-137882380D01*
X113990952Y-137930000D01*
X114419523Y-138882380D02*
X114419523Y-137882380D01*
X114990952Y-138882380D01*
X114990952Y-137882380D01*
X115371904Y-137882380D02*
X116038571Y-137882380D01*
X115610000Y-138882380D01*
X116848095Y-138215714D02*
X116848095Y-138882380D01*
X116610000Y-137834761D02*
X116371904Y-138549047D01*
X116990952Y-138549047D01*
X117324285Y-138596666D02*
X117800476Y-138596666D01*
X117229047Y-138882380D02*
X117562380Y-137882380D01*
X117895714Y-138882380D01*
X118229047Y-138882380D02*
X118229047Y-137882380D01*
X118229047Y-138358571D02*
X118800476Y-138358571D01*
X118800476Y-138882380D02*
X118800476Y-137882380D01*
X119848095Y-138787142D02*
X119800476Y-138834761D01*
X119657619Y-138882380D01*
X119562380Y-138882380D01*
X119419523Y-138834761D01*
X119324285Y-138739523D01*
X119276666Y-138644285D01*
X119229047Y-138453809D01*
X119229047Y-138310952D01*
X119276666Y-138120476D01*
X119324285Y-138025238D01*
X119419523Y-137930000D01*
X119562380Y-137882380D01*
X119657619Y-137882380D01*
X119800476Y-137930000D01*
X119848095Y-137977619D01*
X120800476Y-138882380D02*
X120229047Y-138882380D01*
X120514761Y-138882380D02*
X120514761Y-137882380D01*
X120419523Y-138025238D01*
X120324285Y-138120476D01*
X120229047Y-138168095D01*
X121657619Y-138215714D02*
X121657619Y-138882380D01*
X121419523Y-137834761D02*
X121181428Y-138549047D01*
X121800476Y-138549047D01*
X122181428Y-138882380D02*
X122181428Y-137882380D01*
X122752857Y-138882380D01*
X122752857Y-137882380D01*
X108481904Y-80462380D02*
X108481904Y-79462380D01*
X108720000Y-79462380D01*
X108862857Y-79510000D01*
X108958095Y-79605238D01*
X109005714Y-79700476D01*
X109053333Y-79890952D01*
X109053333Y-80033809D01*
X109005714Y-80224285D01*
X108958095Y-80319523D01*
X108862857Y-80414761D01*
X108720000Y-80462380D01*
X108481904Y-80462380D01*
X110005714Y-80462380D02*
X109434285Y-80462380D01*
X109720000Y-80462380D02*
X109720000Y-79462380D01*
X109624761Y-79605238D01*
X109529523Y-79700476D01*
X109434285Y-79748095D01*
X107077142Y-85542380D02*
X106505714Y-85542380D01*
X106791428Y-85542380D02*
X106791428Y-84542380D01*
X106696190Y-84685238D01*
X106600952Y-84780476D01*
X106505714Y-84828095D01*
X107505714Y-85542380D02*
X107505714Y-84542380D01*
X108077142Y-85542380D01*
X108077142Y-84542380D01*
X108981904Y-84875714D02*
X108981904Y-85542380D01*
X108743809Y-84494761D02*
X108505714Y-85209047D01*
X109124761Y-85209047D01*
X110029523Y-85542380D02*
X109458095Y-85542380D01*
X109743809Y-85542380D02*
X109743809Y-84542380D01*
X109648571Y-84685238D01*
X109553333Y-84780476D01*
X109458095Y-84828095D01*
X110886666Y-84875714D02*
X110886666Y-85542380D01*
X110648571Y-84494761D02*
X110410476Y-85209047D01*
X111029523Y-85209047D01*
X111553333Y-84970952D02*
X111458095Y-84923333D01*
X111410476Y-84875714D01*
X111362857Y-84780476D01*
X111362857Y-84732857D01*
X111410476Y-84637619D01*
X111458095Y-84590000D01*
X111553333Y-84542380D01*
X111743809Y-84542380D01*
X111839047Y-84590000D01*
X111886666Y-84637619D01*
X111934285Y-84732857D01*
X111934285Y-84780476D01*
X111886666Y-84875714D01*
X111839047Y-84923333D01*
X111743809Y-84970952D01*
X111553333Y-84970952D01*
X111458095Y-85018571D01*
X111410476Y-85066190D01*
X111362857Y-85161428D01*
X111362857Y-85351904D01*
X111410476Y-85447142D01*
X111458095Y-85494761D01*
X111553333Y-85542380D01*
X111743809Y-85542380D01*
X111839047Y-85494761D01*
X111886666Y-85447142D01*
X111934285Y-85351904D01*
X111934285Y-85161428D01*
X111886666Y-85066190D01*
X111839047Y-85018571D01*
X111743809Y-84970952D01*
M02*
