G04 #@! TF.GenerationSoftware,KiCad,Pcbnew,(5.1.9)-1*
G04 #@! TF.CreationDate,2021-09-19T00:14:35-05:00*
G04 #@! TF.ProjectId,atmel_vga,61746d65-6c5f-4766-9761-2e6b69636164,rev?*
G04 #@! TF.SameCoordinates,Original*
G04 #@! TF.FileFunction,Soldermask,Bot*
G04 #@! TF.FilePolarity,Negative*
%FSLAX46Y46*%
G04 Gerber Fmt 4.6, Leading zero omitted, Abs format (unit mm)*
G04 Created by KiCad (PCBNEW (5.1.9)-1) date 2021-09-19 00:14:35*
%MOMM*%
%LPD*%
G01*
G04 APERTURE LIST*
%ADD10O,1.600000X1.600000*%
%ADD11R,1.600000X1.600000*%
%ADD12O,1.700000X1.700000*%
%ADD13R,1.700000X1.700000*%
%ADD14C,1.397000*%
%ADD15R,1.397000X1.397000*%
%ADD16C,1.600000*%
%ADD17O,1.800000X1.800000*%
%ADD18R,1.800000X1.800000*%
%ADD19O,3.500000X3.500000*%
%ADD20C,1.948180*%
%ADD21C,1.879600*%
%ADD22C,5.080000*%
%ADD23C,5.600000*%
G04 APERTURE END LIST*
D10*
X153670000Y-76200000D03*
X186690000Y-91440000D03*
X156210000Y-76200000D03*
X184150000Y-91440000D03*
X158750000Y-76200000D03*
X181610000Y-91440000D03*
X161290000Y-76200000D03*
X179070000Y-91440000D03*
X163830000Y-76200000D03*
X176530000Y-91440000D03*
X166370000Y-76200000D03*
X173990000Y-91440000D03*
X168910000Y-76200000D03*
X171450000Y-91440000D03*
X171450000Y-76200000D03*
X168910000Y-91440000D03*
X173990000Y-76200000D03*
X166370000Y-91440000D03*
X176530000Y-76200000D03*
X163830000Y-91440000D03*
X179070000Y-76200000D03*
X161290000Y-91440000D03*
X181610000Y-76200000D03*
X158750000Y-91440000D03*
X184150000Y-76200000D03*
X156210000Y-91440000D03*
X186690000Y-76200000D03*
D11*
X153670000Y-91440000D03*
D12*
X142240000Y-91440000D03*
X142240000Y-93980000D03*
X139700000Y-91440000D03*
X139700000Y-93980000D03*
X137160000Y-91440000D03*
D13*
X137160000Y-93980000D03*
D12*
X199390000Y-113665000D03*
X196850000Y-113665000D03*
X199390000Y-111125000D03*
X196850000Y-111125000D03*
X199390000Y-108585000D03*
X196850000Y-108585000D03*
X199390000Y-106045000D03*
X196850000Y-106045000D03*
X199390000Y-103505000D03*
X196850000Y-103505000D03*
X199390000Y-100965000D03*
X196850000Y-100965000D03*
X199390000Y-98425000D03*
X196850000Y-98425000D03*
X199390000Y-95885000D03*
X196850000Y-95885000D03*
X199390000Y-93345000D03*
X196850000Y-93345000D03*
X199390000Y-90805000D03*
X196850000Y-90805000D03*
X199390000Y-88265000D03*
X196850000Y-88265000D03*
X199390000Y-85725000D03*
X196850000Y-85725000D03*
X199390000Y-83185000D03*
X196850000Y-83185000D03*
X199390000Y-80645000D03*
D13*
X196850000Y-80645000D03*
D14*
X157480000Y-115570000D03*
X154940000Y-115570000D03*
X157480000Y-113030000D03*
X154940000Y-113030000D03*
X157480000Y-110490000D03*
X154940000Y-110490000D03*
X157480000Y-107950000D03*
X154940000Y-107950000D03*
X157480000Y-105410000D03*
X154940000Y-105410000D03*
X157480000Y-102870000D03*
X160020000Y-105410000D03*
X160020000Y-102870000D03*
X162560000Y-105410000D03*
X162560000Y-102870000D03*
X165100000Y-105410000D03*
X165100000Y-102870000D03*
X167640000Y-105410000D03*
X167640000Y-102870000D03*
X170180000Y-105410000D03*
X170180000Y-102870000D03*
X172720000Y-105410000D03*
X172720000Y-102870000D03*
X175260000Y-105410000D03*
X175260000Y-102870000D03*
X177800000Y-105410000D03*
X177800000Y-102870000D03*
X180340000Y-105410000D03*
X180340000Y-102870000D03*
X182880000Y-105410000D03*
X182880000Y-102870000D03*
X185420000Y-105410000D03*
X182880000Y-107950000D03*
X185420000Y-107950000D03*
X182880000Y-110490000D03*
X185420000Y-110490000D03*
X182880000Y-113030000D03*
X185420000Y-113030000D03*
X182880000Y-115570000D03*
X185420000Y-115570000D03*
X182880000Y-118110000D03*
X185420000Y-118110000D03*
X182880000Y-120650000D03*
X185420000Y-120650000D03*
X182880000Y-123190000D03*
X185420000Y-123190000D03*
X182880000Y-125730000D03*
X185420000Y-125730000D03*
X182880000Y-128270000D03*
X185420000Y-128270000D03*
X182880000Y-130810000D03*
X185420000Y-130810000D03*
X182880000Y-133350000D03*
X180340000Y-130810000D03*
X180340000Y-133350000D03*
X177800000Y-130810000D03*
X177800000Y-133350000D03*
X175260000Y-130810000D03*
X175260000Y-133350000D03*
X172720000Y-130810000D03*
X172720000Y-133350000D03*
X170180000Y-130810000D03*
X170180000Y-133350000D03*
X167640000Y-130810000D03*
X167640000Y-133350000D03*
X165100000Y-130810000D03*
X165100000Y-133350000D03*
X162560000Y-130810000D03*
X162560000Y-133350000D03*
X160020000Y-130810000D03*
X160020000Y-133350000D03*
X157480000Y-130810000D03*
X157480000Y-133350000D03*
X154940000Y-130810000D03*
X157480000Y-128270000D03*
X154940000Y-128270000D03*
X157480000Y-125730000D03*
X154940000Y-125730000D03*
X157480000Y-123190000D03*
X154940000Y-123190000D03*
X157480000Y-120650000D03*
X154940000Y-120650000D03*
X157480000Y-118110000D03*
D15*
X154940000Y-118110000D03*
D12*
X196850000Y-118745000D03*
X199390000Y-118745000D03*
X196850000Y-121285000D03*
X199390000Y-121285000D03*
X196850000Y-123825000D03*
X199390000Y-123825000D03*
X196850000Y-126365000D03*
X199390000Y-126365000D03*
X196850000Y-128905000D03*
D13*
X199390000Y-128905000D03*
D16*
X190500000Y-115610000D03*
X190500000Y-118110000D03*
X190500000Y-124500000D03*
X190500000Y-127000000D03*
X149860000Y-109180000D03*
X149860000Y-106680000D03*
X149860000Y-123150000D03*
X149860000Y-120650000D03*
X190500000Y-107910000D03*
X190500000Y-105410000D03*
X165140000Y-97790000D03*
X167640000Y-97790000D03*
X161250000Y-138430000D03*
X158750000Y-138430000D03*
X177760000Y-138430000D03*
X175260000Y-138430000D03*
X105410000Y-130770000D03*
X105410000Y-128270000D03*
X141010000Y-115570000D03*
X143510000Y-115570000D03*
X149860000Y-99100000D03*
X149860000Y-101600000D03*
X148590000Y-78700000D03*
X148590000Y-76200000D03*
X114300000Y-73700000D03*
D11*
X114300000Y-76200000D03*
D16*
X104140000Y-73700000D03*
D11*
X104140000Y-76200000D03*
D10*
X143510000Y-102235000D03*
X135890000Y-109855000D03*
X143510000Y-104775000D03*
X135890000Y-107315000D03*
X143510000Y-107315000D03*
X135890000Y-104775000D03*
X143510000Y-109855000D03*
D11*
X135890000Y-102235000D03*
D10*
X106680000Y-114300000D03*
D16*
X114300000Y-114300000D03*
D10*
X119380000Y-119380000D03*
D16*
X127000000Y-119380000D03*
D10*
X106680000Y-104140000D03*
D16*
X114300000Y-104140000D03*
X127000000Y-109220000D03*
D10*
X119380000Y-109220000D03*
D16*
X114300000Y-93980000D03*
D10*
X106680000Y-93980000D03*
X119380000Y-99060000D03*
D16*
X127000000Y-99060000D03*
X106680000Y-119380000D03*
D10*
X114300000Y-119380000D03*
X114300000Y-109220000D03*
D16*
X106680000Y-109220000D03*
X106680000Y-99060000D03*
D10*
X114300000Y-99060000D03*
D16*
X119380000Y-114300000D03*
D10*
X127000000Y-114300000D03*
D16*
X119380000Y-104140000D03*
D10*
X127000000Y-104140000D03*
X127000000Y-93980000D03*
D16*
X119380000Y-93980000D03*
D10*
X143510000Y-120650000D03*
X135890000Y-135890000D03*
X143510000Y-123190000D03*
X135890000Y-133350000D03*
X143510000Y-125730000D03*
X135890000Y-130810000D03*
X143510000Y-128270000D03*
X135890000Y-128270000D03*
X143510000Y-130810000D03*
X135890000Y-125730000D03*
X143510000Y-133350000D03*
X135890000Y-123190000D03*
X143510000Y-135890000D03*
D11*
X135890000Y-120650000D03*
D17*
X123190000Y-81280000D03*
X123190000Y-78740000D03*
D18*
X123190000Y-76200000D03*
D19*
X139850000Y-78740000D03*
D20*
X90449400Y-86360000D03*
X93248480Y-91158060D03*
X96248220Y-86360000D03*
D21*
X96520000Y-117348000D03*
X96520000Y-115059460D03*
X96520000Y-112770920D03*
X96520000Y-110482380D03*
X96520000Y-108191300D03*
X93980000Y-118488460D03*
X93980000Y-116199920D03*
X93980000Y-113908840D03*
X93980000Y-111620300D03*
X93980000Y-109331760D03*
X91440000Y-117348000D03*
X91440000Y-115059460D03*
X91440000Y-112770920D03*
X91440000Y-110482380D03*
X91440000Y-108191300D03*
D22*
X93980000Y-125529340D03*
X93980000Y-100530660D03*
D10*
X110490000Y-128270000D03*
X125730000Y-135890000D03*
X113030000Y-128270000D03*
X123190000Y-135890000D03*
X115570000Y-128270000D03*
X120650000Y-135890000D03*
X118110000Y-128270000D03*
X118110000Y-135890000D03*
X120650000Y-128270000D03*
X115570000Y-135890000D03*
X123190000Y-128270000D03*
X113030000Y-135890000D03*
X125730000Y-128270000D03*
D11*
X110490000Y-135890000D03*
D23*
X88900000Y-73660000D03*
X198120000Y-73660000D03*
X88900000Y-135890000D03*
X198120000Y-135890000D03*
D10*
X105410000Y-82550000D03*
D11*
X113030000Y-82550000D03*
M02*
