M48
; DRILL file {KiCad (5.1.9)-1} date 09/19/21 00:14:33
; FORMAT={-:-/ absolute / metric / decimal}
; #@! TF.CreationDate,2021-09-19T00:14:33-05:00
; #@! TF.GenerationSoftware,Kicad,Pcbnew,(5.1.9)-1
; #@! TF.FileFunction,Plated,1,2,PTH
FMAT,2
METRIC
T1C0.305
T2C0.800
T3C0.813
T4C1.000
T5C1.016
T6C1.298
T7C3.200
T8C3.302
%
G90
G05
T1
X88.265Y-121.92
X89.535Y-120.65
X100.33Y-99.06
X100.33Y-120.65
X100.33Y-123.19
X114.3Y-123.19
X116.84Y-124.46
X119.38Y-121.92
X130.175Y-96.52
X130.175Y-132.08
X131.445Y-106.68
X131.445Y-137.16
X132.715Y-116.84
X132.715Y-128.27
X133.985Y-109.22
X140.97Y-87.63
X140.97Y-99.06
X146.05Y-114.3
X146.05Y-123.19
X146.05Y-130.81
X147.32Y-119.38
X147.32Y-134.62
X148.59Y-128.27
X148.59Y-133.35
X151.13Y-129.54
X151.13Y-132.08
X156.21Y-78.74
X156.21Y-98.425
X157.48Y-87.63
X157.48Y-93.98
X158.75Y-93.98
X158.75Y-107.95
X160.02Y-95.25
X161.29Y-95.885
X161.29Y-97.155
X161.29Y-100.965
X162.56Y-90.17
X162.56Y-111.125
X162.56Y-114.935
X162.56Y-121.92
X163.195Y-98.425
X163.83Y-82.55
X163.83Y-94.615
X165.1Y-77.47
X166.37Y-88.9
X166.37Y-93.345
X167.64Y-82.55
X168.275Y-90.17
X168.91Y-88.265
X168.91Y-100.33
X169.545Y-96.52
X170.18Y-78.105
X170.18Y-93.345
X170.18Y-95.25
X170.18Y-99.695
X171.45Y-85.725
X171.45Y-95.25
X171.45Y-107.95
X172.085Y-93.98
X172.085Y-98.425
X172.72Y-79.375
X172.72Y-93.345
X173.99Y-83.185
X173.99Y-95.885
X173.99Y-99.06
X173.99Y-111.125
X173.99Y-114.935
X173.99Y-124.46
X174.625Y-97.155
X175.26Y-80.01
X175.26Y-94.615
X175.26Y-94.615
X175.26Y-97.79
X176.53Y-79.375
X176.53Y-80.645
X176.53Y-93.345
X176.53Y-109.22
X177.165Y-93.98
X177.8Y-88.9
X179.07Y-80.01
X179.07Y-81.915
X179.07Y-94.615
X179.07Y-96.52
X179.07Y-106.68
X179.07Y-116.84
X180.34Y-95.885
X181.61Y-84.455
X181.61Y-95.885
X181.61Y-97.155
X182.88Y-93.345
X183.515Y-97.155
X184.15Y-86.995
X184.15Y-95.25
X185.42Y-92.71
X185.42Y-93.98
X186.055Y-103.505
X186.69Y-96.52
X186.69Y-116.84
X187.325Y-93.98
X187.96Y-89.535
X187.96Y-111.76
X187.96Y-113.03
X187.96Y-119.38
X187.96Y-121.285
X188.595Y-94.615
X188.595Y-97.155
X188.595Y-103.505
X188.595Y-110.49
X189.23Y-88.9
X189.23Y-90.805
X189.23Y-114.3
X189.865Y-93.345
X189.865Y-97.79
X190.5Y-95.885
X190.5Y-100.33
X191.135Y-95.25
X191.135Y-97.155
X192.405Y-96.52
X192.405Y-99.695
X192.405Y-105.41
X192.405Y-109.855
X193.04Y-117.475
X193.04Y-132.08
X193.675Y-90.17
X193.675Y-102.235
X193.675Y-104.775
X193.675Y-112.395
X193.675Y-122.555
X193.675Y-129.54
X194.945Y-78.74
X195.58Y-78.105
X198.12Y-77.47
X200.66Y-120.015
T2
X104.14Y-73.7
X104.14Y-76.2
X105.41Y-82.55
X105.41Y-128.27
X105.41Y-130.77
X106.68Y-93.98
X106.68Y-99.06
X106.68Y-104.14
X106.68Y-109.22
X106.68Y-114.3
X106.68Y-119.38
X110.49Y-128.27
X110.49Y-135.89
X113.03Y-82.55
X113.03Y-128.27
X113.03Y-135.89
X114.3Y-73.7
X114.3Y-76.2
X114.3Y-93.98
X114.3Y-99.06
X114.3Y-104.14
X114.3Y-109.22
X114.3Y-114.3
X114.3Y-119.38
X115.57Y-128.27
X115.57Y-135.89
X118.11Y-128.27
X118.11Y-135.89
X119.38Y-93.98
X119.38Y-99.06
X119.38Y-104.14
X119.38Y-109.22
X119.38Y-114.3
X119.38Y-119.38
X120.65Y-128.27
X120.65Y-135.89
X123.19Y-128.27
X123.19Y-135.89
X125.73Y-128.27
X125.73Y-135.89
X127.0Y-93.98
X127.0Y-99.06
X127.0Y-104.14
X127.0Y-109.22
X127.0Y-114.3
X127.0Y-119.38
X135.89Y-102.235
X135.89Y-104.775
X135.89Y-107.315
X135.89Y-109.855
X135.89Y-120.65
X135.89Y-123.19
X135.89Y-125.73
X135.89Y-128.27
X135.89Y-130.81
X135.89Y-133.35
X135.89Y-135.89
X141.01Y-115.57
X143.51Y-102.235
X143.51Y-104.775
X143.51Y-107.315
X143.51Y-109.855
X143.51Y-115.57
X143.51Y-120.65
X143.51Y-123.19
X143.51Y-125.73
X143.51Y-128.27
X143.51Y-130.81
X143.51Y-133.35
X143.51Y-135.89
X148.59Y-76.2
X148.59Y-78.7
X149.86Y-99.1
X149.86Y-101.6
X149.86Y-106.68
X149.86Y-109.18
X149.86Y-120.65
X149.86Y-123.15
X153.67Y-76.2
X153.67Y-91.44
X156.21Y-76.2
X156.21Y-91.44
X158.75Y-76.2
X158.75Y-91.44
X158.75Y-138.43
X161.25Y-138.43
X161.29Y-76.2
X161.29Y-91.44
X163.83Y-76.2
X163.83Y-91.44
X165.14Y-97.79
X166.37Y-76.2
X166.37Y-91.44
X167.64Y-97.79
X168.91Y-76.2
X168.91Y-91.44
X171.45Y-76.2
X171.45Y-91.44
X173.99Y-76.2
X173.99Y-91.44
X175.26Y-138.43
X176.53Y-76.2
X176.53Y-91.44
X177.76Y-138.43
X179.07Y-76.2
X179.07Y-91.44
X181.61Y-76.2
X181.61Y-91.44
X184.15Y-76.2
X184.15Y-91.44
X186.69Y-76.2
X186.69Y-91.44
X190.5Y-105.41
X190.5Y-107.91
X190.5Y-115.61
X190.5Y-118.11
X190.5Y-124.5
X190.5Y-127.0
T3
X154.94Y-105.41
X154.94Y-107.95
X154.94Y-110.49
X154.94Y-113.03
X154.94Y-115.57
X154.94Y-118.11
X154.94Y-120.65
X154.94Y-123.19
X154.94Y-125.73
X154.94Y-128.27
X154.94Y-130.81
X157.48Y-102.87
X157.48Y-105.41
X157.48Y-107.95
X157.48Y-110.49
X157.48Y-113.03
X157.48Y-115.57
X157.48Y-118.11
X157.48Y-120.65
X157.48Y-123.19
X157.48Y-125.73
X157.48Y-128.27
X157.48Y-130.81
X157.48Y-133.35
X160.02Y-102.87
X160.02Y-105.41
X160.02Y-130.81
X160.02Y-133.35
X162.56Y-102.87
X162.56Y-105.41
X162.56Y-130.81
X162.56Y-133.35
X165.1Y-102.87
X165.1Y-105.41
X165.1Y-130.81
X165.1Y-133.35
X167.64Y-102.87
X167.64Y-105.41
X167.64Y-130.81
X167.64Y-133.35
X170.18Y-102.87
X170.18Y-105.41
X170.18Y-130.81
X170.18Y-133.35
X172.72Y-102.87
X172.72Y-105.41
X172.72Y-130.81
X172.72Y-133.35
X175.26Y-102.87
X175.26Y-105.41
X175.26Y-130.81
X175.26Y-133.35
X177.8Y-102.87
X177.8Y-105.41
X177.8Y-130.81
X177.8Y-133.35
X180.34Y-102.87
X180.34Y-105.41
X180.34Y-130.81
X180.34Y-133.35
X182.88Y-102.87
X182.88Y-105.41
X182.88Y-107.95
X182.88Y-110.49
X182.88Y-113.03
X182.88Y-115.57
X182.88Y-118.11
X182.88Y-120.65
X182.88Y-123.19
X182.88Y-125.73
X182.88Y-128.27
X182.88Y-130.81
X182.88Y-133.35
X185.42Y-105.41
X185.42Y-107.95
X185.42Y-110.49
X185.42Y-113.03
X185.42Y-115.57
X185.42Y-118.11
X185.42Y-120.65
X185.42Y-123.19
X185.42Y-125.73
X185.42Y-128.27
X185.42Y-130.81
T4
X123.19Y-76.2
X123.19Y-78.74
X123.19Y-81.28
X137.16Y-91.44
X137.16Y-93.98
X139.7Y-91.44
X139.7Y-93.98
X142.24Y-91.44
X142.24Y-93.98
X196.85Y-80.645
X196.85Y-83.185
X196.85Y-85.725
X196.85Y-88.265
X196.85Y-90.805
X196.85Y-93.345
X196.85Y-95.885
X196.85Y-98.425
X196.85Y-100.965
X196.85Y-103.505
X196.85Y-106.045
X196.85Y-108.585
X196.85Y-111.125
X196.85Y-113.665
X196.85Y-118.745
X196.85Y-121.285
X196.85Y-123.825
X196.85Y-126.365
X196.85Y-128.905
X199.39Y-80.645
X199.39Y-83.185
X199.39Y-85.725
X199.39Y-88.265
X199.39Y-90.805
X199.39Y-93.345
X199.39Y-95.885
X199.39Y-98.425
X199.39Y-100.965
X199.39Y-103.505
X199.39Y-106.045
X199.39Y-108.585
X199.39Y-111.125
X199.39Y-113.665
X199.39Y-118.745
X199.39Y-121.285
X199.39Y-123.825
X199.39Y-126.365
X199.39Y-128.905
T5
X91.44Y-108.191
X91.44Y-110.482
X91.44Y-112.771
X91.44Y-115.059
X91.44Y-117.348
X93.98Y-109.332
X93.98Y-111.62
X93.98Y-113.909
X93.98Y-116.2
X93.98Y-118.488
X96.52Y-108.191
X96.52Y-110.482
X96.52Y-112.771
X96.52Y-115.059
X96.52Y-117.348
T6
X90.449Y-86.36
X93.248Y-91.158
X96.248Y-86.36
T7
X88.9Y-73.66
X88.9Y-135.89
X198.12Y-73.66
X198.12Y-135.89
T8
X93.98Y-100.531
X93.98Y-125.529
T0
M30
